<mxfile host="app.diagrams.net" agent="Mozilla/5.0 (Windows NT 10.0; Win64; x64) AppleWebKit/537.36 (KHTML, like Gecko) Chrome/131.0.0.0 Safari/537.36 Edg/131.0.0.0" version="25.0.3">
  <diagram name="PÃ¡gina-1" id="dMbJslpbAxDjgnL5czmJ">
    <mxGraphModel dx="2730" dy="1567" grid="1" gridSize="10" guides="1" tooltips="1" connect="1" arrows="1" fold="1" page="1" pageScale="1" pageWidth="1600" pageHeight="900" math="0" shadow="0">
      <root>
        <mxCell id="0" />
        <mxCell id="1" parent="0" />
        <mxCell id="4XwBpmDzUFXZfetM7Drz-80" value="" style="rounded=0;whiteSpace=wrap;html=1;fillColor=default;strokeColor=none;" vertex="1" parent="1">
          <mxGeometry x="40" y="33" width="1520" height="827" as="geometry" />
        </mxCell>
        <mxCell id="4XwBpmDzUFXZfetM7Drz-33" value="" style="rounded=1;whiteSpace=wrap;html=1;dashed=1;fillColor=none;" vertex="1" parent="1">
          <mxGeometry x="480" y="93" width="210" height="580" as="geometry" />
        </mxCell>
        <mxCell id="4XwBpmDzUFXZfetM7Drz-15" value="" style="group" vertex="1" connectable="0" parent="1">
          <mxGeometry x="530" y="303" width="120" height="150" as="geometry" />
        </mxCell>
        <mxCell id="4XwBpmDzUFXZfetM7Drz-69" style="edgeStyle=orthogonalEdgeStyle;rounded=0;orthogonalLoop=1;jettySize=auto;html=1;" edge="1" parent="4XwBpmDzUFXZfetM7Drz-15" source="4XwBpmDzUFXZfetM7Drz-8">
          <mxGeometry relative="1" as="geometry">
            <mxPoint x="-250" y="50" as="targetPoint" />
          </mxGeometry>
        </mxCell>
        <mxCell id="4XwBpmDzUFXZfetM7Drz-71" value="Fetches the files" style="edgeLabel;html=1;align=center;verticalAlign=middle;resizable=0;points=[];" vertex="1" connectable="0" parent="4XwBpmDzUFXZfetM7Drz-69">
          <mxGeometry x="0.2456" y="4" relative="1" as="geometry">
            <mxPoint x="-24" y="6" as="offset" />
          </mxGeometry>
        </mxCell>
        <mxCell id="4XwBpmDzUFXZfetM7Drz-8" value="" style="shape=image;verticalLabelPosition=bottom;labelBackgroundColor=default;verticalAlign=top;aspect=fixed;imageAspect=0;image=data:image/svg+xml,PHN2ZyB4bWxuczp4bGluaz0iaHR0cDovL3d3dy53My5vcmcvMTk5OS94bGluayIgeG1sbnM9Imh0dHA6Ly93d3cudzMub3JnLzIwMDAvc3ZnIiB4bWw6c3BhY2U9InByZXNlcnZlIiB2aWV3Qm94PSIwIDAgNTEyIDUxMiIgaWQ9IkxheWVyXzEiIHZlcnNpb249IjEuMSIgd2lkdGg9IjgwMHB4IiBoZWlnaHQ9IjgwMHB4Ij4mI3hhOzxjaXJjbGUgcj0iMjU2IiBjeT0iMjU2IiBjeD0iMjU2IiBzdHlsZT0iZmlsbDojRkM2RjU4OyIvPiYjeGE7PHBhdGggZD0iTTUxMiwyNTZjMC0zLjI1OC0wLjA4MS02LjQ5Ny0wLjIwMi05LjcyNkwzOTguOTcsMTMzLjQ0NmwtNy40OSw2LjE0MmwtMzMuNzgzLTMzLjc4M2wtMTUuMzQ0LDI2LjY3MSYjMTA7JiM5O2gtOTMuMjI0aC0xMC4zNjhoLTMyLjMzMmwtMjYuNjcxLTI2LjY3MWwtNy4xMDIsNy4yM2wxOS40NCwxOS40NGgtMjUuMDY2bC02My42NDMsNDkuN2wyOC4yODYsMjguMjg2bDUuNDc1LDk1LjYyOGwtMzMuNzYxLDQ5LjE5JiMxMDsmIzk7bDMyLjQwNCwzMi40MDRsLTQuNzYzLDguODdsMTE1LjI0MywxMTUuMjQzYzMuMjMxLDAuMTIxLDYuNDcsMC4yMDIsOS43MjgsMC4yMDJDMzk3LjM4NCw1MTIsNTEyLDM5Ny4zODQsNTEyLDI1NnoiIHN0eWxlPSJmaWxsOiNFMTUwNTA7Ii8+JiN4YTs8cGF0aCBkPSJNMjU1Ljk5OCwzODcuMDE3Yy03Mi4yNDIsMC0xMzEuMDE3LTU4Ljc3NS0xMzEuMDE3LTEzMS4wMTdzNTguNzc1LTEzMS4wMTcsMTMxLjAxNy0xMzEuMDE3JiMxMDsmIzk7UzM4Ny4wMTUsMTgzLjc1OCwzODcuMDE1LDI1NlMzMjguMjQsMzg3LjAxNywyNTUuOTk4LDM4Ny4wMTd6IE0yNTUuOTk4LDEzNy4wNTFjLTY1LjU4OSwwLTExOC45NDksNTMuMzYtMTE4Ljk0OSwxMTguOTQ5JiMxMDsmIzk7czUzLjM2LDExOC45NDksMTE4Ljk0OSwxMTguOTQ5UzM3NC45NDgsMzIxLjU4OSwzNzQuOTQ4LDI1NlMzMjEuNTg4LDEzNy4wNTEsMjU1Ljk5OCwxMzcuMDUxeiIgc3R5bGU9ImZpbGw6I0U5RUZGNDsiLz4mI3hhOzxwYXRoIGQ9Ik0yNTUuOTk4LDEyNC45ODNjLTAuMDQ4LDAtMC4wOTMsMC4wMDMtMC4xNDEsMC4wMDN2MTIuMDY3YzAuMDQ4LDAsMC4wOTMtMC4wMDMsMC4xNDEtMC4wMDMmIzEwOyYjOTtjNjUuNTg5LDAsMTE4Ljk0OSw1My4zNiwxMTguOTQ5LDExOC45NDlzLTUzLjM2LDExOC45NDktMTE4Ljk0OSwxMTguOTQ5Yy0wLjA0OCwwLTAuMDkzLTAuMDAzLTAuMTQxLTAuMDAzdjEyLjA2NyYjMTA7JiM5O2MwLjA0OCwwLDAuMDkzLDAuMDAzLDAuMTQxLDAuMDAzYzcyLjI0MiwwLDEzMS4wMTctNTguNzc1LDEzMS4wMTctMTMxLjAxN1MzMjguMjQsMTI0Ljk4MywyNTUuOTk4LDEyNC45ODN6IiBzdHlsZT0iZmlsbDojQ0ZEQkU2OyIvPiYjeGE7PHBhdGggZD0iTTQwOC42MSwxODIuMTc3di0yNS40NTloLTE0LjMzM2MtMS4yMDItNC42Ny0zLjA2LTkuMDc2LTUuNDUzLTEzLjEyOGwxMC4xNDctMTAuMTQ3bC0xOC4wMDEtMTguMDAxJiMxMDsmIzk7bC0xMC4xNDcsMTAuMTQ3Yy00LjA1MS0yLjM5My04LjQ1Ni00LjI1MS0xMy4xMjgtNS40NTN2LTE0LjMzM0gzMzIuMjR2MTQuMzMzYy00LjY3LDEuMjAyLTkuMDc2LDMuMDYtMTMuMTI4LDUuNDUzbC0xMC4xNDctMTAuMTQ3JiMxMDsmIzk7bC0xOC4wMDEsMTguMDAxbDEwLjE0NywxMC4xNDdjLTIuMzkzLDQuMDUxLTQuMjUxLDguNDU2LTUuNDUzLDEzLjEyOGgtMTQuMzMzdjI1LjQ1N2gxNC4zMzNjMS4yMDIsNC42NywzLjA2LDkuMDc2LDUuNDUzLDEzLjEyOCYjMTA7JiM5O2wtMTAuMTQ3LDEwLjE0N2wxOC4wMDEsMTguMDAxbDEwLjE0NS0xMC4xNDdjNC4wNTEsMi4zOTMsOC40NTYsNC4yNTEsMTMuMTI4LDUuNDUzdjE0LjMzM2gyNS40NTd2LTE0LjMzMyYjMTA7JiM5O2M0LjY3LTEuMjAyLDkuMDc2LTMuMDYsMTMuMTI4LTUuNDUzbDEwLjE0NSwxMC4xNDdsMTguMDAxLTE4LjAwMWwtMTAuMTQ3LTEwLjE0N2MyLjM5My00LjA1MSw0LjI1MS04LjQ1Niw1LjQ1My0xMy4xMjhoMTQuMzM2JiMxMDsmIzk7VjE4Mi4xNzd6IE0zNDQuOTY3LDE5NC45MDVjLTE0LjA2LDAtMjUuNDU3LTExLjM5Ny0yNS40NTctMjUuNDU3czExLjM5Ny0yNS40NTcsMjUuNDU3LTI1LjQ1N3MyNS40NTcsMTEuMzk3LDI1LjQ1NywyNS40NTcmIzEwOyYjOTtTMzU5LjAyNywxOTQuOTA1LDM0NC45NjcsMTk0LjkwNXoiIHN0eWxlPSJmaWxsOiMzMjRBNUU7Ii8+JiN4YTs8cGF0aCBkPSJNNDA4LjYxLDE4Mi4xNzd2LTI1LjQ1OWgtMTQuMzMzYy0xLjIwMi00LjY3LTMuMDYtOS4wNzYtNS40NTMtMTMuMTI4bDEwLjE0NS0xMC4xNDVsLTE4LjAwMS0xOC4wMDEmIzEwOyYjOTtsLTEwLjE0NywxMC4xNDdjLTQuMDUxLTIuMzkzLTguNDU2LTQuMjUxLTEzLjEyOC01LjQ1M3YtMTQuMzMzaC0xMy4wNTl2MzguMjAyYzAuMTEtMC4wMDIsMC4yMTktMC4wMTcsMC4zMjktMC4wMTcmIzEwOyYjOTtjMTQuMDYsMCwyNS40NTcsMTEuMzk3LDI1LjQ1NywyNS40NTdjMCwxNC4wNi0xMS4zOTcsMjUuNDU3LTI1LjQ1NywyNS40NTdjLTAuMTEsMC0wLjIxOS0wLjAxNi0wLjMyOS0wLjAxN3YzOC4yMDJoMTMuMDU5di0xNC4zMzMmIzEwOyYjOTtjNC42Ny0xLjIwMiw5LjA3Ni0zLjA2LDEzLjEyOC01LjQ1M2wxMC4xNDUsMTAuMTQ1bDE4LjAwMS0xOC4wMDFsLTEwLjE0NS0xMC4xNDVjMi4zOTMtNC4wNTEsNC4yNTEtOC40NTYsNS40NTMtMTMuMTI4aDE0LjMzNCYjMTA7JiM5O1YxODIuMTc3eiIgc3R5bGU9ImZpbGw6IzJCM0I0RTsiLz4mI3hhOzxwYXRoIGQ9Ik0zNDQuOTY3LDIxMC4zMzRjLTIyLjU0NSwwLTQwLjg4Ni0xOC4zNDEtNDAuODg2LTQwLjg4NnMxOC4zNDEtNDAuODg2LDQwLjg4Ni00MC44ODYmIzEwOyYjOTtjMjIuNTQ1LDAsNDAuODg2LDE4LjM0MSw0MC44ODYsNDAuODg2UzM2Ny41MTMsMjEwLjMzNCwzNDQuOTY3LDIxMC4zMzR6IE0zNDQuOTY3LDEzMy45NjNjLTE5LjU2NiwwLTM1LjQ4NywxNS45MTktMzUuNDg3LDM1LjQ4NyYjMTA7JiM5O3MxNS45MTksMzUuNDg3LDM1LjQ4NywzNS40ODdzMzUuNDg3LTE1LjkxOSwzNS40ODctMzUuNDg3UzM2NC41MzQsMTMzLjk2MywzNDQuOTY3LDEzMy45NjN6IiBzdHlsZT0iZmlsbDojMzFCQUZEOyIvPiYjeGE7PHBhdGggZD0iTTM0NC45NjcsMTI4LjU2MmMtMC4xMSwwLTAuMjE5LDAuMDA3LTAuMzI5LDAuMDA5djUuNDA4YzAuMTEtMC4wMDIsMC4yMTktMC4wMTcsMC4zMjktMC4wMTcmIzEwOyYjOTtjMTkuNTY2LDAsMzUuNDg3LDE1LjkxOSwzNS40ODcsMzUuNDg3YzAsMTkuNTY2LTE1LjkxOSwzNS40ODUtMzUuNDg3LDM1LjQ4NWMtMC4xMSwwLTAuMjE5LTAuMDE2LTAuMzI5LTAuMDE3djUuNDA4JiMxMDsmIzk7YzAuMTEsMCwwLjIxOSwwLjAwOSwwLjMyOSwwLjAwOWMyMi41NDUsMCw0MC44ODYtMTguMzQxLDQwLjg4Ni00MC44ODZTMzY3LjUxMywxMjguNTYyLDM0NC45NjcsMTI4LjU2MnoiIHN0eWxlPSJmaWxsOiMyQjlFRDg7Ii8+JiN4YTs8cGF0aCBkPSJNMjMwLjY3NCwxODIuMTc3di0yNS40NTloLTE0LjMzM2MtMS4yMDItNC42Ny0zLjA2LTkuMDc2LTUuNDUzLTEzLjEyOGwxMC4xNDctMTAuMTQ3bC0xOC4wMDEtMTguMDAxJiMxMDsmIzk7bC0xMC4xNDcsMTAuMTQ3Yy00LjA1MS0yLjM5My04LjQ1Ni00LjI1MS0xMy4xMjgtNS40NTN2LTE0LjMzM2gtMjUuNDU5djE0LjMzM2MtNC42NywxLjIwMi05LjA3NiwzLjA2LTEzLjEyOCw1LjQ1M2wtMTAuMTQ3LTEwLjE0NyYjMTA7JiM5O2wtMTcuOTk5LDE4LjAwM2wxMC4xNDcsMTAuMTQ3Yy0yLjM5Myw0LjA1MS00LjI1MSw4LjQ1Ni01LjQ1MywxMy4xMjhIMTAzLjM5djI1LjQ1N2gxNC4zMzNjMS4yMDIsNC42NywzLjA2LDkuMDc2LDUuNDUzLDEzLjEyOCYjMTA7JiM5O2wtMTAuMTQ3LDEwLjE0N2wxOC4wMDEsMTguMDAxbDEwLjE0Ny0xMC4xNDdjNC4wNTEsMi4zOTMsOC40NTYsNC4yNTEsMTMuMTI4LDUuNDUzdjE0LjMzM2gyNS40NTd2LTE0LjMzMyYjMTA7JiM5O2M0LjY3LTEuMjAyLDkuMDc2LTMuMDYsMTMuMTI4LTUuNDUzbDEwLjE0NywxMC4xNDdsMTguMDAxLTE4LjAwMWwtMTAuMTQ3LTEwLjE0N2MyLjM5My00LjA1MSw0LjI1MS04LjQ1Niw1LjQ1My0xMy4xMjgmIzEwOyYjOTtMMjMwLjY3NCwxODIuMTc3TDIzMC42NzQsMTgyLjE3N3ogTTE2Ny4wMzEsMTk0LjkwNWMtMTQuMDYsMC0yNS40NTctMTEuMzk3LTI1LjQ1Ny0yNS40NTdzMTEuMzk3LTI1LjQ1NywyNS40NTctMjUuNDU3JiMxMDsmIzk7czI1LjQ1NywxMS4zOTcsMjUuNDU3LDI1LjQ1N1MxODEuMDg5LDE5NC45MDUsMTY3LjAzMSwxOTQuOTA1eiIgc3R5bGU9ImZpbGw6IzMyNEE1RTsiLz4mI3hhOzxwYXRoIGQ9Ik0yMzAuNjc0LDE4Mi4xNzd2LTI1LjQ1OWgtMTQuMzMzYy0xLjIwMy00LjY3LTMuMDYtOS4wNzYtNS40NTMtMTMuMTI4bDEwLjE0NS0xMC4xNDVsLTE4LjAwMS0xOC4wMDEmIzEwOyYjOTtsLTEwLjE0NSwxMC4xNDdjLTQuMDUxLTIuMzkzLTguNDU2LTQuMjUxLTEzLjEyOC01LjQ1M3YtMTQuMzMzaC0xMi42ODN2MzguMTg4YzE0LjAzOCwwLjAyNCwyNS40MTIsMTEuNDExLDI1LjQxMiwyNS40NTUmIzEwOyYjOTtjMCwxNC4wNDUtMTEuMzc0LDI1LjQzMS0yNS40MTIsMjUuNDU1djM4LjE4OGgxMi42ODNWMjE4Ljc2YzQuNjctMS4yMDIsOS4wNzYtMy4wNiwxMy4xMjgtNS40NTNsMTAuMTQ1LDEwLjE0NWwxOC4wMDEtMTguMDAxJiMxMDsmIzk7bC0xMC4xNDUtMTAuMTQ1YzIuMzkzLTQuMDUxLDQuMjUxLTguNDU2LDUuNDUzLTEzLjEyOGgxNC4zMzNWMTgyLjE3N3oiIHN0eWxlPSJmaWxsOiMyQjNCNEU7Ii8+JiN4YTs8cGF0aCBkPSJNMTY3LjAzMSwyMTAuMzM0Yy0yMi41NDUsMC00MC44ODYtMTguMzQxLTQwLjg4Ni00MC44ODZzMTguMzQxLTQwLjg4Niw0MC44ODYtNDAuODg2JiMxMDsmIzk7czQwLjg4NiwxOC4zNDEsNDAuODg2LDQwLjg4NlMxODkuNTc2LDIxMC4zMzQsMTY3LjAzMSwyMTAuMzM0eiBNMTY3LjAzMSwxMzMuOTYzYy0xOS41NjYsMC0zNS40ODcsMTUuOTE5LTM1LjQ4NywzNS40ODcmIzEwOyYjOTtzMTUuOTE5LDM1LjQ4NywzNS40ODcsMzUuNDg3czM1LjQ4Ny0xNS45MTksMzUuNDg3LTM1LjQ4N1MxODYuNTk3LDEzMy45NjMsMTY3LjAzMSwxMzMuOTYzeiIgc3R5bGU9ImZpbGw6IzMxQkFGRDsiLz4mI3hhOzxwYXRoIGQ9Ik0yMDcuOTE3LDE2OS40NDhjMC0yMi41My0xOC4zMTYtNDAuODYtNDAuODQxLTQwLjg4NHY1LjQwMWMxOS41NDYsMC4wMjQsMzUuNDQsMTUuOTMyLDM1LjQ0LDM1LjQ4MyYjMTA7JiM5O3MtMTUuODk0LDM1LjQ1OS0zNS40NCwzNS40ODN2NS40MDFDMTg5LjYsMjEwLjMwOCwyMDcuOTE3LDE5MS45NzgsMjA3LjkxNywxNjkuNDQ4eiIgc3R5bGU9ImZpbGw6IzJCOUVEODsiLz4mI3hhOzxwYXRoIGQ9Ik00MDguNjEsMzU1LjI4MXYtMjUuNDU3aC0xNC4zMzNjLTEuMjAyLTQuNjctMy4wNi05LjA3Ni01LjQ1My0xMy4xMjhsMTAuMTQ3LTEwLjE0N2wtMTguMDAxLTE4LjAwMSYjMTA7JiM5O2wtMTAuMTQ3LDEwLjE0N2MtNC4wNTEtMi4zOTMtOC40NTYtNC4yNTEtMTMuMTI4LTUuNDUzdi0xNC4zMzNIMzMyLjI0djE0LjMzM2MtNC42NywxLjIwMi05LjA3NiwzLjA2LTEzLjEyOCw1LjQ1M2wtMTAuMTQ3LTEwLjE0NyYjMTA7JiM5O2wtMTguMDAxLDE4LjAwMWwxMC4xNDcsMTAuMTQ1Yy0yLjM5Myw0LjA1MS00LjI1MSw4LjQ1Ni01LjQ1MywxMy4xMjhoLTE0LjMzM3YyNS40NTdoMTQuMzMzYzEuMjAyLDQuNjcsMy4wNiw5LjA3Niw1LjQ1MywxMy4xMjgmIzEwOyYjOTtsLTEwLjE0NywxMC4xNDdsMTguMDAxLDE4LjAwMWwxMC4xNDUtMTAuMTQ1YzQuMDUxLDIuMzkzLDguNDU2LDQuMjUxLDEzLjEyOCw1LjQ1M3YxNC4zMzNoMjUuNDU3di0xNC4zMzMmIzEwOyYjOTtjNC42Ny0xLjIwMiw5LjA3Ni0zLjA2LDEzLjEyOC01LjQ1M2wxMC4xNDUsMTAuMTQ1bDE4LjAwMS0xOC4wMDFsLTEwLjE0Ny0xMC4xNDdjMi4zOTMtNC4wNTEsNC4yNTEtOC40NTYsNS40NTMtMTMuMTI4aDE0LjMzNiYjMTA7JiM5O1YzNTUuMjgxeiBNMzQ0Ljk2NywzNjguMDA5Yy0xNC4wNiwwLTI1LjQ1Ny0xMS4zOTctMjUuNDU3LTI1LjQ1N3MxMS4zOTctMjUuNDU3LDI1LjQ1Ny0yNS40NTdzMjUuNDU3LDExLjM5NywyNS40NTcsMjUuNDU3JiMxMDsmIzk7UzM1OS4wMjcsMzY4LjAwOSwzNDQuOTY3LDM2OC4wMDl6IiBzdHlsZT0iZmlsbDojMzI0QTVFOyIvPiYjeGE7PHBhdGggZD0iTTQwOC42MSwzNTUuMjgxdi0yNS40NTdoLTE0LjMzM2MtMS4yMDItNC42Ny0zLjA2LTkuMDc2LTUuNDUzLTEzLjEyOGwxMC4xNDUtMTAuMTQ1bC0xOC4wMDEtMTguMDAxJiMxMDsmIzk7bC0xMC4xNDcsMTAuMTQ1Yy00LjA1MS0yLjM5My04LjQ1Ni00LjI1MS0xMy4xMjgtNS40NTN2LTE0LjMzM2gtMTIuNjI4djM4LjE5MWMxNC4wMTIsMC4wNTUsMjUuMzU1LDExLjQyNiwyNS4zNTUsMjUuNDUyJiMxMDsmIzk7cy0xMS4zNDMsMjUuMzk3LTI1LjM1NSwyNS40NTJ2MzguMTkxaDEyLjYyOHYtMTQuMzMzYzQuNjctMS4yMDIsOS4wNzYtMy4wNiwxMy4xMjgtNS40NTNsMTAuMTQ1LDEwLjE0N2wxOC4wMDEtMTguMDAxJiMxMDsmIzk7bC0xMC4xNDUtMTAuMTQ1YzIuMzkzLTQuMDUxLDQuMjUxLTguNDU2LDUuNDUzLTEzLjEyOGgxNC4zMzRWMzU1LjI4MXoiIHN0eWxlPSJmaWxsOiMyQjNCNEU7Ii8+JiN4YTs8cGF0aCBkPSJNMzQ0Ljk2NywzODMuNDM4Yy0yMi41NDUsMC00MC44ODYtMTguMzQxLTQwLjg4Ni00MC44ODZjMC0yMi41NDUsMTguMzQxLTQwLjg4Niw0MC44ODYtNDAuODg2JiMxMDsmIzk7YzIyLjU0NSwwLDQwLjg4NiwxOC4zNDEsNDAuODg2LDQwLjg4NkMzODUuODUzLDM2NS4wOTcsMzY3LjUxMywzODMuNDM4LDM0NC45NjcsMzgzLjQzOHogTTM0NC45NjcsMzA3LjA2NiYjMTA7JiM5O2MtMTkuNTY2LDAtMzUuNDg3LDE1LjkxOS0zNS40ODcsMzUuNDg3YzAsMTkuNTY2LDE1LjkxOSwzNS40ODcsMzUuNDg3LDM1LjQ4N3MzNS40ODctMTUuOTE5LDM1LjQ4Ny0zNS40ODcmIzEwOyYjOTtDMzgwLjQ1NCwzMjIuOTg2LDM2NC41MzQsMzA3LjA2NiwzNDQuOTY3LDMwNy4wNjZ6IiBzdHlsZT0iZmlsbDojMzFCQUZEOyIvPiYjeGE7PHBhdGggZD0iTTM4NS44NTMsMzQyLjU1MmMwLTIyLjUxMS0xOC4yODctNDAuODI3LTQwLjc4NC00MC44ODR2NS40MDMmIzEwOyYjOTtjMTkuNTIsMC4wNTUsMzUuMzg1LDE1Ljk0OCwzNS4zODUsMzUuNDgxYzAsMTkuNTMyLTE1Ljg2NSwzNS40MjUtMzUuMzg1LDM1LjQ4MXY1LjQwMyYjMTA7JiM5O0MzNjcuNTY4LDM4My4zNzksMzg1Ljg1MywzNjUuMDYzLDM4NS44NTMsMzQyLjU1MnoiIHN0eWxlPSJmaWxsOiMyQjlFRDg7Ii8+JiN4YTs8cGF0aCBkPSJNMjMwLjY3NCwzNTUuMjgxdi0yNS40NTdoLTE0LjMzM2MtMS4yMDItNC42Ny0zLjA2LTkuMDc2LTUuNDUzLTEzLjEyOGwxMC4xNDctMTAuMTQ3bC0xOC4wMDEtMTguMDAxJiMxMDsmIzk7bC0xMC4xNDcsMTAuMTQ3Yy00LjA1MS0yLjM5My04LjQ1Ni00LjI1MS0xMy4xMjgtNS40NTN2LTE0LjMzM2gtMjUuNDU5djE0LjMzM2MtNC42NywxLjIwMi05LjA3NiwzLjA2LTEzLjEyOCw1LjQ1M2wtMTAuMTQ3LTEwLjE0NyYjMTA7JiM5O2wtMTguMDAxLDE4LjAwMWwxMC4xNDcsMTAuMTQ1Yy0yLjM5Myw0LjA1MS00LjI1MSw4LjQ1Ni01LjQ1MywxMy4xMjhoLTE0LjMzM3YyNS40NTdoMTQuMzMzYzEuMjAyLDQuNjcsMy4wNiw5LjA3Niw1LjQ1MywxMy4xMjgmIzEwOyYjOTtsLTEwLjE0NywxMC4xNDdsMTguMDAxLDE4LjAwMWwxMC4xNDctMTAuMTQ1YzQuMDUxLDIuMzkzLDguNDU2LDQuMjUxLDEzLjEyOCw1LjQ1M3YxNC4zMzNoMjUuNDU3di0xNC4zMzMmIzEwOyYjOTtjNC42Ny0xLjIwMiw5LjA3Ni0zLjA2LDEzLjEyOC01LjQ1M2wxMC4xNDcsMTAuMTQ1bDE4LjAwMS0xOC4wMDFsLTEwLjE0Ny0xMC4xNDdjMi4zOTMtNC4wNTEsNC4yNTEtOC40NTYsNS40NTMtMTMuMTI4aDE0LjMzNCYjMTA7JiM5O1YzNTUuMjgxeiBNMTY3LjAzMSwzNjguMDA5Yy0xNC4wNiwwLTI1LjQ1Ny0xMS4zOTctMjUuNDU3LTI1LjQ1N3MxMS4zOTctMjUuNDU3LDI1LjQ1Ny0yNS40NTdzMjUuNDU3LDExLjM5NywyNS40NTcsMjUuNDU3JiMxMDsmIzk7UzE4MS4wODksMzY4LjAwOSwxNjcuMDMxLDM2OC4wMDl6IiBzdHlsZT0iZmlsbDojMzI0QTVFOyIvPiYjeGE7PHBhdGggZD0iTTIzMC42NzQsMzU1LjI4MXYtMjUuNDU3aC0xNC4zMzNjLTEuMjAzLTQuNjctMy4wNi05LjA3Ni01LjQ1My0xMy4xMjhsMTAuMTQ1LTEwLjE0NWwtMTguMDAxLTE4LjAwMSYjMTA7JiM5O2wtMTAuMTQ1LDEwLjE0NWMtNC4wNTEtMi4zOTMtOC40NTYtNC4yNTEtMTMuMTI4LTUuNDUzdi0xNC4zMzNoLTEyLjY4M3YzOC4xODhjMTQuMDM4LDAuMDI0LDI1LjQxMiwxMS40MTEsMjUuNDEyLDI1LjQ1NSYjMTA7JiM5O2MwLDE0LjA0NS0xMS4zNzQsMjUuNDMxLTI1LjQxMiwyNS40NTV2MzguMTg4aDEyLjY4M3YtMTQuMzMzYzQuNjctMS4yMDIsOS4wNzYtMy4wNiwxMy4xMjgtNS40NTNsMTAuMTQ1LDEwLjE0N2wxOC4wMDEtMTguMDAxJiMxMDsmIzk7bC0xMC4xNDUtMTAuMTQ1YzIuMzkzLTQuMDUxLDQuMjUxLTguNDU2LDUuNDUzLTEzLjEyOGgxNC4zMzNWMzU1LjI4MXoiIHN0eWxlPSJmaWxsOiMyQjNCNEU7Ii8+JiN4YTs8cGF0aCBkPSJNMTY3LjAzMSwzODMuNDM4Yy0yMi41NDUsMC00MC44ODYtMTguMzQxLTQwLjg4Ni00MC44ODZjMC0yMi41NDUsMTguMzQxLTQwLjg4Niw0MC44ODYtNDAuODg2JiMxMDsmIzk7czQwLjg4NiwxOC4zNDEsNDAuODg2LDQwLjg4NkMyMDcuOTE3LDM2NS4wOTcsMTg5LjU3NiwzODMuNDM4LDE2Ny4wMzEsMzgzLjQzOHogTTE2Ny4wMzEsMzA3LjA2NiYjMTA7JiM5O2MtMTkuNTY2LDAtMzUuNDg3LDE1LjkxOS0zNS40ODcsMzUuNDg3YzAsMTkuNTY2LDE1LjkxOSwzNS40ODcsMzUuNDg3LDM1LjQ4N3MzNS40ODctMTUuOTE5LDM1LjQ4Ny0zNS40ODcmIzEwOyYjOTtDMjAyLjUxNiwzMjIuOTg2LDE4Ni41OTcsMzA3LjA2NiwxNjcuMDMxLDMwNy4wNjZ6IiBzdHlsZT0iZmlsbDojMzFCQUZEOyIvPiYjeGE7PHBhdGggZD0iTTIwNy45MTcsMzQyLjU1MmMwLTIyLjUzLTE4LjMxNi00MC44Ni00MC44NDEtNDAuODg0djUuNDAxYzE5LjU0NiwwLjAyNCwzNS40NCwxNS45MzIsMzUuNDQsMzUuNDgzJiMxMDsmIzk7cy0xNS44OTQsMzUuNDU5LTM1LjQ0LDM1LjQ4M3Y1LjQwMUMxODkuNiwzODMuNDEyLDIwNy45MTcsMzY1LjA4MiwyMDcuOTE3LDM0Mi41NTJ6IiBzdHlsZT0iZmlsbDojMkI5RUQ4OyIvPiYjeGE7PHBhdGggZD0iTTE2Ny4wMzEsMTMzLjk2M2MtMTkuNTY2LDAtMzUuNDg3LDE1LjkxOS0zNS40ODcsMzUuNDg3czE1LjkxOSwzNS40ODcsMzUuNDg3LDM1LjQ4NyYjMTA7JiM5O3MzNS40ODctMTUuOTE5LDM1LjQ4Ny0zNS40ODdTMTg2LjU5NywxMzMuOTYzLDE2Ny4wMzEsMTMzLjk2M3oiIHN0eWxlPSJmaWxsOiNGRkVEQjU7Ii8+JiN4YTs8cGF0aCBkPSJNMTY3LjAzMSwxMzMuOTYzYy0xOS41NjYsMC0zNS40ODcsMTUuOTE5LTM1LjQ4NywzNS40ODdzMTUuOTE5LDM1LjQ4NywzNS40ODcsMzUuNDg3JiMxMDsmIzk7czM1LjQ4Ny0xNS45MTksMzUuNDg3LTM1LjQ4N1MxODYuNTk3LDEzMy45NjMsMTY3LjAzMSwxMzMuOTYzeiIgc3R5bGU9ImZpbGw6I0I1RjFGNDsiLz4mI3hhOzxwYXRoIGQ9Ik0yMDIuNTE2LDE2OS40NDhjMC0xOS41NTEtMTUuODk0LTM1LjQ1OS0zNS40NC0zNS40ODN2NzAuOTY2JiMxMDsmIzk7QzE4Ni42MjEsMjA0LjkwNywyMDIuNTE2LDE4OC45OTksMjAyLjUxNiwxNjkuNDQ4eiIgc3R5bGU9ImZpbGw6Izg0REJGRjsiLz4mI3hhOzxwYXRoIGQ9Ik0zNDQuOTY3LDEzMy45NjNjLTE5LjU2NiwwLTM1LjQ4NywxNS45MTktMzUuNDg3LDM1LjQ4N3MxNS45MTksMzUuNDg3LDM1LjQ4NywzNS40ODcmIzEwOyYjOTtzMzUuNDg3LTE1LjkxOSwzNS40ODctMzUuNDg3UzM2NC41MzQsMTMzLjk2MywzNDQuOTY3LDEzMy45NjN6IiBzdHlsZT0iZmlsbDojQjVGMUY0OyIvPiYjeGE7PHBhdGggZD0iTTM0NC45NjcsMTMzLjk2MWMtMC4xMSwwLTAuMjE5LDAuMDE2LTAuMzI5LDAuMDE3djcwLjkzOWMwLjExLDAuMDAyLDAuMjE5LDAuMDE3LDAuMzI5LDAuMDE3JiMxMDsmIzk7YzE5LjU2NiwwLDM1LjQ4Ny0xNS45MTksMzUuNDg3LTM1LjQ4NUMzODAuNDU0LDE0OS44ODIsMzY0LjUzNCwxMzMuOTYxLDM0NC45NjcsMTMzLjk2MXoiIHN0eWxlPSJmaWxsOiM4NERCRkY7Ii8+JiN4YTs8cGF0aCBkPSJNMzQ0Ljk2NywzMDcuMDY2Yy0xOS41NjYsMC0zNS40ODcsMTUuOTE5LTM1LjQ4NywzNS40ODdjMCwxOS41NjYsMTUuOTE5LDM1LjQ4NywzNS40ODcsMzUuNDg3JiMxMDsmIzk7czM1LjQ4Ny0xNS45MTksMzUuNDg3LTM1LjQ4N0MzODAuNDU0LDMyMi45ODYsMzY0LjUzNCwzMDcuMDY2LDM0NC45NjcsMzA3LjA2NnoiIHN0eWxlPSJmaWxsOiNCNUYxRjQ7Ii8+JiN4YTs8cGF0aCBkPSJNMzgwLjQ1NCwzNDIuNTUyYzAtMTkuNTMyLTE1Ljg2NS0zNS40MjUtMzUuMzg1LTM1LjQ4MXY3MC45NjEmIzEwOyYjOTtDMzY0LjU4OSwzNzcuOTc3LDM4MC40NTQsMzYyLjA4NCwzODAuNDU0LDM0Mi41NTJ6IiBzdHlsZT0iZmlsbDojODREQkZGOyIvPiYjeGE7PHBhdGggZD0iTTE2Ny4wMzEsMzA3LjA2NmMtMTkuNTY2LDAtMzUuNDg3LDE1LjkxOS0zNS40ODcsMzUuNDg3YzAsMTkuNTY2LDE1LjkxOSwzNS40ODcsMzUuNDg3LDM1LjQ4NyYjMTA7JiM5O3MzNS40ODctMTUuOTE5LDM1LjQ4Ny0zNS40ODdDMjAyLjUxNiwzMjIuOTg2LDE4Ni41OTcsMzA3LjA2NiwxNjcuMDMxLDMwNy4wNjZ6IiBzdHlsZT0iZmlsbDojQjVGMUY0OyIvPiYjeGE7PHBhdGggZD0iTTIwMi41MTYsMzQyLjU1MmMwLTE5LjU1MS0xNS44OTQtMzUuNDU5LTM1LjQ0LTM1LjQ4M3Y3MC45NjYmIzEwOyYjOTtDMTg2LjYyMSwzNzguMDExLDIwMi41MTYsMzYyLjEwMywyMDIuNTE2LDM0Mi41NTJ6IiBzdHlsZT0iZmlsbDojODREQkZGOyIvPiYjeGE7PC9zdmc+;" vertex="1" parent="4XwBpmDzUFXZfetM7Drz-15">
          <mxGeometry width="100" height="100" as="geometry" />
        </mxCell>
        <mxCell id="4XwBpmDzUFXZfetM7Drz-12" value="" style="shape=image;verticalLabelPosition=bottom;labelBackgroundColor=default;verticalAlign=top;aspect=fixed;imageAspect=0;image=data:image/svg+xml,PHN2ZyB4bWxucz0iaHR0cDovL3d3dy53My5vcmcvMjAwMC9zdmciIHZlcnNpb249IjEuMSIgY2xhc3M9Imljb24iIHZpZXdCb3g9IjAgMCAxMDI0IDEwMjQiIGhlaWdodD0iODAwcHgiIHdpZHRoPSI4MDBweCI+PHBhdGggZmlsbD0iI0QxQzRFOSIgZD0iTTgxMC42NjY2NjcgMTQ5LjMzMzMzM0gyMTMuMzMzMzMzYy0yMy40NjY2NjcgMC00Mi42NjY2NjcgMTkuMi00Mi42NjY2NjYgNDIuNjY2NjY3djEyOGMwIDIzLjQ2NjY2NyAxOS4yIDQyLjY2NjY2NyA0Mi42NjY2NjYgNDIuNjY2NjY3aDU5Ny4zMzMzMzRjMjMuNDY2NjY3IDAgNDIuNjY2NjY3LTE5LjIgNDIuNjY2NjY2LTQyLjY2NjY2N1YxOTJjMC0yMy40NjY2NjctMTkuMi00Mi42NjY2NjctNDIuNjY2NjY2LTQyLjY2NjY2N3pNODEwLjY2NjY2NyA0MDUuMzMzMzMzSDIxMy4zMzMzMzNjLTIzLjQ2NjY2NyAwLTQyLjY2NjY2NyAxOS4yLTQyLjY2NjY2NiA0Mi42NjY2Njd2MTI4YzAgMjMuNDY2NjY3IDE5LjIgNDIuNjY2NjY3IDQyLjY2NjY2NiA0Mi42NjY2NjdoNTk3LjMzMzMzNGMyMy40NjY2NjcgMCA0Mi42NjY2NjctMTkuMiA0Mi42NjY2NjYtNDIuNjY2NjY3di0xMjhjMC0yMy40NjY2NjctMTkuMi00Mi42NjY2NjctNDIuNjY2NjY2LTQyLjY2NjY2N3pNODEwLjY2NjY2NyA2NjEuMzMzMzMzSDIxMy4zMzMzMzNjLTIzLjQ2NjY2NyAwLTQyLjY2NjY2NyAxOS4yLTQyLjY2NjY2NiA0Mi42NjY2Njd2MTI4YzAgMjMuNDY2NjY3IDE5LjIgNDIuNjY2NjY3IDQyLjY2NjY2NiA0Mi42NjY2NjdoNTk3LjMzMzMzNGMyMy40NjY2NjcgMCA0Mi42NjY2NjctMTkuMiA0Mi42NjY2NjYtNDIuNjY2NjY3di0xMjhjMC0yMy40NjY2NjctMTkuMi00Mi42NjY2NjctNDIuNjY2NjY2LTQyLjY2NjY2N3oiLz48cGF0aCBmaWxsPSIjMjE5NkYzIiBkPSJNNjYxLjMzMzMzMyA2NDBsMTQ5LjMzMzMzNCAxMTkuNDY2NjY3VjUyMC41MzMzMzN6Ii8+PHBhdGggZmlsbD0iIzIxOTZGMyIgZD0iTTgxMC42NjY2NjcgNTk3LjMzMzMzM2MtNi40IDAtMTQuOTMzMzMzIDAtMjEuMzMzMzM0IDIuMTMzMzM0djg1LjMzMzMzM2M2LjQtMi4xMzMzMzMgMTQuOTMzMzMzLTIuMTMzMzMzIDIxLjMzMzMzNC0yLjEzMzMzMyA3MC40IDAgMTI4IDU3LjYgMTI4IDEyOHMtNTcuNiAxMjgtMTI4IDEyOC0xMjgtNTcuNi0xMjgtMTI4YzAtNi40IDAtMTIuOCAyLjEzMzMzMy0xOS4ybC03Mi41MzMzMzMtNTcuNmMtOC41MzMzMzMgMjMuNDY2NjY3LTE0LjkzMzMzMyA0OS4wNjY2NjctMTQuOTMzMzM0IDc2LjggMCAxMTcuMzMzMzMzIDk2IDIxMy4zMzMzMzMgMjEzLjMzMzMzNCAyMTMuMzMzMzMzczIxMy4zMzMzMzMtOTYgMjEzLjMzMzMzMy0yMTMuMzMzMzMzLTk2LTIxMy4zMzMzMzMtMjEzLjMzMzMzMy0yMTMuMzMzMzM0eiIvPjwvc3ZnPg==;" vertex="1" parent="4XwBpmDzUFXZfetM7Drz-15">
          <mxGeometry x="60" y="60" width="60" height="60" as="geometry" />
        </mxCell>
        <mxCell id="4XwBpmDzUFXZfetM7Drz-13" value="Maintenance&lt;div&gt;Worker&lt;/div&gt;" style="text;html=1;align=center;verticalAlign=middle;resizable=0;points=[];autosize=1;strokeColor=none;fillColor=none;" vertex="1" parent="4XwBpmDzUFXZfetM7Drz-15">
          <mxGeometry x="10" y="110" width="90" height="40" as="geometry" />
        </mxCell>
        <mxCell id="4XwBpmDzUFXZfetM7Drz-16" value="" style="group;fontStyle=1" vertex="1" connectable="0" parent="1">
          <mxGeometry x="530" y="483" width="120" height="160" as="geometry" />
        </mxCell>
        <mxCell id="4XwBpmDzUFXZfetM7Drz-9" value="" style="shape=image;verticalLabelPosition=bottom;labelBackgroundColor=default;verticalAlign=top;aspect=fixed;imageAspect=0;image=data:image/svg+xml,PHN2ZyB4bWxuczp4bGluaz0iaHR0cDovL3d3dy53My5vcmcvMTk5OS94bGluayIgeG1sbnM9Imh0dHA6Ly93d3cudzMub3JnLzIwMDAvc3ZnIiB4bWw6c3BhY2U9InByZXNlcnZlIiB2aWV3Qm94PSIwIDAgNTEyIDUxMiIgaWQ9IkxheWVyXzEiIHZlcnNpb249IjEuMSIgd2lkdGg9IjgwMHB4IiBoZWlnaHQ9IjgwMHB4Ij4mI3hhOzxjaXJjbGUgcj0iMjU2IiBjeT0iMjU2IiBjeD0iMjU2IiBzdHlsZT0iZmlsbDojRkM2RjU4OyIvPiYjeGE7PHBhdGggZD0iTTUxMiwyNTZjMC0zLjI1OC0wLjA4MS02LjQ5Ny0wLjIwMi05LjcyNkwzOTguOTcsMTMzLjQ0NmwtNy40OSw2LjE0MmwtMzMuNzgzLTMzLjc4M2wtMTUuMzQ0LDI2LjY3MSYjMTA7JiM5O2gtOTMuMjI0aC0xMC4zNjhoLTMyLjMzMmwtMjYuNjcxLTI2LjY3MWwtNy4xMDIsNy4yM2wxOS40NCwxOS40NGgtMjUuMDY2bC02My42NDMsNDkuN2wyOC4yODYsMjguMjg2bDUuNDc1LDk1LjYyOGwtMzMuNzYxLDQ5LjE5JiMxMDsmIzk7bDMyLjQwNCwzMi40MDRsLTQuNzYzLDguODdsMTE1LjI0MywxMTUuMjQzYzMuMjMxLDAuMTIxLDYuNDcsMC4yMDIsOS43MjgsMC4yMDJDMzk3LjM4NCw1MTIsNTEyLDM5Ny4zODQsNTEyLDI1NnoiIHN0eWxlPSJmaWxsOiNFMTUwNTA7Ii8+JiN4YTs8cGF0aCBkPSJNMjU1Ljk5OCwzODcuMDE3Yy03Mi4yNDIsMC0xMzEuMDE3LTU4Ljc3NS0xMzEuMDE3LTEzMS4wMTdzNTguNzc1LTEzMS4wMTcsMTMxLjAxNy0xMzEuMDE3JiMxMDsmIzk7UzM4Ny4wMTUsMTgzLjc1OCwzODcuMDE1LDI1NlMzMjguMjQsMzg3LjAxNywyNTUuOTk4LDM4Ny4wMTd6IE0yNTUuOTk4LDEzNy4wNTFjLTY1LjU4OSwwLTExOC45NDksNTMuMzYtMTE4Ljk0OSwxMTguOTQ5JiMxMDsmIzk7czUzLjM2LDExOC45NDksMTE4Ljk0OSwxMTguOTQ5UzM3NC45NDgsMzIxLjU4OSwzNzQuOTQ4LDI1NlMzMjEuNTg4LDEzNy4wNTEsMjU1Ljk5OCwxMzcuMDUxeiIgc3R5bGU9ImZpbGw6I0U5RUZGNDsiLz4mI3hhOzxwYXRoIGQ9Ik0yNTUuOTk4LDEyNC45ODNjLTAuMDQ4LDAtMC4wOTMsMC4wMDMtMC4xNDEsMC4wMDN2MTIuMDY3YzAuMDQ4LDAsMC4wOTMtMC4wMDMsMC4xNDEtMC4wMDMmIzEwOyYjOTtjNjUuNTg5LDAsMTE4Ljk0OSw1My4zNiwxMTguOTQ5LDExOC45NDlzLTUzLjM2LDExOC45NDktMTE4Ljk0OSwxMTguOTQ5Yy0wLjA0OCwwLTAuMDkzLTAuMDAzLTAuMTQxLTAuMDAzdjEyLjA2NyYjMTA7JiM5O2MwLjA0OCwwLDAuMDkzLDAuMDAzLDAuMTQxLDAuMDAzYzcyLjI0MiwwLDEzMS4wMTctNTguNzc1LDEzMS4wMTctMTMxLjAxN1MzMjguMjQsMTI0Ljk4MywyNTUuOTk4LDEyNC45ODN6IiBzdHlsZT0iZmlsbDojQ0ZEQkU2OyIvPiYjeGE7PHBhdGggZD0iTTQwOC42MSwxODIuMTc3di0yNS40NTloLTE0LjMzM2MtMS4yMDItNC42Ny0zLjA2LTkuMDc2LTUuNDUzLTEzLjEyOGwxMC4xNDctMTAuMTQ3bC0xOC4wMDEtMTguMDAxJiMxMDsmIzk7bC0xMC4xNDcsMTAuMTQ3Yy00LjA1MS0yLjM5My04LjQ1Ni00LjI1MS0xMy4xMjgtNS40NTN2LTE0LjMzM0gzMzIuMjR2MTQuMzMzYy00LjY3LDEuMjAyLTkuMDc2LDMuMDYtMTMuMTI4LDUuNDUzbC0xMC4xNDctMTAuMTQ3JiMxMDsmIzk7bC0xOC4wMDEsMTguMDAxbDEwLjE0NywxMC4xNDdjLTIuMzkzLDQuMDUxLTQuMjUxLDguNDU2LTUuNDUzLDEzLjEyOGgtMTQuMzMzdjI1LjQ1N2gxNC4zMzNjMS4yMDIsNC42NywzLjA2LDkuMDc2LDUuNDUzLDEzLjEyOCYjMTA7JiM5O2wtMTAuMTQ3LDEwLjE0N2wxOC4wMDEsMTguMDAxbDEwLjE0NS0xMC4xNDdjNC4wNTEsMi4zOTMsOC40NTYsNC4yNTEsMTMuMTI4LDUuNDUzdjE0LjMzM2gyNS40NTd2LTE0LjMzMyYjMTA7JiM5O2M0LjY3LTEuMjAyLDkuMDc2LTMuMDYsMTMuMTI4LTUuNDUzbDEwLjE0NSwxMC4xNDdsMTguMDAxLTE4LjAwMWwtMTAuMTQ3LTEwLjE0N2MyLjM5My00LjA1MSw0LjI1MS04LjQ1Niw1LjQ1My0xMy4xMjhoMTQuMzM2JiMxMDsmIzk7VjE4Mi4xNzd6IE0zNDQuOTY3LDE5NC45MDVjLTE0LjA2LDAtMjUuNDU3LTExLjM5Ny0yNS40NTctMjUuNDU3czExLjM5Ny0yNS40NTcsMjUuNDU3LTI1LjQ1N3MyNS40NTcsMTEuMzk3LDI1LjQ1NywyNS40NTcmIzEwOyYjOTtTMzU5LjAyNywxOTQuOTA1LDM0NC45NjcsMTk0LjkwNXoiIHN0eWxlPSJmaWxsOiMzMjRBNUU7Ii8+JiN4YTs8cGF0aCBkPSJNNDA4LjYxLDE4Mi4xNzd2LTI1LjQ1OWgtMTQuMzMzYy0xLjIwMi00LjY3LTMuMDYtOS4wNzYtNS40NTMtMTMuMTI4bDEwLjE0NS0xMC4xNDVsLTE4LjAwMS0xOC4wMDEmIzEwOyYjOTtsLTEwLjE0NywxMC4xNDdjLTQuMDUxLTIuMzkzLTguNDU2LTQuMjUxLTEzLjEyOC01LjQ1M3YtMTQuMzMzaC0xMy4wNTl2MzguMjAyYzAuMTEtMC4wMDIsMC4yMTktMC4wMTcsMC4zMjktMC4wMTcmIzEwOyYjOTtjMTQuMDYsMCwyNS40NTcsMTEuMzk3LDI1LjQ1NywyNS40NTdjMCwxNC4wNi0xMS4zOTcsMjUuNDU3LTI1LjQ1NywyNS40NTdjLTAuMTEsMC0wLjIxOS0wLjAxNi0wLjMyOS0wLjAxN3YzOC4yMDJoMTMuMDU5di0xNC4zMzMmIzEwOyYjOTtjNC42Ny0xLjIwMiw5LjA3Ni0zLjA2LDEzLjEyOC01LjQ1M2wxMC4xNDUsMTAuMTQ1bDE4LjAwMS0xOC4wMDFsLTEwLjE0NS0xMC4xNDVjMi4zOTMtNC4wNTEsNC4yNTEtOC40NTYsNS40NTMtMTMuMTI4aDE0LjMzNCYjMTA7JiM5O1YxODIuMTc3eiIgc3R5bGU9ImZpbGw6IzJCM0I0RTsiLz4mI3hhOzxwYXRoIGQ9Ik0zNDQuOTY3LDIxMC4zMzRjLTIyLjU0NSwwLTQwLjg4Ni0xOC4zNDEtNDAuODg2LTQwLjg4NnMxOC4zNDEtNDAuODg2LDQwLjg4Ni00MC44ODYmIzEwOyYjOTtjMjIuNTQ1LDAsNDAuODg2LDE4LjM0MSw0MC44ODYsNDAuODg2UzM2Ny41MTMsMjEwLjMzNCwzNDQuOTY3LDIxMC4zMzR6IE0zNDQuOTY3LDEzMy45NjNjLTE5LjU2NiwwLTM1LjQ4NywxNS45MTktMzUuNDg3LDM1LjQ4NyYjMTA7JiM5O3MxNS45MTksMzUuNDg3LDM1LjQ4NywzNS40ODdzMzUuNDg3LTE1LjkxOSwzNS40ODctMzUuNDg3UzM2NC41MzQsMTMzLjk2MywzNDQuOTY3LDEzMy45NjN6IiBzdHlsZT0iZmlsbDojMzFCQUZEOyIvPiYjeGE7PHBhdGggZD0iTTM0NC45NjcsMTI4LjU2MmMtMC4xMSwwLTAuMjE5LDAuMDA3LTAuMzI5LDAuMDA5djUuNDA4YzAuMTEtMC4wMDIsMC4yMTktMC4wMTcsMC4zMjktMC4wMTcmIzEwOyYjOTtjMTkuNTY2LDAsMzUuNDg3LDE1LjkxOSwzNS40ODcsMzUuNDg3YzAsMTkuNTY2LTE1LjkxOSwzNS40ODUtMzUuNDg3LDM1LjQ4NWMtMC4xMSwwLTAuMjE5LTAuMDE2LTAuMzI5LTAuMDE3djUuNDA4JiMxMDsmIzk7YzAuMTEsMCwwLjIxOSwwLjAwOSwwLjMyOSwwLjAwOWMyMi41NDUsMCw0MC44ODYtMTguMzQxLDQwLjg4Ni00MC44ODZTMzY3LjUxMywxMjguNTYyLDM0NC45NjcsMTI4LjU2MnoiIHN0eWxlPSJmaWxsOiMyQjlFRDg7Ii8+JiN4YTs8cGF0aCBkPSJNMjMwLjY3NCwxODIuMTc3di0yNS40NTloLTE0LjMzM2MtMS4yMDItNC42Ny0zLjA2LTkuMDc2LTUuNDUzLTEzLjEyOGwxMC4xNDctMTAuMTQ3bC0xOC4wMDEtMTguMDAxJiMxMDsmIzk7bC0xMC4xNDcsMTAuMTQ3Yy00LjA1MS0yLjM5My04LjQ1Ni00LjI1MS0xMy4xMjgtNS40NTN2LTE0LjMzM2gtMjUuNDU5djE0LjMzM2MtNC42NywxLjIwMi05LjA3NiwzLjA2LTEzLjEyOCw1LjQ1M2wtMTAuMTQ3LTEwLjE0NyYjMTA7JiM5O2wtMTcuOTk5LDE4LjAwM2wxMC4xNDcsMTAuMTQ3Yy0yLjM5Myw0LjA1MS00LjI1MSw4LjQ1Ni01LjQ1MywxMy4xMjhIMTAzLjM5djI1LjQ1N2gxNC4zMzNjMS4yMDIsNC42NywzLjA2LDkuMDc2LDUuNDUzLDEzLjEyOCYjMTA7JiM5O2wtMTAuMTQ3LDEwLjE0N2wxOC4wMDEsMTguMDAxbDEwLjE0Ny0xMC4xNDdjNC4wNTEsMi4zOTMsOC40NTYsNC4yNTEsMTMuMTI4LDUuNDUzdjE0LjMzM2gyNS40NTd2LTE0LjMzMyYjMTA7JiM5O2M0LjY3LTEuMjAyLDkuMDc2LTMuMDYsMTMuMTI4LTUuNDUzbDEwLjE0NywxMC4xNDdsMTguMDAxLTE4LjAwMWwtMTAuMTQ3LTEwLjE0N2MyLjM5My00LjA1MSw0LjI1MS04LjQ1Niw1LjQ1My0xMy4xMjgmIzEwOyYjOTtMMjMwLjY3NCwxODIuMTc3TDIzMC42NzQsMTgyLjE3N3ogTTE2Ny4wMzEsMTk0LjkwNWMtMTQuMDYsMC0yNS40NTctMTEuMzk3LTI1LjQ1Ny0yNS40NTdzMTEuMzk3LTI1LjQ1NywyNS40NTctMjUuNDU3JiMxMDsmIzk7czI1LjQ1NywxMS4zOTcsMjUuNDU3LDI1LjQ1N1MxODEuMDg5LDE5NC45MDUsMTY3LjAzMSwxOTQuOTA1eiIgc3R5bGU9ImZpbGw6IzMyNEE1RTsiLz4mI3hhOzxwYXRoIGQ9Ik0yMzAuNjc0LDE4Mi4xNzd2LTI1LjQ1OWgtMTQuMzMzYy0xLjIwMy00LjY3LTMuMDYtOS4wNzYtNS40NTMtMTMuMTI4bDEwLjE0NS0xMC4xNDVsLTE4LjAwMS0xOC4wMDEmIzEwOyYjOTtsLTEwLjE0NSwxMC4xNDdjLTQuMDUxLTIuMzkzLTguNDU2LTQuMjUxLTEzLjEyOC01LjQ1M3YtMTQuMzMzaC0xMi42ODN2MzguMTg4YzE0LjAzOCwwLjAyNCwyNS40MTIsMTEuNDExLDI1LjQxMiwyNS40NTUmIzEwOyYjOTtjMCwxNC4wNDUtMTEuMzc0LDI1LjQzMS0yNS40MTIsMjUuNDU1djM4LjE4OGgxMi42ODNWMjE4Ljc2YzQuNjctMS4yMDIsOS4wNzYtMy4wNiwxMy4xMjgtNS40NTNsMTAuMTQ1LDEwLjE0NWwxOC4wMDEtMTguMDAxJiMxMDsmIzk7bC0xMC4xNDUtMTAuMTQ1YzIuMzkzLTQuMDUxLDQuMjUxLTguNDU2LDUuNDUzLTEzLjEyOGgxNC4zMzNWMTgyLjE3N3oiIHN0eWxlPSJmaWxsOiMyQjNCNEU7Ii8+JiN4YTs8cGF0aCBkPSJNMTY3LjAzMSwyMTAuMzM0Yy0yMi41NDUsMC00MC44ODYtMTguMzQxLTQwLjg4Ni00MC44ODZzMTguMzQxLTQwLjg4Niw0MC44ODYtNDAuODg2JiMxMDsmIzk7czQwLjg4NiwxOC4zNDEsNDAuODg2LDQwLjg4NlMxODkuNTc2LDIxMC4zMzQsMTY3LjAzMSwyMTAuMzM0eiBNMTY3LjAzMSwxMzMuOTYzYy0xOS41NjYsMC0zNS40ODcsMTUuOTE5LTM1LjQ4NywzNS40ODcmIzEwOyYjOTtzMTUuOTE5LDM1LjQ4NywzNS40ODcsMzUuNDg3czM1LjQ4Ny0xNS45MTksMzUuNDg3LTM1LjQ4N1MxODYuNTk3LDEzMy45NjMsMTY3LjAzMSwxMzMuOTYzeiIgc3R5bGU9ImZpbGw6IzMxQkFGRDsiLz4mI3hhOzxwYXRoIGQ9Ik0yMDcuOTE3LDE2OS40NDhjMC0yMi41My0xOC4zMTYtNDAuODYtNDAuODQxLTQwLjg4NHY1LjQwMWMxOS41NDYsMC4wMjQsMzUuNDQsMTUuOTMyLDM1LjQ0LDM1LjQ4MyYjMTA7JiM5O3MtMTUuODk0LDM1LjQ1OS0zNS40NCwzNS40ODN2NS40MDFDMTg5LjYsMjEwLjMwOCwyMDcuOTE3LDE5MS45NzgsMjA3LjkxNywxNjkuNDQ4eiIgc3R5bGU9ImZpbGw6IzJCOUVEODsiLz4mI3hhOzxwYXRoIGQ9Ik00MDguNjEsMzU1LjI4MXYtMjUuNDU3aC0xNC4zMzNjLTEuMjAyLTQuNjctMy4wNi05LjA3Ni01LjQ1My0xMy4xMjhsMTAuMTQ3LTEwLjE0N2wtMTguMDAxLTE4LjAwMSYjMTA7JiM5O2wtMTAuMTQ3LDEwLjE0N2MtNC4wNTEtMi4zOTMtOC40NTYtNC4yNTEtMTMuMTI4LTUuNDUzdi0xNC4zMzNIMzMyLjI0djE0LjMzM2MtNC42NywxLjIwMi05LjA3NiwzLjA2LTEzLjEyOCw1LjQ1M2wtMTAuMTQ3LTEwLjE0NyYjMTA7JiM5O2wtMTguMDAxLDE4LjAwMWwxMC4xNDcsMTAuMTQ1Yy0yLjM5Myw0LjA1MS00LjI1MSw4LjQ1Ni01LjQ1MywxMy4xMjhoLTE0LjMzM3YyNS40NTdoMTQuMzMzYzEuMjAyLDQuNjcsMy4wNiw5LjA3Niw1LjQ1MywxMy4xMjgmIzEwOyYjOTtsLTEwLjE0NywxMC4xNDdsMTguMDAxLDE4LjAwMWwxMC4xNDUtMTAuMTQ1YzQuMDUxLDIuMzkzLDguNDU2LDQuMjUxLDEzLjEyOCw1LjQ1M3YxNC4zMzNoMjUuNDU3di0xNC4zMzMmIzEwOyYjOTtjNC42Ny0xLjIwMiw5LjA3Ni0zLjA2LDEzLjEyOC01LjQ1M2wxMC4xNDUsMTAuMTQ1bDE4LjAwMS0xOC4wMDFsLTEwLjE0Ny0xMC4xNDdjMi4zOTMtNC4wNTEsNC4yNTEtOC40NTYsNS40NTMtMTMuMTI4aDE0LjMzNiYjMTA7JiM5O1YzNTUuMjgxeiBNMzQ0Ljk2NywzNjguMDA5Yy0xNC4wNiwwLTI1LjQ1Ny0xMS4zOTctMjUuNDU3LTI1LjQ1N3MxMS4zOTctMjUuNDU3LDI1LjQ1Ny0yNS40NTdzMjUuNDU3LDExLjM5NywyNS40NTcsMjUuNDU3JiMxMDsmIzk7UzM1OS4wMjcsMzY4LjAwOSwzNDQuOTY3LDM2OC4wMDl6IiBzdHlsZT0iZmlsbDojMzI0QTVFOyIvPiYjeGE7PHBhdGggZD0iTTQwOC42MSwzNTUuMjgxdi0yNS40NTdoLTE0LjMzM2MtMS4yMDItNC42Ny0zLjA2LTkuMDc2LTUuNDUzLTEzLjEyOGwxMC4xNDUtMTAuMTQ1bC0xOC4wMDEtMTguMDAxJiMxMDsmIzk7bC0xMC4xNDcsMTAuMTQ1Yy00LjA1MS0yLjM5My04LjQ1Ni00LjI1MS0xMy4xMjgtNS40NTN2LTE0LjMzM2gtMTIuNjI4djM4LjE5MWMxNC4wMTIsMC4wNTUsMjUuMzU1LDExLjQyNiwyNS4zNTUsMjUuNDUyJiMxMDsmIzk7cy0xMS4zNDMsMjUuMzk3LTI1LjM1NSwyNS40NTJ2MzguMTkxaDEyLjYyOHYtMTQuMzMzYzQuNjctMS4yMDIsOS4wNzYtMy4wNiwxMy4xMjgtNS40NTNsMTAuMTQ1LDEwLjE0N2wxOC4wMDEtMTguMDAxJiMxMDsmIzk7bC0xMC4xNDUtMTAuMTQ1YzIuMzkzLTQuMDUxLDQuMjUxLTguNDU2LDUuNDUzLTEzLjEyOGgxNC4zMzRWMzU1LjI4MXoiIHN0eWxlPSJmaWxsOiMyQjNCNEU7Ii8+JiN4YTs8cGF0aCBkPSJNMzQ0Ljk2NywzODMuNDM4Yy0yMi41NDUsMC00MC44ODYtMTguMzQxLTQwLjg4Ni00MC44ODZjMC0yMi41NDUsMTguMzQxLTQwLjg4Niw0MC44ODYtNDAuODg2JiMxMDsmIzk7YzIyLjU0NSwwLDQwLjg4NiwxOC4zNDEsNDAuODg2LDQwLjg4NkMzODUuODUzLDM2NS4wOTcsMzY3LjUxMywzODMuNDM4LDM0NC45NjcsMzgzLjQzOHogTTM0NC45NjcsMzA3LjA2NiYjMTA7JiM5O2MtMTkuNTY2LDAtMzUuNDg3LDE1LjkxOS0zNS40ODcsMzUuNDg3YzAsMTkuNTY2LDE1LjkxOSwzNS40ODcsMzUuNDg3LDM1LjQ4N3MzNS40ODctMTUuOTE5LDM1LjQ4Ny0zNS40ODcmIzEwOyYjOTtDMzgwLjQ1NCwzMjIuOTg2LDM2NC41MzQsMzA3LjA2NiwzNDQuOTY3LDMwNy4wNjZ6IiBzdHlsZT0iZmlsbDojMzFCQUZEOyIvPiYjeGE7PHBhdGggZD0iTTM4NS44NTMsMzQyLjU1MmMwLTIyLjUxMS0xOC4yODctNDAuODI3LTQwLjc4NC00MC44ODR2NS40MDMmIzEwOyYjOTtjMTkuNTIsMC4wNTUsMzUuMzg1LDE1Ljk0OCwzNS4zODUsMzUuNDgxYzAsMTkuNTMyLTE1Ljg2NSwzNS40MjUtMzUuMzg1LDM1LjQ4MXY1LjQwMyYjMTA7JiM5O0MzNjcuNTY4LDM4My4zNzksMzg1Ljg1MywzNjUuMDYzLDM4NS44NTMsMzQyLjU1MnoiIHN0eWxlPSJmaWxsOiMyQjlFRDg7Ii8+JiN4YTs8cGF0aCBkPSJNMjMwLjY3NCwzNTUuMjgxdi0yNS40NTdoLTE0LjMzM2MtMS4yMDItNC42Ny0zLjA2LTkuMDc2LTUuNDUzLTEzLjEyOGwxMC4xNDctMTAuMTQ3bC0xOC4wMDEtMTguMDAxJiMxMDsmIzk7bC0xMC4xNDcsMTAuMTQ3Yy00LjA1MS0yLjM5My04LjQ1Ni00LjI1MS0xMy4xMjgtNS40NTN2LTE0LjMzM2gtMjUuNDU5djE0LjMzM2MtNC42NywxLjIwMi05LjA3NiwzLjA2LTEzLjEyOCw1LjQ1M2wtMTAuMTQ3LTEwLjE0NyYjMTA7JiM5O2wtMTguMDAxLDE4LjAwMWwxMC4xNDcsMTAuMTQ1Yy0yLjM5Myw0LjA1MS00LjI1MSw4LjQ1Ni01LjQ1MywxMy4xMjhoLTE0LjMzM3YyNS40NTdoMTQuMzMzYzEuMjAyLDQuNjcsMy4wNiw5LjA3Niw1LjQ1MywxMy4xMjgmIzEwOyYjOTtsLTEwLjE0NywxMC4xNDdsMTguMDAxLDE4LjAwMWwxMC4xNDctMTAuMTQ1YzQuMDUxLDIuMzkzLDguNDU2LDQuMjUxLDEzLjEyOCw1LjQ1M3YxNC4zMzNoMjUuNDU3di0xNC4zMzMmIzEwOyYjOTtjNC42Ny0xLjIwMiw5LjA3Ni0zLjA2LDEzLjEyOC01LjQ1M2wxMC4xNDcsMTAuMTQ1bDE4LjAwMS0xOC4wMDFsLTEwLjE0Ny0xMC4xNDdjMi4zOTMtNC4wNTEsNC4yNTEtOC40NTYsNS40NTMtMTMuMTI4aDE0LjMzNCYjMTA7JiM5O1YzNTUuMjgxeiBNMTY3LjAzMSwzNjguMDA5Yy0xNC4wNiwwLTI1LjQ1Ny0xMS4zOTctMjUuNDU3LTI1LjQ1N3MxMS4zOTctMjUuNDU3LDI1LjQ1Ny0yNS40NTdzMjUuNDU3LDExLjM5NywyNS40NTcsMjUuNDU3JiMxMDsmIzk7UzE4MS4wODksMzY4LjAwOSwxNjcuMDMxLDM2OC4wMDl6IiBzdHlsZT0iZmlsbDojMzI0QTVFOyIvPiYjeGE7PHBhdGggZD0iTTIzMC42NzQsMzU1LjI4MXYtMjUuNDU3aC0xNC4zMzNjLTEuMjAzLTQuNjctMy4wNi05LjA3Ni01LjQ1My0xMy4xMjhsMTAuMTQ1LTEwLjE0NWwtMTguMDAxLTE4LjAwMSYjMTA7JiM5O2wtMTAuMTQ1LDEwLjE0NWMtNC4wNTEtMi4zOTMtOC40NTYtNC4yNTEtMTMuMTI4LTUuNDUzdi0xNC4zMzNoLTEyLjY4M3YzOC4xODhjMTQuMDM4LDAuMDI0LDI1LjQxMiwxMS40MTEsMjUuNDEyLDI1LjQ1NSYjMTA7JiM5O2MwLDE0LjA0NS0xMS4zNzQsMjUuNDMxLTI1LjQxMiwyNS40NTV2MzguMTg4aDEyLjY4M3YtMTQuMzMzYzQuNjctMS4yMDIsOS4wNzYtMy4wNiwxMy4xMjgtNS40NTNsMTAuMTQ1LDEwLjE0N2wxOC4wMDEtMTguMDAxJiMxMDsmIzk7bC0xMC4xNDUtMTAuMTQ1YzIuMzkzLTQuMDUxLDQuMjUxLTguNDU2LDUuNDUzLTEzLjEyOGgxNC4zMzNWMzU1LjI4MXoiIHN0eWxlPSJmaWxsOiMyQjNCNEU7Ii8+JiN4YTs8cGF0aCBkPSJNMTY3LjAzMSwzODMuNDM4Yy0yMi41NDUsMC00MC44ODYtMTguMzQxLTQwLjg4Ni00MC44ODZjMC0yMi41NDUsMTguMzQxLTQwLjg4Niw0MC44ODYtNDAuODg2JiMxMDsmIzk7czQwLjg4NiwxOC4zNDEsNDAuODg2LDQwLjg4NkMyMDcuOTE3LDM2NS4wOTcsMTg5LjU3NiwzODMuNDM4LDE2Ny4wMzEsMzgzLjQzOHogTTE2Ny4wMzEsMzA3LjA2NiYjMTA7JiM5O2MtMTkuNTY2LDAtMzUuNDg3LDE1LjkxOS0zNS40ODcsMzUuNDg3YzAsMTkuNTY2LDE1LjkxOSwzNS40ODcsMzUuNDg3LDM1LjQ4N3MzNS40ODctMTUuOTE5LDM1LjQ4Ny0zNS40ODcmIzEwOyYjOTtDMjAyLjUxNiwzMjIuOTg2LDE4Ni41OTcsMzA3LjA2NiwxNjcuMDMxLDMwNy4wNjZ6IiBzdHlsZT0iZmlsbDojMzFCQUZEOyIvPiYjeGE7PHBhdGggZD0iTTIwNy45MTcsMzQyLjU1MmMwLTIyLjUzLTE4LjMxNi00MC44Ni00MC44NDEtNDAuODg0djUuNDAxYzE5LjU0NiwwLjAyNCwzNS40NCwxNS45MzIsMzUuNDQsMzUuNDgzJiMxMDsmIzk7cy0xNS44OTQsMzUuNDU5LTM1LjQ0LDM1LjQ4M3Y1LjQwMUMxODkuNiwzODMuNDEyLDIwNy45MTcsMzY1LjA4MiwyMDcuOTE3LDM0Mi41NTJ6IiBzdHlsZT0iZmlsbDojMkI5RUQ4OyIvPiYjeGE7PHBhdGggZD0iTTE2Ny4wMzEsMTMzLjk2M2MtMTkuNTY2LDAtMzUuNDg3LDE1LjkxOS0zNS40ODcsMzUuNDg3czE1LjkxOSwzNS40ODcsMzUuNDg3LDM1LjQ4NyYjMTA7JiM5O3MzNS40ODctMTUuOTE5LDM1LjQ4Ny0zNS40ODdTMTg2LjU5NywxMzMuOTYzLDE2Ny4wMzEsMTMzLjk2M3oiIHN0eWxlPSJmaWxsOiNGRkVEQjU7Ii8+JiN4YTs8cGF0aCBkPSJNMTY3LjAzMSwxMzMuOTYzYy0xOS41NjYsMC0zNS40ODcsMTUuOTE5LTM1LjQ4NywzNS40ODdzMTUuOTE5LDM1LjQ4NywzNS40ODcsMzUuNDg3JiMxMDsmIzk7czM1LjQ4Ny0xNS45MTksMzUuNDg3LTM1LjQ4N1MxODYuNTk3LDEzMy45NjMsMTY3LjAzMSwxMzMuOTYzeiIgc3R5bGU9ImZpbGw6I0I1RjFGNDsiLz4mI3hhOzxwYXRoIGQ9Ik0yMDIuNTE2LDE2OS40NDhjMC0xOS41NTEtMTUuODk0LTM1LjQ1OS0zNS40NC0zNS40ODN2NzAuOTY2JiMxMDsmIzk7QzE4Ni42MjEsMjA0LjkwNywyMDIuNTE2LDE4OC45OTksMjAyLjUxNiwxNjkuNDQ4eiIgc3R5bGU9ImZpbGw6Izg0REJGRjsiLz4mI3hhOzxwYXRoIGQ9Ik0zNDQuOTY3LDEzMy45NjNjLTE5LjU2NiwwLTM1LjQ4NywxNS45MTktMzUuNDg3LDM1LjQ4N3MxNS45MTksMzUuNDg3LDM1LjQ4NywzNS40ODcmIzEwOyYjOTtzMzUuNDg3LTE1LjkxOSwzNS40ODctMzUuNDg3UzM2NC41MzQsMTMzLjk2MywzNDQuOTY3LDEzMy45NjN6IiBzdHlsZT0iZmlsbDojQjVGMUY0OyIvPiYjeGE7PHBhdGggZD0iTTM0NC45NjcsMTMzLjk2MWMtMC4xMSwwLTAuMjE5LDAuMDE2LTAuMzI5LDAuMDE3djcwLjkzOWMwLjExLDAuMDAyLDAuMjE5LDAuMDE3LDAuMzI5LDAuMDE3JiMxMDsmIzk7YzE5LjU2NiwwLDM1LjQ4Ny0xNS45MTksMzUuNDg3LTM1LjQ4NUMzODAuNDU0LDE0OS44ODIsMzY0LjUzNCwxMzMuOTYxLDM0NC45NjcsMTMzLjk2MXoiIHN0eWxlPSJmaWxsOiM4NERCRkY7Ii8+JiN4YTs8cGF0aCBkPSJNMzQ0Ljk2NywzMDcuMDY2Yy0xOS41NjYsMC0zNS40ODcsMTUuOTE5LTM1LjQ4NywzNS40ODdjMCwxOS41NjYsMTUuOTE5LDM1LjQ4NywzNS40ODcsMzUuNDg3JiMxMDsmIzk7czM1LjQ4Ny0xNS45MTksMzUuNDg3LTM1LjQ4N0MzODAuNDU0LDMyMi45ODYsMzY0LjUzNCwzMDcuMDY2LDM0NC45NjcsMzA3LjA2NnoiIHN0eWxlPSJmaWxsOiNCNUYxRjQ7Ii8+JiN4YTs8cGF0aCBkPSJNMzgwLjQ1NCwzNDIuNTUyYzAtMTkuNTMyLTE1Ljg2NS0zNS40MjUtMzUuMzg1LTM1LjQ4MXY3MC45NjEmIzEwOyYjOTtDMzY0LjU4OSwzNzcuOTc3LDM4MC40NTQsMzYyLjA4NCwzODAuNDU0LDM0Mi41NTJ6IiBzdHlsZT0iZmlsbDojODREQkZGOyIvPiYjeGE7PHBhdGggZD0iTTE2Ny4wMzEsMzA3LjA2NmMtMTkuNTY2LDAtMzUuNDg3LDE1LjkxOS0zNS40ODcsMzUuNDg3YzAsMTkuNTY2LDE1LjkxOSwzNS40ODcsMzUuNDg3LDM1LjQ4NyYjMTA7JiM5O3MzNS40ODctMTUuOTE5LDM1LjQ4Ny0zNS40ODdDMjAyLjUxNiwzMjIuOTg2LDE4Ni41OTcsMzA3LjA2NiwxNjcuMDMxLDMwNy4wNjZ6IiBzdHlsZT0iZmlsbDojQjVGMUY0OyIvPiYjeGE7PHBhdGggZD0iTTIwMi41MTYsMzQyLjU1MmMwLTE5LjU1MS0xNS44OTQtMzUuNDU5LTM1LjQ0LTM1LjQ4M3Y3MC45NjYmIzEwOyYjOTtDMTg2LjYyMSwzNzguMDExLDIwMi41MTYsMzYyLjEwMywyMDIuNTE2LDM0Mi41NTJ6IiBzdHlsZT0iZmlsbDojODREQkZGOyIvPiYjeGE7PC9zdmc+;" vertex="1" parent="4XwBpmDzUFXZfetM7Drz-16">
          <mxGeometry width="100" height="100" as="geometry" />
        </mxCell>
        <mxCell id="4XwBpmDzUFXZfetM7Drz-11" value="" style="shape=image;verticalLabelPosition=bottom;labelBackgroundColor=default;verticalAlign=top;aspect=fixed;imageAspect=0;image=data:image/svg+xml,PHN2ZyB4bWxuczp4bGluaz0iaHR0cDovL3d3dy53My5vcmcvMTk5OS94bGluayIgeG1sbnM9Imh0dHA6Ly93d3cudzMub3JnLzIwMDAvc3ZnIiB4bWw6c3BhY2U9InByZXNlcnZlIiB2aWV3Qm94PSIwIDAgNTEyIDUxMiIgaWQ9Il94MzRfIiB2ZXJzaW9uPSIxLjEiIHdpZHRoPSI4MDBweCIgaGVpZ2h0PSI4MDBweCI+JiN4YTs8Zz4mI3hhOwk8cGF0aCBkPSJNNTEyLDE0OC4yNjN2OS45NTJjLTAuNjE3LDAuMzg2LTEuNDY2LDAuODUtMi4xNjEsMS4zMTJsLTE5LjEzNCwxMS4zNDImIzEwOyYjOTsmIzk7Yy0xLjM4OSwwLjc3LTIuNzAxLDEuNjk3LTQuMzIxLDIuNTQ1YzAsMC4wNzctMC4wNzcsMC4wNzctMC4wNzcsMC4wNzdoLTAuMDc3Yy00LjkzOCwyLjg1Ni0xMC44MDIsNi4yNS0xNi4wNDgsOS4zMzYmIzEwOyYjOTsmIzk7Yy0zLjMxOCwyLjAwNi02LjQ4MSwzLjc4LTkuMDI3LDUuMzI0bC0yNC4xNDksMTQuMTk1bC05LjMzNiw1LjQ3OWwtMTI2LjE0OCw3NC4xNDVsLTIuMTYsMS4zMTJsLTEuNDY2LDAuODQ5bC00LjQ3NSwyLjYyMyYjMTA7JiM5OyYjOTtsLTMuMzE4LDIuMDA2bC0xMS42NSw2Ljg2N2wtNS45NDEsMy40NzJjLTIuMDgzLDEuMTU4LTQuMzk4LDIuMDA2LTYuODY3LDIuNjI0Yy0wLjIzMSwwLjA3Ny0wLjQ2MywwLjA3Ny0wLjY5NCwwLjE1NSYjMTA7JiM5OyYjOTtjLTIuODU1LDAuNjE3LTUuOTQxLDAuODQ4LTguOTUsMC42OTRjLTMuMDA5LDAuMTU0LTYuMDk1LTAuMDc3LTguOTUtMC42OTRjLTAuMjMyLTAuMDc3LTAuNDYzLTAuMDc3LTAuNjk1LTAuMTU1JiMxMDsmIzk7JiM5O2MtMi40NjktMC42MTgtNC43ODQtMS40NjYtNi44NjYtMi42MjRsLTUuOTQxLTMuNTQ5bC01Ljk0MS0zLjQ3MmwtNS43MDktMy4zMThsLTIuNTQ2LTEuNTQ0bC0wLjc3MS0wLjQ2MmwtNC40NzUtMi42MjMmIzEwOyYjOTsmIzk7bC02MS4xODQtMzUuOTU0bC02NS4zNS0zOC40MjNsLTEyLjU3Ni03LjQwOGwtMjQuMTQ5LTE0LjE5NWMtMS43NzQtMS4wMDQtMy43OC0yLjIzOC01Ljk0MS0zLjQ3MyYjMTA7JiM5OyYjOTtjLTYuMDE4LTMuNTUtMTMuMTkzLTcuNzkzLTE5LjEzNC0xMS4xODhoLTAuMDc3YzAsMC0wLjA3NywwLTAuMDc3LTAuMDc3Yy0xLjYyLTAuODQ4LTIuOTMyLTEuNzc0LTQuMzIxLTIuNTQ1TDIuMTYyLDE1OS41MjgmIzEwOyYjOTsmIzk7Yy0wLjY5NS0wLjQ2Mi0xLjU0My0wLjkyNi0yLjE2MS0xLjMxMnYtOS45NTJjMC0xLjY5OCwwLjIzMi0zLjA4NiwwLjY5NS00LjMyMWMwLTAuMDc2LDAuMDc3LTAuMDc2LDAuMDc3LTAuMDc2JiMxMDsmIzk7JiM5O2MwLjQ2My0wLjMwOSwwLjkyNi0wLjU0MSwxLjM4OS0wLjg1bDYuMjUtMy43MDNsMTIuODg1LTcuNjM4YzguMTc4LTQuNzA2LDIxLjQ0OS0xMi41NzYsMjkuNTUtMTcuMjgzbDAuOTI2LTAuNTQxbDIzLjIyNC0xMy42NTcmIzEwOyYjOTsmIzk7bDM2LjMzOS0yMS4zNzFsMTAuNDkzLTYuMTczTDIzOS40OSwzLjQ0NGM0LjU1Mi0yLjU0NiwxMC42NDctMy43MDMsMTYuNTExLTMuMzk1YzUuODY0LTAuMzA4LDEyLjAzNiwwLjg1LDE2LjUxMSwzLjM5NSYjMTA7JiM5OyYjOTtsNzguNzc1LDQ2LjI5M2wzOC44ODYsMjIuOTE1bDEwLjEwNyw1Ljk0MWwzNi43MjYsMjEuNjAzbDI0LjE0OSwxNC4xOTdjMC42OTUsMC4zODYsMS4zODksMC43NzEsMi4xNjEsMS4yMzQmIzEwOyYjOTsmIzk7YzQuOTM4LDIuOTMzLDExLjI2NCw2LjcxMywxNy4yMDUsMTAuMTA4YzMuNzAzLDIuMjM4LDcuMjUzLDQuMjQ0LDEwLjE4NSw1Ljk0MWw3Ljk0Nyw0LjcwNmw0LjkzOCwyLjkzMmw2LjI0OSwzLjcwMyYjMTA7JiM5OyYjOTtjMC40NjMsMC4zMDksMC45MjYsMC41NDEsMS4zODksMC44NUM1MTEuNzY4LDE0NS4xLDUxMiwxNDYuNTY1LDUxMiwxNDguMjYzeiIgc3R5bGU9ImZpbGw6I0VDQjE2ODsiLz4mI3hhOwk8bGluZWFyR3JhZGllbnQgeTI9IjQ0LjI4NjciIHgyPSIyNTYuMDAwNyIgeTE9IjM0Ni45MDQxIiB4MT0iMjU2LjAwMDciIGdyYWRpZW50VW5pdHM9InVzZXJTcGFjZU9uVXNlIiBpZD0iU1ZHSURfMV8iPiYjeGE7CQk8c3RvcCBzdHlsZT0ic3RvcC1jb2xvcjojQ0Y5OTNGIiBvZmZzZXQ9IjAiLz4mI3hhOwkJPHN0b3Agc3R5bGU9InN0b3AtY29sb3I6I0RGQTM0RiIgb2Zmc2V0PSIwLjc2ODUiLz4mI3hhOwk8L2xpbmVhckdyYWRpZW50PiYjeGE7CTxwYXRoIGQ9Ik01MTIsMTkyLjU1djkuOTUyYy0wLjYxNywwLjM4Ni0xLjM4OSwwLjg1LTIuMTYxLDEuMzEybC0xOS4xMzQsMTEuMzQyJiMxMDsmIzk7JiM5O2MtNC40NzUsMi41NDYtMTAuNDkzLDYuMDk0LTE2LjM1Nyw5LjQ5Yy00Ljc4MywyLjg1NC05LjU2OCw1LjYzMi0xMy4xOTQsNy43OTNsLTM4LjAzNywyMi4zNzRsLTc4LjU0Myw0Ni4yMTZsLTAuOTI2LDAuNTQxJiMxMDsmIzk7JiM5O2wtNy4xNzUsNC4xNjdsLTE3LjU5MiwxMC4zMzlsLTAuODQ5LDAuNTRsLTQ1LjUyMSwyNi43NzJjLTIuMDgzLDEuMTU4LTQuMzk4LDIuMDA2LTYuODY3LDIuNjI0JiMxMDsmIzk7JiM5O2MtMy4wMDksMC43NzEtNi40MDQsMS4wMDItOS42NDQsMC44NDljLTMuMjQsMC4xNTMtNi42MzUtMC4wNzctOS42NDQtMC44NDljLTIuNDY5LTAuNjE4LTQuNzg0LTEuNDY2LTYuODY2LTIuNjI0bC00NS40NDQtMjYuNjk1JiMxMDsmIzk7JiM5O2wtMC4wNzctMC4wNzdsLTkuOTUzLTUuODY0bC04LjQ4Ny01LjAxNGwtNy4yNTMtNC4yNDRsLTc1LjkyLTQ0LjY3M2wtNDEuNTA5LTI0LjM4Yy0yLjg1NS0xLjY5OC02LjMyNy0zLjcwMy0xMC4wMy01Ljk0MSYjMTA7JiM5OyYjOTtjLTYuNzktMy45MzUtMTQuMTk3LTguMzMzLTE5LjUyLTExLjM0MkwyLjE2MiwyMDMuODE0Yy0wLjY5NS0wLjQ2Mi0xLjU0My0wLjkyNi0yLjE2MS0xLjMxMnYtOS45NTImIzEwOyYjOTsmIzk7YzAtMS42OTgsMC4yMzItMy4wODYsMC42OTUtNC4zMmMwLTAuMDc3LDAuMDc3LTAuMDc3LDAuMDc3LTAuMDc3YzAuNDYzLTAuMzA5LDAuOTI2LTAuNTQxLDEuMzg5LTAuODVsNi4yNS0zLjcwM2wxMi44ODUtNy42MzgmIzEwOyYjOTsmIzk7YzEuMzEyLTAuNzcxLDIuNzc4LTEuNjIsNC4zMjEtMi41NDdjNi40ODEtMy43ODEsMTQuNTgyLTguNTYzLDIxLjA2NC0xMi4yNjZjMC4xNTQtMC4xNTQsMC4zODYtMC4yMzIsMC41NC0wLjMwOSYjMTA7JiM5OyYjOTtjMS4zMTItMC43NzIsMi40NjktMS41NDMsMy42MjctMi4xNjFsMjkuNzgxLTE3LjUxNGw2MS45NTUtMzYuNDE3bDMzLjQwOC0xOS42NzVsNjMuNDk5LTM3LjM0MyYjMTA7JiM5OyYjOTtjNC41NTItMi41NDYsMTAuNjQ3LTMuNzAzLDE2LjUxMS0zLjM5NWM1Ljg2NC0wLjMwOCwxMi4wMzYsMC44NSwxNi41MTEsMy4zOTVsNjMuNTc1LDM3LjM0M2wzMS42MzQsMTguNjcybDY2LjI3NiwzOC45NjMmIzEwOyYjOTsmIzk7bDI3LjE1OSwxNS45NzFjMS4yMzQsMC43NzEsMi43LDEuNTQzLDQuMTY2LDIuNDY5YzAuOTI2LDAuNDYyLDEuODUyLDEuMDAyLDIuNzc4LDEuNjJjNS45NDEsMy40NzIsMTIuNjUzLDcuNDA3LDE4LjI4NiwxMC42NDYmIzEwOyYjOTsmIzk7YzEuNTQzLDAuOTI3LDMuMDA5LDEuNzc1LDQuMzIxLDIuNTQ3bDEyLjg4NSw3LjYzOGw2LjI0OSwzLjcwM2MwLjQ2MywwLjMwOSwwLjkyNiwwLjU0MSwxLjM4OSwwLjg1JiMxMDsmIzk7JiM5O0M1MTEuNzY4LDE4OS4zODYsNTEyLDE5MC44NTIsNTEyLDE5Mi41NXoiIHN0eWxlPSJmaWxsOnVybCgjU1ZHSURfMV8pOyIvPiYjeGE7CTxwb2x5Z29uIHBvaW50cz0iNDM3LjE2LDExMC40NTcgNDMzLjk5NiwxNDIuNzA4IDQzMC40NDcsMTc5LjU4OCA0MjcuNjcsMjA3LjgyNyA0MjMuMTE4LDI1NC44MTMgJiMxMDsmIzk7JiM5OzQxOS4zMzcsMjkzLjkzMSA0MTYuMjUxLDMyNS41NjUgMzk1Ljg4MiwzMjMuNTU5IDM2Mi41NTEsMzIwLjMxOCAzMTguODgyLDMxNi4wNzUgMzE2LjY0NCwzMTUuOTIgMjU4LjA4NCwzMTAuMjExICYjMTA7JiM5OyYjOTsyMTQuMDI4LDMwNS45NjcgMTk0LjIsMzA0LjAzOCAxODAuOTI5LDMwMi43MjYgMTY4LjI3NiwzMDEuNDkyIDk2LjEzNiwyOTQuNDcxIDM0Ljc5OCwyODguNTMxIDQwLjgxNywyMjYuNDk4IDQ0LjkwNSwxODQuNjggJiMxMDsmIzk7JiM5OzQ3LjE0MywxNjEuMzc5IDQ3LjIyLDE2MC44NCA1MS43NzIsMTEzLjg1MiA1NS43MDcsNzMuNDIzIDExMS4zMzUsNzguODI0IDE3NS45OTEsODUuMDczIDI1Ny43NzUsOTMuMDIgMzY3LjcyMSwxMDMuNzQ1IiBzdHlsZT0iZmlsbDojRTc0NjY5OyIvPiYjeGE7CTxsaW5lYXJHcmFkaWVudCB5Mj0iMzI2LjI1ODciIHgyPSIyNzkuMTg1NSIgeTE9IjcyLjY1MTQiIHgxPSIyNzkuMTg1NSIgZ3JhZGllbnRVbml0cz0idXNlclNwYWNlT25Vc2UiIGlkPSJTVkdJRF8yXyI+JiN4YTsJCTxzdG9wIHN0eWxlPSJzdG9wLWNvbG9yOiNGRkZGRkYiIG9mZnNldD0iMCIvPiYjeGE7CQk8c3RvcCBzdHlsZT0ic3RvcC1jb2xvcjojREVERURFIiBvZmZzZXQ9IjAuOTcwNCIvPiYjeGE7CTwvbGluZWFyR3JhZGllbnQ+JiN4YTsJPHBvbHlnb24gcG9pbnRzPSI0ODAuNzUyLDI4Ny42ODEgNDE5LjMzNywyOTMuOTMxIDM0NS40MjMsMzAxLjMzOCAzNDMuNjQ4LDMwMS41NyAzMzEuMjI2LDMwMi44MDMgJiMxMDsmIzk7JiM5OzI5OC4yODIsMzA2LjEyMSAyNTguMDg0LDMxMC4yMTEgMTk0LjA0NiwzMTYuNjkyIDE5My44OTEsMzE2LjY5MiAxNzEuNzQ4LDMxOC45MjkgMTQ3LjY3NSwzMjEuMzk4IDk5LjM3NywzMjYuMjU5IDk2LjEzNiwyOTQuNDcxICYjMTA7JiM5OyYjOTs5Mi4zNTYsMjU2LjgxOSA4Ny41NzIsMjA5Ljc1NSA4NC43MTgsMTgxLjI4NSA4MC42MjgsMTQxLjE2NSA3Ny42MTksMTExLjMwNiAxNDIuNTgzLDEwNC43NDggMjU3Ljc3NSw5My4wMiAzMzYuMDg3LDg1LjA3MyAmIzEwOyYjOTsmIzk7NDAwLjI4LDc4LjU5MiA0MzcuMTYsNzQuODg5IDQ1OC45OTQsNzIuNjUxIDQ2MS42OTUsOTkuNDI1IDQ2My4zMTUsMTE1LjYyNiA0NjcuNzksMTU5Ljc1OSA0NjguMDk5LDE2Mi43NjggNDcwLjE4MiwxODIuODI5ICYjMTA7JiM5OyYjOTs0NzQuMzQ4LDIyNC42NDciIHN0eWxlPSJmaWxsOnVybCgjU1ZHSURfMl8pOyIvPiYjeGE7CTxnPiYjeGE7CQk8cGF0aCBkPSJNMjY2LjcyNSwyNzcuODgzYzAsMC0xLjY5NywxLjAwNC00LjQ3NSwyLjQ2OWMtMS42OTcsMC45MjYtMy44NTgsMi4wMDYtNi4yNSwzLjM5NCYjMTA7JiM5OyYjOTsmIzk7Yy0xLjE1NywwLjYxOC0yLjQ2OCwxLjMxMi0zLjg1OCwyLjAwNmwtNS4wOTIsMi43MDFsLTAuNjk1LDAuMzA4bC0xLjYyLDAuOTI2bC0xMS4xODgsNS44NjRsLTE1LjQzMSw4LjE3OSYjMTA7JiM5OyYjOTsmIzk7Yy0xLjM4OSwwLjY5NC0yLjc3NywxLjQ2NS00LjA5LDIuMjM3Yy0yLjM5MiwxLjIzNS00LjcwNiwyLjU0Ni02Ljc4OSwzLjU1Yy0zLjcwNCwyLjAwNi02LjU1OSwzLjU0OS03LjYzOSw0LjA5JiMxMDsmIzk7JiM5OyYjOTtjLTAuODQ5LDAuNDYyLTIuOTMyLDEuNTQzLTUuNjMyLDMuMDA4bC0wLjA3NywwLjA3N2MtMy41NDksMS44NTItOC4xMDEsNC4zMjEtMTIuNjU0LDYuNzEybC01NS41NTEsMjkuNDczbC0yNC4wNzIsMTIuODA5JiMxMDsmIzk7JiM5OyYjOTtsLTc0LjYwOSwzOS41OGMtMy4wMDksMS41NDMtNi4yNSwzLjMxOC05LjI1OCw0Ljg2MUg4LjQ4OWMtMC44NDksMC0xLjY5OCwwLTIuMzkyLTAuMDc2Yy0xLjkyOS0wLjE1NS0zLjMxOC0wLjQ2My00LjM5OC0wLjkyNyYjMTA7JiM5OyYjOTsmIzk7Yy0wLjU0LTAuMzA5LTEuMDAzLTAuNTQtMS4zMTItMC44NDljLTAuMTU0LTAuMjMxLTAuMjMyLTAuMzA4LTAuMzA5LTAuNTRjMC0wLjIzMi0wLjA3Ny0wLjQ2MywwLTAuNzcyJiMxMDsmIzk7JiM5OyYjOTtjLTAuMDc3LTAuMzg1LTAuMDc3LTAuNzctMC4wNzctMS4yMzRWMTUwLjM0NmMwLTEuNTQzLDAuMjMyLTIuODU0LDAuNjk1LTMuOTM1YzAtMC4wNzYsMC4wNzctMC4wNzYsMC4wNzctMC4wNzYmIzEwOyYjOTsmIzk7JiM5O2MxLjAwMy0yLjMxNSwyLjg1NS0zLjcwNCw1LjQwMS0zLjkzNWMwLjY5NC0wLjIzMiwxLjM4OS0wLjIzMiwyLjIzNy0wLjE1NGMxLjg1MiwwLjA3Nyw0LjAxMiwwLjYxNyw2LjMyNywxLjkyOWwyOC4zMTYsMTQuOTY4JiMxMDsmIzk7JiM5OyYjOTtsMy4wODYsMS42OTdsMC41NCwwLjMwOWwwLjQ2MywwLjIzMWwxMi4xMTMsNi40MDNjMS41NDMsMC43NzIsMy4yNDEsMS43NzUsNS4wOTIsMi43MDFjNi4zMjcsMy4zMTcsMTQuMTE5LDcuNDA3LDIwLjM2OSwxMC44MDEmIzEwOyYjOTsmIzk7JiM5O2MxLjM4OSwwLjY5NSwyLjcsMS40NjYsMy45MzUsMi4wODNsNzguNDY3LDQxLjY2NGw3MS4wNTksMzcuNzI5bDMuOTM1LDIuMDgzYzAuMTU0LDAuMDc3LDAuMzA5LDAuMDc3LDAuMzg2LDAuMTU1JiMxMDsmIzk7JiM5OyYjOTtjMC4zMDksMC4wNzcsMC41NCwwLjIzMiwwLjg0OSwwLjM4NmMwLjY5NCwwLjM4NSwxLjM4OSwwLjY5MywyLjAwNiwxLjA3OWMwLjA3NywwLjA3NywwLjIzMSwwLjA3NywwLjMwOCwwLjE1NCYjMTA7JiM5OyYjOTsmIzk7YzAuOTI2LDAuNDYzLDEuNzc0LDAuOTI2LDIuNjIzLDEuMzg4YzMuMzk1LDEuNzc1LDYuMTczLDMuMjQxLDcuNzE1LDQuMTY3YzAuOTI2LDAuMzg2LDEuMzg5LDAuNjk1LDEuNTQzLDAuNzcyJiMxMDsmIzk7JiM5OyYjOTtjMC4zMDksMC4yMzEsMi40NjksMS4zMTEsNC43MDYsMi42MjNjMC4wNzcsMCwwLjA3NywwLjA3NiwwLjE1NCwwLjA3NmMwLjM4NiwwLjE1NCwwLjc3MiwwLjMwOSwxLjA4LDAuNTQxJiMxMDsmIzk7JiM5OyYjOTtDMjY1LjMzNiwyNzcuMTExLDI2Ni43MjUsMjc3LjgwNSwyNjYuNzI1LDI3Ny44ODN6IiBzdHlsZT0iZmlsbDojRjBCQTdEOyIvPiYjeGE7CQk8Zz4mI3hhOwkJCTxwYXRoIGQ9Ik01MTEuODY2LDE0OC44NzRjMC4wNzQsMC43ODUsMC4xMzQsMi4zNDcsMC4xMzQsMy40NzF2MjUxLjIxMmMwLDEuMTI0LDAsMi4yNDcsMCwyLjQ5NiYjMTA7JiM5OyYjOTsmIzk7JiM5O2MwLDAuMjQ5LTAuMDg5LDAuOTgtMC4wODksMS4xMTRjMCwwLjEzNCwwLDAuMjQ0LDAsMC41MjNjMCwwLDAsMC4wMTYsMCwwLjAzNWMwLDAuMDE5LTAuNzYsMC41NTItMS42ODksMS4xODRsLTQuNjY3LDAuOTgxJiMxMDsmIzk7JiM5OyYjOTsmIzk7Yy0xLjExNiwwLjEzLTIuOTQ5LDAuMjM3LTQuMDcyLDAuMjM3aC01LjE5Yy0xLjEyNCwwLTIuODU3LTAuNDI3LTMuODUyLTAuOTQ4bC01LjY1OC0yLjk3NyYjMTA7JiM5OyYjOTsmIzk7JiM5O2MtMC45OTUtMC41MjItMi42MjItMS4zNzktMy42MTQtMS45MDZsLTE1MC42MTUtNzkuOTExYy0wLjk5My0wLjUyNy0yLjYxNy0xLjM4OC0zLjYxLTEuOTE1bC0xNC43Ny03Ljg5NiYjMTA7JiM5OyYjOTsmIzk7JiM5O2MtMC45OS0wLjUzMS0yLjYxMi0xLjM5Ny0zLjYwNC0xLjkyNWwtMTQuODU4LTcuODk3Yy0wLjk5MS0wLjUzLTIuNjE0LTEuMzkzLTMuNjA3LTEuOTE5bC0yNC42NjUtMTMuMDYxJiMxMDsmIzk7JiM5OyYjOTsmIzk7Yy0wLjk5My0wLjUyNi0yLjYxOC0xLjM4Ni0zLjYxMi0xLjkxMWwtMi4xODUtMS4xNTRjLTAuOTkzLTAuNTI1LTIuNjIyLTEuMzc5LTMuNjE4LTEuODk4YzAsMC0wLjg2NC0wLjQ1LTIuMDI0LTEuMDc2JiMxMDsmIzk7JiM5OyYjOTsmIzk7Yy02LjE1NS0zLjM0My0xMC43MDQtNS43ODEtMTAuNzA0LTUuODVzMS45NjMtMS4wNDQsNC4yODItMi4yOThjMi4zMTgtMS4yNTQsMy4xMDYtMS42NzgsMy4xMDYtMS42NzgmIzEwOyYjOTsmIzk7JiM5OyYjOTtjMC45ODktMC41MzMsMS45NC0xLjA0NywyLjExMS0xLjE0M2MwLjE3Mi0wLjA5NiwyLjAxMS0xLjAzMywyLjk5Ny0xLjU3MWMwLDAsNS4zNDItMi45MiwxMC44NzQtNS43NzUmIzEwOyYjOTsmIzk7JiM5OyYjOTtjMC4yNjgtMC4xMzksMC4yNjgtMC4xMzksMC4yNjgtMC4xMzljMC4yOTQtMC4xNTMsMC41OTUtMC4zMDksMC42NjgtMC4zNDhjMC4wNzMtMC4wMzgsMC45NTQtMC40ODQsMS43MzktMC45MDUmIzEwOyYjOTsmIzk7JiM5OyYjOTtzMi4yNC0xLjE5NywzLjIzMi0xLjcyM2wxNDYuOTU3LTc3Ljk2MmMwLjk5My0wLjUyNywyLjYxNi0xLjM4OSwzLjYwOC0xLjkxOGwyNS44MjYtMTMuNjgzYzAuOTkzLTAuNTI2LDIuNjE4LTEuMzg2LDMuNjExLTEuOTEzJiMxMDsmIzk7JiM5OyYjOTsmIzk7bDQwLjktMjEuNjkzYzAuOTkzLTAuNTI3LDIuNjUyLTEuMzE0LDMuNjg3LTEuNzUxYzAsMCwxLjM0LTAuNjE2LDIuNDQ0LTAuODA4YzEuMTA0LTAuMTkyLDIuOTExLTAuMTgsNC4wMTYsMC4wMjdsNC4yMTEsMi4yMTEmIzEwOyYjOTsmIzk7JiM5OyYjOTtDNTEwLjU4MywxNDUuNjQ4LDUxMS43OTIsMTQ4LjA4OSw1MTEuODY2LDE0OC44NzR6IiBzdHlsZT0iZmlsbDojRTVBODY0OyIvPiYjeGE7CQk8L2c+JiN4YTsJPC9nPiYjeGE7CTxwYXRoIGQ9Ik01MTIsMzc0LjgyMXYzMC44ODNjMCwwLjQ3NiwwLDAuODg0LTAuMDkxLDEuMjkyYzAuMDkxLDAuMjcyLDAsMC40NzcsMCwwLjc0OWMwLDAsMCwwLDAsMC4wNjgmIzEwOyYjOTsmIzk7Yy0wLjY0MSwxLjQyOC0zLjU2NiwyLjMxMi04LjU5NCwyLjMxMkgzNC44MWw5Mi4yMzgtNjEuNDI0bDAuMDkxLTAuMDY4bDExNS40NTgtNzYuODY1bDExLjI0NS03LjQxNWwzLjAxNS0yLjA0MWw5Ljk2NSw0LjM1NCYjMTA7JiM5OyYjOTtMNTEyLDM3NC44MjF6IiBzdHlsZT0iZmlsbDojQzA4NzRBOyIvPiYjeGE7CTxwYXRoIGQ9Ik01MTIsNDA0LjU0M3YxLjE1OGMwLDAuNDc2LDAsMC44ODUtMC4wODksMS4yOTNjMC4wODksMC4yNzMsMCwwLjQ3NywwLDAuNzVjMCwwLDAsMCwwLDAuMDY4JiMxMDsmIzk7JiM5O2MtMC42MjUsMS40MjktMy40OCwyLjMxMy04LjM4NSwyLjMxM0g4LjQ3NGMtNC45MDUsMC03Ljc2LTAuODg0LTguMzg1LTIuMzEzYzAtMC4wNjgsMC0wLjA2OCwwLTAuMDY4YzAtMC4yNzItMC4wODktMC40NzcsMC0wLjc1JiMxMDsmIzk7JiM5O0MwLDQwNi41ODYsMCw0MDYuMTc3LDAsNDA1LjcwMXYtMS4xNThjMC44MDMtMC44MTcsMS45NjMtMS42MzQsMy40NzktMi40NTFsMjM4LjA3LTEzMy4yOTZjMC4wODksMCwwLjA4OS0wLjA2NywwLjE3OS0wLjEzNSYjMTA7JiM5OyYjOTtjMC4yNjgtMC4xMzYsMC41MzYtMC4yNzMsMC44MDItMC40MDhjNC45MDUtMi42NTYsOS45MDEtNC40OTQsMTMuNDY5LTUuMTc0YzEuMjQ5LDAuMjcyLDIuNTg2LDAuNjEyLDQuMTA0LDEuMTU3JiMxMDsmIzk7JiM5O2MyLjg1NCwwLjg4NSw2LjE1NCwyLjMxNSw5LjM2NSw0LjAxN2MwLjM1NiwwLjIwNCwwLjYyNCwwLjM0LDAuOTgxLDAuNTQzbDIzOC4wNywxMzMuMjk2JiMxMDsmIzk7JiM5O0M1MTAuMDM2LDQwMi45NzcsNTExLjE5Niw0MDMuNzk0LDUxMiw0MDQuNTQzeiIgc3R5bGU9ImZpbGw6I0VDQjE2ODsiLz4mI3hhOzwvZz4mI3hhOzwvc3ZnPg==;" vertex="1" parent="4XwBpmDzUFXZfetM7Drz-16">
          <mxGeometry x="70" y="80" width="50" height="50" as="geometry" />
        </mxCell>
        <mxCell id="4XwBpmDzUFXZfetM7Drz-14" value="Notifications&lt;div&gt;Worker&lt;/div&gt;" style="text;html=1;align=center;verticalAlign=middle;resizable=0;points=[];autosize=1;strokeColor=none;fillColor=none;" vertex="1" parent="4XwBpmDzUFXZfetM7Drz-16">
          <mxGeometry x="10" y="120" width="90" height="40" as="geometry" />
        </mxCell>
        <mxCell id="4XwBpmDzUFXZfetM7Drz-21" value="" style="group" vertex="1" connectable="0" parent="1">
          <mxGeometry x="190" y="643" width="120" height="165" as="geometry" />
        </mxCell>
        <mxCell id="4XwBpmDzUFXZfetM7Drz-17" value="" style="shape=image;verticalLabelPosition=bottom;labelBackgroundColor=default;verticalAlign=top;aspect=fixed;imageAspect=0;image=data:image/svg+xml,PHN2ZyB4bWxucz0iaHR0cDovL3d3dy53My5vcmcvMjAwMC9zdmciIGZpbGw9Im5vbmUiIHZpZXdCb3g9IjAgMCAyNCAyNCIgaGVpZ2h0PSI4MDBweCIgd2lkdGg9IjgwMHB4Ij4mI3hhOzxwYXRoIGZpbGw9IiMxQzI3NEMiIGQ9Ik01LjY4NDM2IDExLjk5OTdDNS42ODQzNiAxMi41ODQ0IDUuMjEzMDkgMTMuMDU4NSA0LjYzMTczIDEzLjA1ODVDNC4wNTAzOCAxMy4wNTg1IDMuNTc5MSAxMi41ODQ0IDMuNTc5MSAxMS45OTk3QzMuNTc5MSAxMS40MTQ5IDQuMDUwMzggMTAuOTQwOCA0LjYzMTczIDEwLjk0MDhDNS4yMTMwOSAxMC45NDA4IDUuNjg0MzYgMTEuNDE0OSA1LjY4NDM2IDExLjk5OTdaIi8+JiN4YTs8cGF0aCBmaWxsPSIjMUMyNzRDIiBkPSJNNS42ODQzNiAxOC4zNTI2QzUuNjg0MzYgMTguOTM3NCA1LjIxMzA5IDE5LjQxMTQgNC42MzE3MyAxOS40MTE0QzQuMDUwMzggMTkuNDExNCAzLjU3OTEgMTguOTM3NCAzLjU3OTEgMTguMzUyNkMzLjU3OTEgMTcuNzY3OCA0LjA1MDM4IDE3LjI5MzggNC42MzE3MyAxNy4yOTM4QzUuMjEzMDkgMTcuMjkzOCA1LjY4NDM2IDE3Ljc2NzggNS42ODQzNiAxOC4zNTI2WiIvPiYjeGE7PHBhdGggZmlsbD0iIzFDMjc0QyIgZD0iTTUuNjg0MzYgNS42NDY3MUM1LjY4NDM2IDYuMjMxNDkgNS4yMTMwOSA2LjcwNTU0IDQuNjMxNzMgNi43MDU1NEM0LjA1MDM4IDYuNzA1NTQgMy41NzkxIDYuMjMxNDkgMy41NzkxIDUuNjQ2NzFDMy41NzkxIDUuMDYxOTQgNC4wNTAzOCA0LjU4Nzg5IDQuNjMxNzMgNC41ODc4OUM1LjIxMzA5IDQuNTg3ODkgNS42ODQzNiA1LjA2MTk0IDUuNjg0MzYgNS42NDY3MVoiLz4mI3hhOzxnIG9wYWNpdHk9IjAuNSI+JiN4YTs8cGF0aCBmaWxsPSIjMUMyNzRDIiBkPSJNMy41MTU1IDE1LjcyNDhDMy43ODcwMiAxNS43MDYyIDQuMTMzOTEgMTUuNzA1OSA0LjYzMTU4IDE1LjcwNTlIMTkuMzY4NEMxOS44NjYxIDE1LjcwNTkgMjAuMjEzIDE1LjcwNjIgMjAuNDg0NSAxNS43MjQ4QzIwLjc1MTMgMTUuNzQzMSAyMC45MDY3IDE1Ljc3NzQgMjEuMDI1MyAxNS44MjY4QzIxLjQxMjIgMTUuOTg4IDIxLjcxOTYgMTYuMjk3MiAyMS44Nzk4IDE2LjY4NjNDMjEuOTI4OSAxNi44MDU2IDIxLjk2MyAxNi45NjE5IDIxLjk4MTIgMTcuMjMwM0MyMS45OTk3IDE3LjUwMzQgMjIgMTcuODUyMyAyMiAxOC4zNTI5QzIyIDE4Ljg1MzUgMjEuOTk5NyAxOS4yMDI1IDIxLjk4MTIgMTkuNDc1NkMyMS45NjMgMTkuNzQ0IDIxLjkyODkgMTkuOTAwMiAyMS44Nzk4IDIwLjAxOTZDMjEuNzE5NiAyMC40MDg3IDIxLjQxMjIgMjAuNzE3OSAyMS4wMjUzIDIwLjg3OTFDMjAuOTA2NyAyMC45Mjg1IDIwLjc1MTMgMjAuOTYyOCAyMC40ODQ1IDIwLjk4MTFDMjAuMjEzIDIwLjk5OTcgMTkuODY2MSAyMSAxOS4zNjg0IDIxSDQuNjMxNThDNC4xMzM5MSAyMSAzLjc4NzAyIDIwLjk5OTcgMy41MTU1IDIwLjk4MTFDMy4yNDg3IDIwLjk2MjggMy4wOTMzMyAyMC45Mjg1IDIuOTc0NzEgMjAuODc5MUMyLjU4NzgyIDIwLjcxNzkgMi4yODA0NCAyMC40MDg3IDIuMTIwMTkgMjAuMDE5NkMyLjA3MTA1IDE5LjkwMDIgMi4wMzcwMSAxOS43NDQgMi4wMTg4MSAxOS40NzU2QzIuMDAwMjggMTkuMjAyNSAyIDE4Ljg1MzUgMiAxOC4zNTI5QzIgMTcuODUyMyAyLjAwMDI4IDE3LjUwMzQgMi4wMTg4MSAxNy4yMzAzQzIuMDM3MDEgMTYuOTYxOSAyLjA3MTA1IDE2LjgwNTYgMi4xMjAxOSAxNi42ODYzQzIuMjgwNDQgMTYuMjk3MiAyLjU4NzgyIDE1Ljk4OCAyLjk3NDcxIDE1LjgyNjhDMy4wOTMzMyAxNS43Nzc0IDMuMjQ4NyAxNS43NDMxIDMuNTE1NSAxNS43MjQ4Wk00LjYzMTU4IDE5LjQxMThDNS4yMTI5MyAxOS40MTE4IDUuNjg0MjEgMTguOTM3NyA1LjY4NDIxIDE4LjM1MjlDNS42ODQyMSAxNy43NjgyIDUuMjEyOTMgMTcuMjk0MSA0LjYzMTU4IDE3LjI5NDFDNC4wNTAyMyAxNy4yOTQxIDMuNTc4OTUgMTcuNzY4MiAzLjU3ODk1IDE4LjM1MjlDMy41Nzg5NSAxOC45Mzc3IDQuMDUwMjMgMTkuNDExOCA0LjYzMTU4IDE5LjQxMThaIiBjbGlwLXJ1bGU9ImV2ZW5vZGQiIGZpbGwtcnVsZT0iZXZlbm9kZCIvPiYjeGE7PHBhdGggZmlsbD0iIzFDMjc0QyIgZD0iTTQuNjMxNTggOC4yOTQxMkM0LjEzMzkxIDguMjk0MTIgMy43ODcwMiA4LjI5MzgzIDMuNTE1NSA4LjI3NTJDMy4yNDg3IDguMjU2ODkgMy4wOTMzMyA4LjIyMjY0IDIuOTc0NzEgOC4xNzMyMkMyLjU4NzgyIDguMDEyMDIgMi4yODA0NCA3LjcwMjg0IDIuMTIwMTkgNy4zMTM2N0MyLjA3MTA1IDcuMTk0MzUgMi4wMzcwMSA3LjAzODA3IDIuMDE4ODEgNi43Njk3QzIuMDAwMjggNi40OTY1OCAyIDYuMTQ3NjUgMiA1LjY0NzA2QzIgNS4xNDY0NyAyLjAwMDI4IDQuNzk3NTMgMi4wMTg4MSA0LjUyNDQxQzIuMDM3MDEgNC4yNTYwNSAyLjA3MTA1IDQuMDk5NzcgMi4xMjAxOSAzLjk4MDQ0QzIuMjgwNDQgMy41OTEyOCAyLjU4NzgyIDMuMjgyMDkgMi45NzQ3MSAzLjEyMDlDMy4wOTMzMyAzLjA3MTQ3IDMuMjQ4NyAzLjAzNzIzIDMuNTE1NSAzLjAxODkyQzMuNzg3MDIgMy4wMDAyOSA0LjEzMzkxIDMgNC42MzE1OCAzSDE5LjM2ODRDMTkuODY2MSAzIDIwLjIxMyAzLjAwMDI5IDIwLjQ4NDUgMy4wMTg5MkMyMC43NTEzIDMuMDM3MjMgMjAuOTA2NyAzLjA3MTQ3IDIxLjAyNTMgMy4xMjA5QzIxLjQxMjIgMy4yODIwOSAyMS43MTk2IDMuNTkxMjggMjEuODc5OCAzLjk4MDQ0QzIxLjkyODkgNC4wOTk3NyAyMS45NjMgNC4yNTYwNSAyMS45ODEyIDQuNTI0NDFDMjEuOTk5NyA0Ljc5NzUzIDIyIDUuMTQ2NDcgMjIgNS42NDcwNkMyMiA2LjE0NzY1IDIxLjk5OTcgNi40OTY1OCAyMS45ODEyIDYuNzY5N0MyMS45NjMgNy4wMzgwNyAyMS45Mjg5IDcuMTk0MzUgMjEuODc5OCA3LjMxMzY3QzIxLjcxOTYgNy43MDI4NCAyMS40MTIyIDguMDEyMDIgMjEuMDI1MyA4LjE3MzIyQzIwLjkwNjcgOC4yMjI2NCAyMC43NTEzIDguMjU2ODkgMjAuNDg0NSA4LjI3NTJDMjAuMjEzIDguMjkzODMgMTkuODY2MSA4LjI5NDEyIDE5LjM2ODQgOC4yOTQxMkg0LjYzMTU4Wk00LjYzMTU4IDkuMzUyOTRDNC4xMzM5MSA5LjM1Mjk0IDMuNzg3MDIgOS4zNTMyMyAzLjUxNTUgOS4zNzE4NkMzLjI0ODcgOS4zOTAxNyAzLjA5MzMzIDkuNDI0NDEgMi45NzQ3MSA5LjQ3Mzg0QzIuNTg3ODIgOS42MzUwMyAyLjI4MDQ0IDkuOTQ0MjIgMi4xMjAxOSAxMC4zMzM0QzIuMDcxMDUgMTAuNDUyNyAyLjAzNzAxIDEwLjYwOSAyLjAxODgxIDEwLjg3NzRDMi4wMDAyOCAxMS4xNTA1IDIgMTEuNDk5NCAyIDEyQzIgMTIuNTAwNiAyLjAwMDI4IDEyLjg0OTUgMi4wMTg4MSAxMy4xMjI2QzIuMDM3MDEgMTMuMzkxIDIuMDcxMDUgMTMuNTQ3MyAyLjEyMDE5IDEzLjY2NjZDMi4yODA0NCAxNC4wNTU4IDIuNTg3ODIgMTQuMzY1IDIuOTc0NzEgMTQuNTI2MkMzLjA5MzMzIDE0LjU3NTYgMy4yNDg3IDE0LjYwOTggMy41MTU1IDE0LjYyODFDMy43ODcwMiAxNC42NDY4IDQuMTMzOTEgMTQuNjQ3MSA0LjYzMTU4IDE0LjY0NzFIMTkuMzY4NEMxOS44NjYxIDE0LjY0NzEgMjAuMjEzIDE0LjY0NjggMjAuNDg0NSAxNC42MjgxQzIwLjc1MTMgMTQuNjA5OCAyMC45MDY3IDE0LjU3NTYgMjEuMDI1MyAxNC41MjYyQzIxLjQxMjIgMTQuMzY1IDIxLjcxOTYgMTQuMDU1OCAyMS44Nzk4IDEzLjY2NjZDMjEuOTI4OSAxMy41NDczIDIxLjk2MyAxMy4zOTEgMjEuOTgxMiAxMy4xMjI2QzIxLjk5OTcgMTIuODQ5NSAyMiAxMi41MDA2IDIyIDEyQzIyIDExLjQ5OTQgMjEuOTk5NyAxMS4xNTA1IDIxLjk4MTIgMTAuODc3NEMyMS45NjMgMTAuNjA5IDIxLjkyODkgMTAuNDUyNyAyMS44Nzk4IDEwLjMzMzRDMjEuNzE5NiA5Ljk0NDIyIDIxLjQxMjIgOS42MzUwMyAyMS4wMjUzIDkuNDczODRDMjAuOTA2NyA5LjQyNDQxIDIwLjc1MTMgOS4zOTAxNyAyMC40ODQ1IDkuMzcxODZDMjAuMjEzIDkuMzUzMjMgMTkuODY2MSA5LjM1Mjk0IDE5LjM2ODQgOS4zNTI5NEg0LjYzMTU4Wk01LjY4NDIxIDEyQzUuNjg0MjEgMTIuNTg0OCA1LjIxMjkzIDEzLjA1ODggNC42MzE1OCAxMy4wNTg4QzQuMDUwMjMgMTMuMDU4OCAzLjU3ODk1IDEyLjU4NDggMy41Nzg5NSAxMkMzLjU3ODk1IDExLjQxNTIgNC4wNTAyMyAxMC45NDEyIDQuNjMxNTggMTAuOTQxMkM1LjIxMjkzIDEwLjk0MTIgNS42ODQyMSAxMS40MTUyIDUuNjg0MjEgMTJaTTQuNjMxNTggNi43MDU4OEM1LjIxMjkzIDYuNzA1ODggNS42ODQyMSA2LjIzMTgzIDUuNjg0MjEgNS42NDcwNkM1LjY4NDIxIDUuMDYyMjkgNS4yMTI5MyA0LjU4ODI0IDQuNjMxNTggNC41ODgyNEM0LjA1MDIzIDQuNTg4MjQgMy41Nzg5NSA1LjA2MjI5IDMuNTc4OTUgNS42NDcwNkMzLjU3ODk1IDYuMjMxODMgNC4wNTAyMyA2LjcwNTg4IDQuNjMxNTggNi43MDU4OFoiIGNsaXAtcnVsZT0iZXZlbm9kZCIgZmlsbC1ydWxlPSJldmVub2RkIi8+JiN4YTs8L2c+JiN4YTs8L3N2Zz4=;" vertex="1" parent="4XwBpmDzUFXZfetM7Drz-21">
          <mxGeometry width="110" height="110" as="geometry" />
        </mxCell>
        <mxCell id="4XwBpmDzUFXZfetM7Drz-19" value="" style="shape=image;verticalLabelPosition=bottom;labelBackgroundColor=default;verticalAlign=top;aspect=fixed;imageAspect=0;image=data:image/svg+xml,PHN2ZyB4bWxuczp4bGluaz0iaHR0cDovL3d3dy53My5vcmcvMTk5OS94bGluayIgeG1sbnM9Imh0dHA6Ly93d3cudzMub3JnLzIwMDAvc3ZnIiB4bWw6c3BhY2U9InByZXNlcnZlIiB2aWV3Qm94PSIwIDAgNTEyIDUxMiIgaWQ9Il94MzRfIiB2ZXJzaW9uPSIxLjEiIHdpZHRoPSI4MDBweCIgaGVpZ2h0PSI4MDBweCI+JiN4YTs8Zz4mI3hhOwk8cGF0aCBkPSJNNTEyLDE0OC4yNjN2OS45NTJjLTAuNjE3LDAuMzg2LTEuNDY2LDAuODUtMi4xNjEsMS4zMTJsLTE5LjEzNCwxMS4zNDImIzEwOyYjOTsmIzk7Yy0xLjM4OSwwLjc3LTIuNzAxLDEuNjk3LTQuMzIxLDIuNTQ1YzAsMC4wNzctMC4wNzcsMC4wNzctMC4wNzcsMC4wNzdoLTAuMDc3Yy00LjkzOCwyLjg1Ni0xMC44MDIsNi4yNS0xNi4wNDgsOS4zMzYmIzEwOyYjOTsmIzk7Yy0zLjMxOCwyLjAwNi02LjQ4MSwzLjc4LTkuMDI3LDUuMzI0bC0yNC4xNDksMTQuMTk1bC05LjMzNiw1LjQ3OWwtMTI2LjE0OCw3NC4xNDVsLTIuMTYsMS4zMTJsLTEuNDY2LDAuODQ5bC00LjQ3NSwyLjYyMyYjMTA7JiM5OyYjOTtsLTMuMzE4LDIuMDA2bC0xMS42NSw2Ljg2N2wtNS45NDEsMy40NzJjLTIuMDgzLDEuMTU4LTQuMzk4LDIuMDA2LTYuODY3LDIuNjI0Yy0wLjIzMSwwLjA3Ny0wLjQ2MywwLjA3Ny0wLjY5NCwwLjE1NSYjMTA7JiM5OyYjOTtjLTIuODU1LDAuNjE3LTUuOTQxLDAuODQ4LTguOTUsMC42OTRjLTMuMDA5LDAuMTU0LTYuMDk1LTAuMDc3LTguOTUtMC42OTRjLTAuMjMyLTAuMDc3LTAuNDYzLTAuMDc3LTAuNjk1LTAuMTU1JiMxMDsmIzk7JiM5O2MtMi40NjktMC42MTgtNC43ODQtMS40NjYtNi44NjYtMi42MjRsLTUuOTQxLTMuNTQ5bC01Ljk0MS0zLjQ3MmwtNS43MDktMy4zMThsLTIuNTQ2LTEuNTQ0bC0wLjc3MS0wLjQ2MmwtNC40NzUtMi42MjMmIzEwOyYjOTsmIzk7bC02MS4xODQtMzUuOTU0bC02NS4zNS0zOC40MjNsLTEyLjU3Ni03LjQwOGwtMjQuMTQ5LTE0LjE5NWMtMS43NzQtMS4wMDQtMy43OC0yLjIzOC01Ljk0MS0zLjQ3MyYjMTA7JiM5OyYjOTtjLTYuMDE4LTMuNTUtMTMuMTkzLTcuNzkzLTE5LjEzNC0xMS4xODhoLTAuMDc3YzAsMC0wLjA3NywwLTAuMDc3LTAuMDc3Yy0xLjYyLTAuODQ4LTIuOTMyLTEuNzc0LTQuMzIxLTIuNTQ1TDIuMTYyLDE1OS41MjgmIzEwOyYjOTsmIzk7Yy0wLjY5NS0wLjQ2Mi0xLjU0My0wLjkyNi0yLjE2MS0xLjMxMnYtOS45NTJjMC0xLjY5OCwwLjIzMi0zLjA4NiwwLjY5NS00LjMyMWMwLTAuMDc2LDAuMDc3LTAuMDc2LDAuMDc3LTAuMDc2JiMxMDsmIzk7JiM5O2MwLjQ2My0wLjMwOSwwLjkyNi0wLjU0MSwxLjM4OS0wLjg1bDYuMjUtMy43MDNsMTIuODg1LTcuNjM4YzguMTc4LTQuNzA2LDIxLjQ0OS0xMi41NzYsMjkuNTUtMTcuMjgzbDAuOTI2LTAuNTQxbDIzLjIyNC0xMy42NTcmIzEwOyYjOTsmIzk7bDM2LjMzOS0yMS4zNzFsMTAuNDkzLTYuMTczTDIzOS40OSwzLjQ0NGM0LjU1Mi0yLjU0NiwxMC42NDctMy43MDMsMTYuNTExLTMuMzk1YzUuODY0LTAuMzA4LDEyLjAzNiwwLjg1LDE2LjUxMSwzLjM5NSYjMTA7JiM5OyYjOTtsNzguNzc1LDQ2LjI5M2wzOC44ODYsMjIuOTE1bDEwLjEwNyw1Ljk0MWwzNi43MjYsMjEuNjAzbDI0LjE0OSwxNC4xOTdjMC42OTUsMC4zODYsMS4zODksMC43NzEsMi4xNjEsMS4yMzQmIzEwOyYjOTsmIzk7YzQuOTM4LDIuOTMzLDExLjI2NCw2LjcxMywxNy4yMDUsMTAuMTA4YzMuNzAzLDIuMjM4LDcuMjUzLDQuMjQ0LDEwLjE4NSw1Ljk0MWw3Ljk0Nyw0LjcwNmw0LjkzOCwyLjkzMmw2LjI0OSwzLjcwMyYjMTA7JiM5OyYjOTtjMC40NjMsMC4zMDksMC45MjYsMC41NDEsMS4zODksMC44NUM1MTEuNzY4LDE0NS4xLDUxMiwxNDYuNTY1LDUxMiwxNDguMjYzeiIgc3R5bGU9ImZpbGw6I0VDQjE2ODsiLz4mI3hhOwk8bGluZWFyR3JhZGllbnQgeTI9IjQ0LjI4NjciIHgyPSIyNTYuMDAwNyIgeTE9IjM0Ni45MDQxIiB4MT0iMjU2LjAwMDciIGdyYWRpZW50VW5pdHM9InVzZXJTcGFjZU9uVXNlIiBpZD0iU1ZHSURfMV8iPiYjeGE7CQk8c3RvcCBzdHlsZT0ic3RvcC1jb2xvcjojQ0Y5OTNGIiBvZmZzZXQ9IjAiLz4mI3hhOwkJPHN0b3Agc3R5bGU9InN0b3AtY29sb3I6I0RGQTM0RiIgb2Zmc2V0PSIwLjc2ODUiLz4mI3hhOwk8L2xpbmVhckdyYWRpZW50PiYjeGE7CTxwYXRoIGQ9Ik01MTIsMTkyLjU1djkuOTUyYy0wLjYxNywwLjM4Ni0xLjM4OSwwLjg1LTIuMTYxLDEuMzEybC0xOS4xMzQsMTEuMzQyJiMxMDsmIzk7JiM5O2MtNC40NzUsMi41NDYtMTAuNDkzLDYuMDk0LTE2LjM1Nyw5LjQ5Yy00Ljc4MywyLjg1NC05LjU2OCw1LjYzMi0xMy4xOTQsNy43OTNsLTM4LjAzNywyMi4zNzRsLTc4LjU0Myw0Ni4yMTZsLTAuOTI2LDAuNTQxJiMxMDsmIzk7JiM5O2wtNy4xNzUsNC4xNjdsLTE3LjU5MiwxMC4zMzlsLTAuODQ5LDAuNTRsLTQ1LjUyMSwyNi43NzJjLTIuMDgzLDEuMTU4LTQuMzk4LDIuMDA2LTYuODY3LDIuNjI0JiMxMDsmIzk7JiM5O2MtMy4wMDksMC43NzEtNi40MDQsMS4wMDItOS42NDQsMC44NDljLTMuMjQsMC4xNTMtNi42MzUtMC4wNzctOS42NDQtMC44NDljLTIuNDY5LTAuNjE4LTQuNzg0LTEuNDY2LTYuODY2LTIuNjI0bC00NS40NDQtMjYuNjk1JiMxMDsmIzk7JiM5O2wtMC4wNzctMC4wNzdsLTkuOTUzLTUuODY0bC04LjQ4Ny01LjAxNGwtNy4yNTMtNC4yNDRsLTc1LjkyLTQ0LjY3M2wtNDEuNTA5LTI0LjM4Yy0yLjg1NS0xLjY5OC02LjMyNy0zLjcwMy0xMC4wMy01Ljk0MSYjMTA7JiM5OyYjOTtjLTYuNzktMy45MzUtMTQuMTk3LTguMzMzLTE5LjUyLTExLjM0MkwyLjE2MiwyMDMuODE0Yy0wLjY5NS0wLjQ2Mi0xLjU0My0wLjkyNi0yLjE2MS0xLjMxMnYtOS45NTImIzEwOyYjOTsmIzk7YzAtMS42OTgsMC4yMzItMy4wODYsMC42OTUtNC4zMmMwLTAuMDc3LDAuMDc3LTAuMDc3LDAuMDc3LTAuMDc3YzAuNDYzLTAuMzA5LDAuOTI2LTAuNTQxLDEuMzg5LTAuODVsNi4yNS0zLjcwM2wxMi44ODUtNy42MzgmIzEwOyYjOTsmIzk7YzEuMzEyLTAuNzcxLDIuNzc4LTEuNjIsNC4zMjEtMi41NDdjNi40ODEtMy43ODEsMTQuNTgyLTguNTYzLDIxLjA2NC0xMi4yNjZjMC4xNTQtMC4xNTQsMC4zODYtMC4yMzIsMC41NC0wLjMwOSYjMTA7JiM5OyYjOTtjMS4zMTItMC43NzIsMi40NjktMS41NDMsMy42MjctMi4xNjFsMjkuNzgxLTE3LjUxNGw2MS45NTUtMzYuNDE3bDMzLjQwOC0xOS42NzVsNjMuNDk5LTM3LjM0MyYjMTA7JiM5OyYjOTtjNC41NTItMi41NDYsMTAuNjQ3LTMuNzAzLDE2LjUxMS0zLjM5NWM1Ljg2NC0wLjMwOCwxMi4wMzYsMC44NSwxNi41MTEsMy4zOTVsNjMuNTc1LDM3LjM0M2wzMS42MzQsMTguNjcybDY2LjI3NiwzOC45NjMmIzEwOyYjOTsmIzk7bDI3LjE1OSwxNS45NzFjMS4yMzQsMC43NzEsMi43LDEuNTQzLDQuMTY2LDIuNDY5YzAuOTI2LDAuNDYyLDEuODUyLDEuMDAyLDIuNzc4LDEuNjJjNS45NDEsMy40NzIsMTIuNjUzLDcuNDA3LDE4LjI4NiwxMC42NDYmIzEwOyYjOTsmIzk7YzEuNTQzLDAuOTI3LDMuMDA5LDEuNzc1LDQuMzIxLDIuNTQ3bDEyLjg4NSw3LjYzOGw2LjI0OSwzLjcwM2MwLjQ2MywwLjMwOSwwLjkyNiwwLjU0MSwxLjM4OSwwLjg1JiMxMDsmIzk7JiM5O0M1MTEuNzY4LDE4OS4zODYsNTEyLDE5MC44NTIsNTEyLDE5Mi41NXoiIHN0eWxlPSJmaWxsOnVybCgjU1ZHSURfMV8pOyIvPiYjeGE7CTxwb2x5Z29uIHBvaW50cz0iNDM3LjE2LDExMC40NTcgNDMzLjk5NiwxNDIuNzA4IDQzMC40NDcsMTc5LjU4OCA0MjcuNjcsMjA3LjgyNyA0MjMuMTE4LDI1NC44MTMgJiMxMDsmIzk7JiM5OzQxOS4zMzcsMjkzLjkzMSA0MTYuMjUxLDMyNS41NjUgMzk1Ljg4MiwzMjMuNTU5IDM2Mi41NTEsMzIwLjMxOCAzMTguODgyLDMxNi4wNzUgMzE2LjY0NCwzMTUuOTIgMjU4LjA4NCwzMTAuMjExICYjMTA7JiM5OyYjOTsyMTQuMDI4LDMwNS45NjcgMTk0LjIsMzA0LjAzOCAxODAuOTI5LDMwMi43MjYgMTY4LjI3NiwzMDEuNDkyIDk2LjEzNiwyOTQuNDcxIDM0Ljc5OCwyODguNTMxIDQwLjgxNywyMjYuNDk4IDQ0LjkwNSwxODQuNjggJiMxMDsmIzk7JiM5OzQ3LjE0MywxNjEuMzc5IDQ3LjIyLDE2MC44NCA1MS43NzIsMTEzLjg1MiA1NS43MDcsNzMuNDIzIDExMS4zMzUsNzguODI0IDE3NS45OTEsODUuMDczIDI1Ny43NzUsOTMuMDIgMzY3LjcyMSwxMDMuNzQ1IiBzdHlsZT0iZmlsbDojRTc0NjY5OyIvPiYjeGE7CTxsaW5lYXJHcmFkaWVudCB5Mj0iMzI2LjI1ODciIHgyPSIyNzkuMTg1NSIgeTE9IjcyLjY1MTQiIHgxPSIyNzkuMTg1NSIgZ3JhZGllbnRVbml0cz0idXNlclNwYWNlT25Vc2UiIGlkPSJTVkdJRF8yXyI+JiN4YTsJCTxzdG9wIHN0eWxlPSJzdG9wLWNvbG9yOiNGRkZGRkYiIG9mZnNldD0iMCIvPiYjeGE7CQk8c3RvcCBzdHlsZT0ic3RvcC1jb2xvcjojREVERURFIiBvZmZzZXQ9IjAuOTcwNCIvPiYjeGE7CTwvbGluZWFyR3JhZGllbnQ+JiN4YTsJPHBvbHlnb24gcG9pbnRzPSI0ODAuNzUyLDI4Ny42ODEgNDE5LjMzNywyOTMuOTMxIDM0NS40MjMsMzAxLjMzOCAzNDMuNjQ4LDMwMS41NyAzMzEuMjI2LDMwMi44MDMgJiMxMDsmIzk7JiM5OzI5OC4yODIsMzA2LjEyMSAyNTguMDg0LDMxMC4yMTEgMTk0LjA0NiwzMTYuNjkyIDE5My44OTEsMzE2LjY5MiAxNzEuNzQ4LDMxOC45MjkgMTQ3LjY3NSwzMjEuMzk4IDk5LjM3NywzMjYuMjU5IDk2LjEzNiwyOTQuNDcxICYjMTA7JiM5OyYjOTs5Mi4zNTYsMjU2LjgxOSA4Ny41NzIsMjA5Ljc1NSA4NC43MTgsMTgxLjI4NSA4MC42MjgsMTQxLjE2NSA3Ny42MTksMTExLjMwNiAxNDIuNTgzLDEwNC43NDggMjU3Ljc3NSw5My4wMiAzMzYuMDg3LDg1LjA3MyAmIzEwOyYjOTsmIzk7NDAwLjI4LDc4LjU5MiA0MzcuMTYsNzQuODg5IDQ1OC45OTQsNzIuNjUxIDQ2MS42OTUsOTkuNDI1IDQ2My4zMTUsMTE1LjYyNiA0NjcuNzksMTU5Ljc1OSA0NjguMDk5LDE2Mi43NjggNDcwLjE4MiwxODIuODI5ICYjMTA7JiM5OyYjOTs0NzQuMzQ4LDIyNC42NDciIHN0eWxlPSJmaWxsOnVybCgjU1ZHSURfMl8pOyIvPiYjeGE7CTxnPiYjeGE7CQk8cGF0aCBkPSJNMjY2LjcyNSwyNzcuODgzYzAsMC0xLjY5NywxLjAwNC00LjQ3NSwyLjQ2OWMtMS42OTcsMC45MjYtMy44NTgsMi4wMDYtNi4yNSwzLjM5NCYjMTA7JiM5OyYjOTsmIzk7Yy0xLjE1NywwLjYxOC0yLjQ2OCwxLjMxMi0zLjg1OCwyLjAwNmwtNS4wOTIsMi43MDFsLTAuNjk1LDAuMzA4bC0xLjYyLDAuOTI2bC0xMS4xODgsNS44NjRsLTE1LjQzMSw4LjE3OSYjMTA7JiM5OyYjOTsmIzk7Yy0xLjM4OSwwLjY5NC0yLjc3NywxLjQ2NS00LjA5LDIuMjM3Yy0yLjM5MiwxLjIzNS00LjcwNiwyLjU0Ni02Ljc4OSwzLjU1Yy0zLjcwNCwyLjAwNi02LjU1OSwzLjU0OS03LjYzOSw0LjA5JiMxMDsmIzk7JiM5OyYjOTtjLTAuODQ5LDAuNDYyLTIuOTMyLDEuNTQzLTUuNjMyLDMuMDA4bC0wLjA3NywwLjA3N2MtMy41NDksMS44NTItOC4xMDEsNC4zMjEtMTIuNjU0LDYuNzEybC01NS41NTEsMjkuNDczbC0yNC4wNzIsMTIuODA5JiMxMDsmIzk7JiM5OyYjOTtsLTc0LjYwOSwzOS41OGMtMy4wMDksMS41NDMtNi4yNSwzLjMxOC05LjI1OCw0Ljg2MUg4LjQ4OWMtMC44NDksMC0xLjY5OCwwLTIuMzkyLTAuMDc2Yy0xLjkyOS0wLjE1NS0zLjMxOC0wLjQ2My00LjM5OC0wLjkyNyYjMTA7JiM5OyYjOTsmIzk7Yy0wLjU0LTAuMzA5LTEuMDAzLTAuNTQtMS4zMTItMC44NDljLTAuMTU0LTAuMjMxLTAuMjMyLTAuMzA4LTAuMzA5LTAuNTRjMC0wLjIzMi0wLjA3Ny0wLjQ2MywwLTAuNzcyJiMxMDsmIzk7JiM5OyYjOTtjLTAuMDc3LTAuMzg1LTAuMDc3LTAuNzctMC4wNzctMS4yMzRWMTUwLjM0NmMwLTEuNTQzLDAuMjMyLTIuODU0LDAuNjk1LTMuOTM1YzAtMC4wNzYsMC4wNzctMC4wNzYsMC4wNzctMC4wNzYmIzEwOyYjOTsmIzk7JiM5O2MxLjAwMy0yLjMxNSwyLjg1NS0zLjcwNCw1LjQwMS0zLjkzNWMwLjY5NC0wLjIzMiwxLjM4OS0wLjIzMiwyLjIzNy0wLjE1NGMxLjg1MiwwLjA3Nyw0LjAxMiwwLjYxNyw2LjMyNywxLjkyOWwyOC4zMTYsMTQuOTY4JiMxMDsmIzk7JiM5OyYjOTtsMy4wODYsMS42OTdsMC41NCwwLjMwOWwwLjQ2MywwLjIzMWwxMi4xMTMsNi40MDNjMS41NDMsMC43NzIsMy4yNDEsMS43NzUsNS4wOTIsMi43MDFjNi4zMjcsMy4zMTcsMTQuMTE5LDcuNDA3LDIwLjM2OSwxMC44MDEmIzEwOyYjOTsmIzk7JiM5O2MxLjM4OSwwLjY5NSwyLjcsMS40NjYsMy45MzUsMi4wODNsNzguNDY3LDQxLjY2NGw3MS4wNTksMzcuNzI5bDMuOTM1LDIuMDgzYzAuMTU0LDAuMDc3LDAuMzA5LDAuMDc3LDAuMzg2LDAuMTU1JiMxMDsmIzk7JiM5OyYjOTtjMC4zMDksMC4wNzcsMC41NCwwLjIzMiwwLjg0OSwwLjM4NmMwLjY5NCwwLjM4NSwxLjM4OSwwLjY5MywyLjAwNiwxLjA3OWMwLjA3NywwLjA3NywwLjIzMSwwLjA3NywwLjMwOCwwLjE1NCYjMTA7JiM5OyYjOTsmIzk7YzAuOTI2LDAuNDYzLDEuNzc0LDAuOTI2LDIuNjIzLDEuMzg4YzMuMzk1LDEuNzc1LDYuMTczLDMuMjQxLDcuNzE1LDQuMTY3YzAuOTI2LDAuMzg2LDEuMzg5LDAuNjk1LDEuNTQzLDAuNzcyJiMxMDsmIzk7JiM5OyYjOTtjMC4zMDksMC4yMzEsMi40NjksMS4zMTEsNC43MDYsMi42MjNjMC4wNzcsMCwwLjA3NywwLjA3NiwwLjE1NCwwLjA3NmMwLjM4NiwwLjE1NCwwLjc3MiwwLjMwOSwxLjA4LDAuNTQxJiMxMDsmIzk7JiM5OyYjOTtDMjY1LjMzNiwyNzcuMTExLDI2Ni43MjUsMjc3LjgwNSwyNjYuNzI1LDI3Ny44ODN6IiBzdHlsZT0iZmlsbDojRjBCQTdEOyIvPiYjeGE7CQk8Zz4mI3hhOwkJCTxwYXRoIGQ9Ik01MTEuODY2LDE0OC44NzRjMC4wNzQsMC43ODUsMC4xMzQsMi4zNDcsMC4xMzQsMy40NzF2MjUxLjIxMmMwLDEuMTI0LDAsMi4yNDcsMCwyLjQ5NiYjMTA7JiM5OyYjOTsmIzk7JiM5O2MwLDAuMjQ5LTAuMDg5LDAuOTgtMC4wODksMS4xMTRjMCwwLjEzNCwwLDAuMjQ0LDAsMC41MjNjMCwwLDAsMC4wMTYsMCwwLjAzNWMwLDAuMDE5LTAuNzYsMC41NTItMS42ODksMS4xODRsLTQuNjY3LDAuOTgxJiMxMDsmIzk7JiM5OyYjOTsmIzk7Yy0xLjExNiwwLjEzLTIuOTQ5LDAuMjM3LTQuMDcyLDAuMjM3aC01LjE5Yy0xLjEyNCwwLTIuODU3LTAuNDI3LTMuODUyLTAuOTQ4bC01LjY1OC0yLjk3NyYjMTA7JiM5OyYjOTsmIzk7JiM5O2MtMC45OTUtMC41MjItMi42MjItMS4zNzktMy42MTQtMS45MDZsLTE1MC42MTUtNzkuOTExYy0wLjk5My0wLjUyNy0yLjYxNy0xLjM4OC0zLjYxLTEuOTE1bC0xNC43Ny03Ljg5NiYjMTA7JiM5OyYjOTsmIzk7JiM5O2MtMC45OS0wLjUzMS0yLjYxMi0xLjM5Ny0zLjYwNC0xLjkyNWwtMTQuODU4LTcuODk3Yy0wLjk5MS0wLjUzLTIuNjE0LTEuMzkzLTMuNjA3LTEuOTE5bC0yNC42NjUtMTMuMDYxJiMxMDsmIzk7JiM5OyYjOTsmIzk7Yy0wLjk5My0wLjUyNi0yLjYxOC0xLjM4Ni0zLjYxMi0xLjkxMWwtMi4xODUtMS4xNTRjLTAuOTkzLTAuNTI1LTIuNjIyLTEuMzc5LTMuNjE4LTEuODk4YzAsMC0wLjg2NC0wLjQ1LTIuMDI0LTEuMDc2JiMxMDsmIzk7JiM5OyYjOTsmIzk7Yy02LjE1NS0zLjM0My0xMC43MDQtNS43ODEtMTAuNzA0LTUuODVzMS45NjMtMS4wNDQsNC4yODItMi4yOThjMi4zMTgtMS4yNTQsMy4xMDYtMS42NzgsMy4xMDYtMS42NzgmIzEwOyYjOTsmIzk7JiM5OyYjOTtjMC45ODktMC41MzMsMS45NC0xLjA0NywyLjExMS0xLjE0M2MwLjE3Mi0wLjA5NiwyLjAxMS0xLjAzMywyLjk5Ny0xLjU3MWMwLDAsNS4zNDItMi45MiwxMC44NzQtNS43NzUmIzEwOyYjOTsmIzk7JiM5OyYjOTtjMC4yNjgtMC4xMzksMC4yNjgtMC4xMzksMC4yNjgtMC4xMzljMC4yOTQtMC4xNTMsMC41OTUtMC4zMDksMC42NjgtMC4zNDhjMC4wNzMtMC4wMzgsMC45NTQtMC40ODQsMS43MzktMC45MDUmIzEwOyYjOTsmIzk7JiM5OyYjOTtzMi4yNC0xLjE5NywzLjIzMi0xLjcyM2wxNDYuOTU3LTc3Ljk2MmMwLjk5My0wLjUyNywyLjYxNi0xLjM4OSwzLjYwOC0xLjkxOGwyNS44MjYtMTMuNjgzYzAuOTkzLTAuNTI2LDIuNjE4LTEuMzg2LDMuNjExLTEuOTEzJiMxMDsmIzk7JiM5OyYjOTsmIzk7bDQwLjktMjEuNjkzYzAuOTkzLTAuNTI3LDIuNjUyLTEuMzE0LDMuNjg3LTEuNzUxYzAsMCwxLjM0LTAuNjE2LDIuNDQ0LTAuODA4YzEuMTA0LTAuMTkyLDIuOTExLTAuMTgsNC4wMTYsMC4wMjdsNC4yMTEsMi4yMTEmIzEwOyYjOTsmIzk7JiM5OyYjOTtDNTEwLjU4MywxNDUuNjQ4LDUxMS43OTIsMTQ4LjA4OSw1MTEuODY2LDE0OC44NzR6IiBzdHlsZT0iZmlsbDojRTVBODY0OyIvPiYjeGE7CQk8L2c+JiN4YTsJPC9nPiYjeGE7CTxwYXRoIGQ9Ik01MTIsMzc0LjgyMXYzMC44ODNjMCwwLjQ3NiwwLDAuODg0LTAuMDkxLDEuMjkyYzAuMDkxLDAuMjcyLDAsMC40NzcsMCwwLjc0OWMwLDAsMCwwLDAsMC4wNjgmIzEwOyYjOTsmIzk7Yy0wLjY0MSwxLjQyOC0zLjU2NiwyLjMxMi04LjU5NCwyLjMxMkgzNC44MWw5Mi4yMzgtNjEuNDI0bDAuMDkxLTAuMDY4bDExNS40NTgtNzYuODY1bDExLjI0NS03LjQxNWwzLjAxNS0yLjA0MWw5Ljk2NSw0LjM1NCYjMTA7JiM5OyYjOTtMNTEyLDM3NC44MjF6IiBzdHlsZT0iZmlsbDojQzA4NzRBOyIvPiYjeGE7CTxwYXRoIGQ9Ik01MTIsNDA0LjU0M3YxLjE1OGMwLDAuNDc2LDAsMC44ODUtMC4wODksMS4yOTNjMC4wODksMC4yNzMsMCwwLjQ3NywwLDAuNzVjMCwwLDAsMCwwLDAuMDY4JiMxMDsmIzk7JiM5O2MtMC42MjUsMS40MjktMy40OCwyLjMxMy04LjM4NSwyLjMxM0g4LjQ3NGMtNC45MDUsMC03Ljc2LTAuODg0LTguMzg1LTIuMzEzYzAtMC4wNjgsMC0wLjA2OCwwLTAuMDY4YzAtMC4yNzItMC4wODktMC40NzcsMC0wLjc1JiMxMDsmIzk7JiM5O0MwLDQwNi41ODYsMCw0MDYuMTc3LDAsNDA1LjcwMXYtMS4xNThjMC44MDMtMC44MTcsMS45NjMtMS42MzQsMy40NzktMi40NTFsMjM4LjA3LTEzMy4yOTZjMC4wODksMCwwLjA4OS0wLjA2NywwLjE3OS0wLjEzNSYjMTA7JiM5OyYjOTtjMC4yNjgtMC4xMzYsMC41MzYtMC4yNzMsMC44MDItMC40MDhjNC45MDUtMi42NTYsOS45MDEtNC40OTQsMTMuNDY5LTUuMTc0YzEuMjQ5LDAuMjcyLDIuNTg2LDAuNjEyLDQuMTA0LDEuMTU3JiMxMDsmIzk7JiM5O2MyLjg1NCwwLjg4NSw2LjE1NCwyLjMxNSw5LjM2NSw0LjAxN2MwLjM1NiwwLjIwNCwwLjYyNCwwLjM0LDAuOTgxLDAuNTQzbDIzOC4wNywxMzMuMjk2JiMxMDsmIzk7JiM5O0M1MTAuMDM2LDQwMi45NzcsNTExLjE5Niw0MDMuNzk0LDUxMiw0MDQuNTQzeiIgc3R5bGU9ImZpbGw6I0VDQjE2ODsiLz4mI3hhOzwvZz4mI3hhOzwvc3ZnPg==;" vertex="1" parent="4XwBpmDzUFXZfetM7Drz-21">
          <mxGeometry x="70" y="80" width="50" height="50" as="geometry" />
        </mxCell>
        <mxCell id="4XwBpmDzUFXZfetM7Drz-20" value="&lt;b&gt;SMTP Server&lt;/b&gt;&lt;div&gt;&lt;b&gt;(Google)&lt;/b&gt;&lt;/div&gt;" style="text;html=1;align=center;verticalAlign=middle;resizable=0;points=[];autosize=1;strokeColor=none;fillColor=none;" vertex="1" parent="4XwBpmDzUFXZfetM7Drz-21">
          <mxGeometry x="5" y="125" width="100" height="40" as="geometry" />
        </mxCell>
        <mxCell id="4XwBpmDzUFXZfetM7Drz-24" style="edgeStyle=orthogonalEdgeStyle;rounded=0;orthogonalLoop=1;jettySize=auto;html=1;entryX=0.5;entryY=0;entryDx=0;entryDy=0;" edge="1" parent="1" source="4XwBpmDzUFXZfetM7Drz-9" target="4XwBpmDzUFXZfetM7Drz-17">
          <mxGeometry relative="1" as="geometry">
            <mxPoint x="290" y="433" as="targetPoint" />
          </mxGeometry>
        </mxCell>
        <mxCell id="4XwBpmDzUFXZfetM7Drz-25" value="Sends Emails" style="edgeLabel;html=1;align=center;verticalAlign=middle;resizable=0;points=[];" vertex="1" connectable="0" parent="4XwBpmDzUFXZfetM7Drz-24">
          <mxGeometry x="-0.1049" y="3" relative="1" as="geometry">
            <mxPoint x="17" y="17" as="offset" />
          </mxGeometry>
        </mxCell>
        <mxCell id="4XwBpmDzUFXZfetM7Drz-35" value="&lt;b&gt;ITS Async Jobs&lt;/b&gt;" style="text;html=1;align=center;verticalAlign=middle;resizable=0;points=[];autosize=1;strokeColor=none;fillColor=none;" vertex="1" parent="1">
          <mxGeometry x="530" y="683" width="110" height="30" as="geometry" />
        </mxCell>
        <mxCell id="4XwBpmDzUFXZfetM7Drz-40" value="" style="group" vertex="1" connectable="0" parent="1">
          <mxGeometry x="530" y="123" width="140" height="154" as="geometry" />
        </mxCell>
        <mxCell id="4XwBpmDzUFXZfetM7Drz-37" value="" style="shape=image;verticalLabelPosition=bottom;labelBackgroundColor=default;verticalAlign=top;aspect=fixed;imageAspect=0;image=data:image/svg+xml,PHN2ZyB4bWxuczp4bGluaz0iaHR0cDovL3d3dy53My5vcmcvMTk5OS94bGluayIgeG1sbnM9Imh0dHA6Ly93d3cudzMub3JnLzIwMDAvc3ZnIiB4bWw6c3BhY2U9InByZXNlcnZlIiB2aWV3Qm94PSIwIDAgNTA4IDUwOCIgaWQ9IkxheWVyXzEiIHZlcnNpb249IjEuMSI+JiN4YTs8Y2lyY2xlIHI9IjI1NCIgY3k9IjI1NCIgY3g9IjI1NCIgc3R5bGU9ImZpbGw6I0ZEODQ2OTsiLz4mI3hhOzxwYXRoIGQ9Ik0zMTcuMiw5Mi44SDE0Ni45Yy03LjIsMC0xMy4xLDUuOC0xMy4xLDEzLjF2Mjk2LjRjMCw3LjIsNS44LDEzLjEsMTMuMSwxMy4xaDIxNC4zJiMxMDsmIzk7YzcuMiwwLDEzLjEtNS44LDEzLjEtMTMuMVYxNDkuOGgtNDRjLTcuMiwwLTEzLjEtNS44LTEzLjEtMTMuMVY5Mi44eiIgc3R5bGU9ImZpbGw6I0ZGRkZGRjsiLz4mI3hhOzxnPiYjeGE7CTxwYXRoIGQ9Ik0zMTcuMiw5Mi44djQ0YzAsNy4yLDUuOCwxMy4xLDEzLjEsMTMuMWg0NEwzMTcuMiw5Mi44eiIgc3R5bGU9ImZpbGw6I0U2RTlFRTsiLz4mI3hhOwk8cGF0aCBkPSJNMTk5LjksMjMzaC0zMWMtMS4xLDAtMi0wLjktMi0ydi0zMWMwLTEuMSwwLjktMiwyLTJoMzFjMS4xLDAsMiwwLjksMiwydjMxJiMxMDsmIzk7JiM5O0MyMDEuOSwyMzIuMSwyMDEsMjMzLDE5OS45LDIzM3ogTTE3MC45LDIyOS4xaDI3di0yN2gtMjdWMjI5LjF6IiBzdHlsZT0iZmlsbDojRTZFOUVFOyIvPiYjeGE7PC9nPiYjeGE7PHBhdGggZD0iTTE4Ni41LDIyNC4yYy0xLjIsMC0yLjQtMC42LTMuMi0xLjZsLTcuMi05LjVjLTEuMy0xLjgtMS00LjIsMC44LTUuNmMxLjgtMS4zLDQuMi0xLDUuNiwwLjhsNCw1LjMmIzEwOyYjOTtsMjIuNS0yOS44YzEuMy0xLjcsMy44LTIuMSw1LjYtMC44YzEuNywxLjMsMi4xLDMuOCwwLjgsNS42bC0yNS43LDM0QzE4OC45LDIyMy42LDE4Ny44LDIyNC4yLDE4Ni41LDIyNC4yeiIgc3R5bGU9ImZpbGw6I0ZGNzA1ODsiLz4mI3hhOzxwYXRoIGQ9Ik0xOTkuOSwyNzguNmgtMzFjLTEuMSwwLTItMC45LTItMnYtMzFjMC0xLjEsMC45LTIsMi0yaDMxYzEuMSwwLDIsMC45LDIsMnYzMSYjMTA7JiM5O0MyMDEuOSwyNzcuNywyMDEsMjc4LjYsMTk5LjksMjc4LjZ6IE0xNzAuOSwyNzQuNmgyN3YtMjdoLTI3VjI3NC42eiIgc3R5bGU9ImZpbGw6I0U2RTlFRTsiLz4mI3hhOzxwYXRoIGQ9Ik0xODYuNSwyNjkuOGMtMS4yLDAtMi40LTAuNi0zLjItMS42bC03LjItOS41Yy0xLjMtMS43LTEtNC4yLDAuOC01LjZjMS44LTEuMyw0LjItMSw1LjYsMC44bDQsNS4zJiMxMDsmIzk7bDIyLjUtMjkuOGMxLjMtMS43LDMuOC0yLjEsNS42LTAuOGMxLjcsMS4zLDIuMSwzLjgsMC44LDUuNmwtMjUuNywzNEMxODguOSwyNjkuMiwxODcuOCwyNjkuOCwxODYuNSwyNjkuOHoiIHN0eWxlPSJmaWxsOiM4NERCRkY7Ii8+JiN4YTs8cGF0aCBkPSJNMTk5LjksMzI0LjJoLTMxYy0xLjEsMC0yLTAuOS0yLTJ2LTMxYzAtMS4xLDAuOS0yLDItMmgzMWMxLjEsMCwyLDAuOSwyLDJ2MzEmIzEwOyYjOTtDMjAxLjksMzIzLjMsMjAxLDMyNC4yLDE5OS45LDMyNC4yeiBNMTcwLjksMzIwLjJoMjd2LTI3aC0yN1YzMjAuMnoiIHN0eWxlPSJmaWxsOiNFNkU5RUU7Ii8+JiN4YTs8cGF0aCBkPSJNMTg2LjUsMzE1LjNjLTEuMiwwLTIuNC0wLjYtMy4yLTEuNmwtNy4yLTkuNWMtMS4zLTEuNy0xLTQuMiwwLjgtNS42YzEuOC0xLjMsNC4yLTEsNS42LDAuOGw0LDUuMyYjMTA7JiM5O0wyMDksMjc1YzEuMy0xLjcsMy44LTIuMSw1LjYtMC44YzEuNywxLjMsMi4xLDMuOCwwLjgsNS42bC0yNS43LDM0QzE4OC45LDMxNC44LDE4Ny44LDMxNS4zLDE4Ni41LDMxNS4zeiIgc3R5bGU9ImZpbGw6I0ZGRDA1QjsiLz4mI3hhOzxwYXRoIGQ9Ik0xOTkuOSwzNjkuOGgtMzFjLTEuMSwwLTItMC45LTItMnYtMzFjMC0xLjEsMC45LTIsMi0yaDMxYzEuMSwwLDIsMC45LDIsMnYzMSYjMTA7JiM5O0MyMDEuOSwzNjguOSwyMDEsMzY5LjgsMTk5LjksMzY5Ljh6IE0xNzAuOSwzNjUuOGgyN3YtMjdoLTI3VjM2NS44eiIgc3R5bGU9ImZpbGw6I0U2RTlFRTsiLz4mI3hhOzxwYXRoIGQ9Ik0xODYuNSwzNjAuOWMtMS4yLDAtMi40LTAuNi0zLjItMS42bC03LjItOS41Yy0xLjMtMS43LTEtNC4yLDAuOC01LjZjMS44LTEuMyw0LjItMSw1LjYsMC44bDQsNS4zJiMxMDsmIzk7bDIyLjUtMjkuOGMxLjMtMS43LDMuOC0yLjEsNS42LTAuOGMxLjcsMS4zLDIuMSwzLjgsMC44LDUuNmwtMjUuNywzNEMxODguOSwzNjAuMywxODcuOCwzNjAuOSwxODYuNSwzNjAuOXoiIHN0eWxlPSJmaWxsOiMyQzk5ODQ7Ii8+JiN4YTs8Zz4mI3hhOwk8cmVjdCBoZWlnaHQ9IjcuMiIgd2lkdGg9IjEwMi45IiBzdHlsZT0iZmlsbDojRTZFOUVFOyIgeT0iMTk5LjYiIHg9IjI0Mi44Ii8+JiN4YTsJPHJlY3QgaGVpZ2h0PSI3LjIiIHdpZHRoPSI2My41IiBzdHlsZT0iZmlsbDojRTZFOUVFOyIgeT0iMjE2LjYiIHg9IjI0Mi44Ii8+JiN4YTsJPHJlY3QgaGVpZ2h0PSI3LjIiIHdpZHRoPSIxMDIuOSIgc3R5bGU9ImZpbGw6I0U2RTlFRTsiIHk9IjI0OSIgeD0iMjQyLjgiLz4mI3hhOwk8cmVjdCBoZWlnaHQ9IjcuMiIgd2lkdGg9IjYzLjUiIHN0eWxlPSJmaWxsOiNFNkU5RUU7IiB5PSIyNjYiIHg9IjI0Mi44Ii8+JiN4YTsJPHJlY3QgaGVpZ2h0PSI3LjIiIHdpZHRoPSIxMDIuOSIgc3R5bGU9ImZpbGw6I0U2RTlFRTsiIHk9IjI5OC40IiB4PSIyNDIuOCIvPiYjeGE7CTxyZWN0IGhlaWdodD0iNy4yIiB3aWR0aD0iNjMuNSIgc3R5bGU9ImZpbGw6I0U2RTlFRTsiIHk9IjMxNS40IiB4PSIyNDIuOCIvPiYjeGE7CTxyZWN0IGhlaWdodD0iNy4yIiB3aWR0aD0iMTAyLjkiIHN0eWxlPSJmaWxsOiNFNkU5RUU7IiB5PSIzNDcuOCIgeD0iMjQyLjgiLz4mI3hhOwk8cmVjdCBoZWlnaHQ9IjcuMiIgd2lkdGg9IjYzLjUiIHN0eWxlPSJmaWxsOiNFNkU5RUU7IiB5PSIzNjQuOCIgeD0iMjQyLjgiLz4mI3hhOzwvZz4mI3hhOzwvc3ZnPg==;" vertex="1" parent="4XwBpmDzUFXZfetM7Drz-40">
          <mxGeometry width="108" height="108" as="geometry" />
        </mxCell>
        <mxCell id="4XwBpmDzUFXZfetM7Drz-39" value="Tasks&amp;nbsp;&lt;div&gt;Scheduler&lt;/div&gt;" style="text;html=1;align=center;verticalAlign=middle;resizable=0;points=[];autosize=1;strokeColor=none;fillColor=none;" vertex="1" parent="4XwBpmDzUFXZfetM7Drz-40">
          <mxGeometry x="14" y="114" width="80" height="40" as="geometry" />
        </mxCell>
        <mxCell id="4XwBpmDzUFXZfetM7Drz-41" value="" style="shape=image;verticalLabelPosition=bottom;labelBackgroundColor=default;verticalAlign=top;aspect=fixed;imageAspect=0;image=data:image/svg+xml,PHN2ZyB4bWxuczp4bGluaz0iaHR0cDovL3d3dy53My5vcmcvMTk5OS94bGluayIgeG1sbnM9Imh0dHA6Ly93d3cudzMub3JnLzIwMDAvc3ZnIiB4bWw6c3BhY2U9InByZXNlcnZlIiB2aWV3Qm94PSIwIDAgNTEyIDUxMiIgaWQ9IkxheWVyXzEiIHZlcnNpb249IjEuMSIgd2lkdGg9IjgwMHB4IiBoZWlnaHQ9IjgwMHB4Ij4mI3hhOzxjaXJjbGUgcj0iMjU2IiBjeT0iMjU2IiBjeD0iMjU2IiBzdHlsZT0iZmlsbDojMjczQjdBOyIvPiYjeGE7PHBhdGggZD0iTTI5NC4yNDcsNTA5LjE1NGMxMTEuMjY5LTE2LjY3LDE5OS4xMDEtMTA0Ljk0NiwyMTUuMTE5LTIxNi40MjZMMzYzLjIxMywxNDguMjA5bC02OC41MDEsMTQ1Ljk0MiYjMTA7JiM5O2wtMTQ3LjMxNSw2OC4xNTNMMjk0LjI0Nyw1MDkuMTU0eiIgc3R5bGU9ImZpbGw6IzEyMTE0OTsiLz4mI3hhOzxwYXRoIGQ9Ik0zNDguMzcyLDM2OS43NzhIMTYzLjYyNmMtMTEuODIxLDAtMjEuNDA2LTkuNTgzLTIxLjQwNi0yMS40MDZWMTYzLjYyNiYjMTA7JiM5O2MwLTExLjgyMSw5LjU4My0yMS40MDQsMjEuNDA2LTIxLjQwNGgxODQuNzQ2YzExLjgyMSwwLDIxLjQwNiw5LjU4MywyMS40MDYsMjEuNDA0djE4NC43NDYmIzEwOyYjOTtDMzY5Ljc3OCwzNjAuMTk1LDM2MC4xOTUsMzY5Ljc3OCwzNDguMzcyLDM2OS43Nzh6IiBzdHlsZT0iZmlsbDojRkZGRkZGOyIvPiYjeGE7PGc+JiN4YTsJPHBhdGggZD0iTTM0OC4zNzIsMTQyLjIyMkgyNTZ2MjI3LjU1Nmg5Mi4zNzJjMTEuODIxLDAsMjEuNDA2LTkuNTgzLDIxLjQwNi0yMS40MDZWMTYzLjYyOCYjMTA7JiM5OyYjOTtDMzY5Ljc3OCwxNTEuODA1LDM2MC4xOTUsMTQyLjIyMiwzNDguMzcyLDE0Mi4yMjJ6IiBzdHlsZT0iZmlsbDojRDBEMUQzOyIvPiYjeGE7CTxjaXJjbGUgcj0iODUuMzMzIiBjeT0iMjU2IiBjeD0iMjU2IiBzdHlsZT0iZmlsbDojRDBEMUQzOyIvPiYjeGE7PC9nPiYjeGE7PHBhdGggZD0iTTM0MS4zMzMsMjU2YzAtNDcuMTI4LTM4LjIwNS04NS4zMzMtODUuMzMzLTg1LjMzM3YxNzAuNjY3JiMxMDsmIzk7QzMwMy4xMjgsMzQxLjMzMywzNDEuMzMzLDMwMy4xMjgsMzQxLjMzMywyNTZ6IiBzdHlsZT0iZmlsbDojQTZBOEFBOyIvPiYjeGE7PHBhdGggZD0iTTI1NiwyNjMuNzU4aC0yOC40NDRjLTQuMjg0LDAtNy43NTgtMy40NzQtNy43NTgtNy43NThjMC00LjI4NCwzLjQ3NC03Ljc1OCw3Ljc1OC03Ljc1OGgyMC42ODcmIzEwOyYjOTt2LTQ5LjEzMWMwLTQuMjg0LDMuNDc0LTcuNzU4LDcuNzU4LTcuNzU4YzQuMjg0LDAsNy43NTgsMy40NzQsNy43NTgsNy43NThWMjU2QzI2My43NTgsMjYwLjI4NCwyNjAuMjg0LDI2My43NTgsMjU2LDI2My43NTh6IiBzdHlsZT0iZmlsbDojRDM1OTMzOyIvPiYjeGE7PHBhdGggZD0iTTI1NiwxOTEuMzU0djcyLjQwNGM0LjI4NCwwLDcuNzU4LTMuNDc0LDcuNzU4LTcuNzU4di01Ni44ODkmIzEwOyYjOTtDMjYzLjc1OCwxOTQuODI3LDI2MC4yODQsMTkxLjM1NCwyNTYsMTkxLjM1NHoiIHN0eWxlPSJmaWxsOiNCNTQzMjQ7Ii8+JiN4YTs8L3N2Zz4=;" vertex="1" parent="4XwBpmDzUFXZfetM7Drz-40">
          <mxGeometry x="70" y="74" width="56" height="56" as="geometry" />
        </mxCell>
        <mxCell id="4XwBpmDzUFXZfetM7Drz-44" value="" style="rounded=1;whiteSpace=wrap;html=1;dashed=1;fillColor=none;" vertex="1" parent="1">
          <mxGeometry x="870" y="93" width="210" height="580" as="geometry" />
        </mxCell>
        <mxCell id="4XwBpmDzUFXZfetM7Drz-45" value="" style="shape=image;verticalLabelPosition=bottom;labelBackgroundColor=default;verticalAlign=top;aspect=fixed;imageAspect=0;image=data:image/svg+xml,PHN2ZyB4bWxucz0iaHR0cDovL3d3dy53My5vcmcvMjAwMC9zdmciIHByZXNlcnZlQXNwZWN0UmF0aW89InhNaW5ZTWluIG1lZXQiIHZpZXdCb3g9IjAgLTE4IDI1NiAyNTYiIGhlaWdodD0iODAwcHgiIHdpZHRoPSI4MDBweCI+PHBhdGggZmlsbD0iIzkxMjYyNiIgZD0iTTI0NS45NyAxNjguOTQzYy0xMy42NjIgNy4xMjEtODQuNDM0IDM2LjIyLTk5LjUwMSA0NC4wNzUtMTUuMDY3IDcuODU2LTIzLjQzNyA3Ljc4LTM1LjM0IDIuMDktMTEuOTAyLTUuNjktODcuMjE2LTM2LjExMi0xMDAuNzgzLTQyLjU5N0MzLjU2NiAxNjkuMjcxIDAgMTY2LjUzNSAwIDE2My45NTF2LTI1Ljg3NnM5OC4wNS0yMS4zNDUgMTEzLjg3OS0yNy4wMjRjMTUuODI4LTUuNjc5IDIxLjMyLTUuODg0IDM0Ljc5LS45NSAxMy40NzIgNC45MzYgOTQuMDE4IDE5LjQ2OCAxMDcuMzMxIDI0LjM0NGwtLjAwNiAyNS41MWMuMDAyIDIuNTU4LTMuMDcgNS4zNjQtMTAuMDI0IDguOTg4Ii8+PHBhdGggZmlsbD0iI0M2MzAyQiIgZD0iTTI0NS45NjUgMTQzLjIyYy0xMy42NjEgNy4xMTgtODQuNDMxIDM2LjIxOC05OS40OTggNDQuMDcyLTE1LjA2NiA3Ljg1Ny0yMy40MzYgNy43OC0zNS4zMzggMi4wOS0xMS45MDMtNS42ODYtODcuMjE0LTM2LjExMy0xMDAuNzgtNDIuNTk0LTEzLjU2Ni02LjQ4NS0xMy44NS0xMC45NDgtLjUyNC0xNi4xNjYgMTMuMzI2LTUuMjIgODguMjI0LTM0LjYwNSAxMDQuMDU1LTQwLjI4NCAxNS44MjgtNS42NzcgMjEuMzE5LTUuODg0IDM0Ljc4OS0uOTQ4IDEzLjQ3MSA0LjkzNCA4My44MTkgMzIuOTM1IDk3LjEzIDM3LjgxIDEzLjMxNiA0Ljg4MSAxMy44MjcgOC45LjE2NiAxNi4wMiIvPjxwYXRoIGZpbGw9IiM5MTI2MjYiIGQ9Ik0yNDUuOTcgMTI3LjA3NGMtMTMuNjYyIDcuMTIyLTg0LjQzNCAzNi4yMi05OS41MDEgNDQuMDc4LTE1LjA2NyA3Ljg1My0yMy40MzcgNy43NzctMzUuMzQgMi4wODctMTEuOTAzLTUuNjg3LTg3LjIxNi0zNi4xMTItMTAwLjc4My00Mi41OTdDMy41NjYgMTI3LjQwMiAwIDEyNC42NyAwIDEyMi4wODVWOTYuMjA2czk4LjA1LTIxLjM0NCAxMTMuODc5LTI3LjAyM2MxNS44MjgtNS42NzkgMjEuMzItNS44ODUgMzQuNzktLjk1QzE2Mi4xNDIgNzMuMTY4IDI0Mi42ODggODcuNjk3IDI1NiA5Mi41NzRsLS4wMDYgMjUuNTEzYy4wMDIgMi41NTctMy4wNyA1LjM2My0xMC4wMjQgOC45ODciLz48cGF0aCBmaWxsPSIjQzYzMDJCIiBkPSJNMjQ1Ljk2NSAxMDEuMzUxYy0xMy42NjEgNy4xMi04NC40MzEgMzYuMjE4LTk5LjQ5OCA0NC4wNzUtMTUuMDY2IDcuODU0LTIzLjQzNiA3Ljc3Ny0zNS4zMzggMi4wODctMTEuOTAzLTUuNjg2LTg3LjIxNC0zNi4xMTItMTAwLjc4LTQyLjU5NC0xMy41NjYtNi40ODMtMTMuODUtMTAuOTQ3LS41MjQtMTYuMTY3QzIzLjE1MSA4My41MzUgOTguMDUgNTQuMTQ4IDExMy44OCA0OC40N2MxNS44MjgtNS42NzggMjEuMzE5LTUuODg0IDM0Ljc4OS0uOTQ5IDEzLjQ3MSA0LjkzNCA4My44MTkgMzIuOTMzIDk3LjEzIDM3LjgxIDEzLjMxNiA0Ljg4IDEzLjgyNyA4LjkuMTY2IDE2LjAyIi8+PHBhdGggZmlsbD0iIzkxMjYyNiIgZD0iTTI0NS45NyA4My42NTNjLTEzLjY2MiA3LjEyLTg0LjQzNCAzNi4yMi05OS41MDEgNDQuMDc4LTE1LjA2NyA3Ljg1NC0yMy40MzcgNy43NzctMzUuMzQgMi4wODctMTEuOTAzLTUuNjg3LTg3LjIxNi0zNi4xMTMtMTAwLjc4My00Mi41OTVDMy41NjYgODMuOTggMCA4MS4yNDcgMCA3OC42NjV2LTI1Ljg4czk4LjA1LTIxLjM0MyAxMTMuODc5LTI3LjAyMWMxNS44MjgtNS42OCAyMS4zMi01Ljg4NCAzNC43OS0uOTVDMTYyLjE0MiAyOS43NDkgMjQyLjY4OCA0NC4yNzggMjU2IDQ5LjE1NWwtLjAwNiAyNS41MTJjLjAwMiAyLjU1NS0zLjA3IDUuMzYxLTEwLjAyNCA4Ljk4NiIvPjxwYXRoIGZpbGw9IiNDNjMwMkIiIGQ9Ik0yNDUuOTY1IDU3LjkzYy0xMy42NjEgNy4xMi04NC40MzEgMzYuMjItOTkuNDk4IDQ0LjA3NC0xNS4wNjYgNy44NTQtMjMuNDM2IDcuNzc3LTM1LjMzOCAyLjA5Qzk5LjIyNyA5OC40MDQgMjMuOTE1IDY3Ljk4IDEwLjM1IDYxLjQ5Ny0zLjIxNyA1NS4wMTUtMy41IDUwLjU1IDkuODI1IDQ1LjMzMSAyMy4xNTEgNDAuMTEzIDk4LjA1IDEwLjczIDExMy44OCA1LjA1YzE1LjgyOC01LjY3OSAyMS4zMTktNS44ODMgMzQuNzg5LS45NDggMTMuNDcxIDQuOTM1IDgzLjgxOSAzMi45MzQgOTcuMTMgMzcuODExIDEzLjMxNiA0Ljg3NiAxMy44MjcgOC44OTcuMTY2IDE2LjAxNyIvPjxwYXRoIGZpbGw9IiNGRkYiIGQ9Ik0xNTkuMjgzIDMyLjc1N2wtMjIuMDEgMi4yODUtNC45MjcgMTEuODU2LTcuOTU4LTEzLjIzLTI1LjQxNS0yLjI4NCAxOC45NjQtNi44MzktNS42OS0xMC40OTggMTcuNzU1IDYuOTQ0IDE2LjczOC01LjQ4LTQuNTI0IDEwLjg1NSAxNy4wNjcgNi4zOTFNMTMxLjAzMiA5MC4yNzVMODkuOTU1IDczLjIzOGw1OC44Ni05LjAzNS0xNy43ODMgMjYuMDcyTTc0LjA4MiAzOS4zNDdjMTcuMzc1IDAgMzEuNDYgNS40NiAzMS40NiAxMi4xOTQgMCA2LjczNi0xNC4wODUgMTIuMTk1LTMxLjQ2IDEyLjE5NXMtMzEuNDYtNS40Ni0zMS40Ni0xMi4xOTVjMC02LjczNCAxNC4wODUtMTIuMTk0IDMxLjQ2LTEyLjE5NCIvPjxwYXRoIGZpbGw9IiM2MjFCMUMiIGQ9Ik0xODUuMjk1IDM1Ljk5OGwzNC44MzYgMTMuNzY2LTM0LjgwNiAxMy43NTMtLjAzLTI3LjUyIi8+PHBhdGggZmlsbD0iIzlBMjkyOCIgZD0iTTE0Ni43NTUgNTEuMjQzbDM4LjU0LTE1LjI0NS4wMyAyNy41MTktMy43NzkgMS40NzgtMzQuNzkxLTEzLjc1MiIvPjwvc3ZnPg==;" vertex="1" parent="1">
          <mxGeometry x="1050" y="643" width="60" height="60" as="geometry" />
        </mxCell>
        <mxCell id="4XwBpmDzUFXZfetM7Drz-46" value="&lt;b&gt;ITS Redis Queues&lt;/b&gt;" style="text;html=1;align=center;verticalAlign=middle;resizable=0;points=[];autosize=1;strokeColor=none;fillColor=none;" vertex="1" parent="1">
          <mxGeometry x="910" y="683" width="130" height="30" as="geometry" />
        </mxCell>
        <mxCell id="4XwBpmDzUFXZfetM7Drz-51" value="" style="group" vertex="1" connectable="0" parent="1">
          <mxGeometry x="915" y="443" width="120" height="140" as="geometry" />
        </mxCell>
        <mxCell id="4XwBpmDzUFXZfetM7Drz-48" value="" style="shape=image;verticalLabelPosition=bottom;labelBackgroundColor=default;verticalAlign=top;aspect=fixed;imageAspect=0;image=data:image/svg+xml,PHN2ZyB4bWxucz0iaHR0cDovL3d3dy53My5vcmcvMjAwMC9zdmciIGZpbGw9IiMwMDAwMDAiIHZpZXdCb3g9IjAgMCAyNCAyNCIgaGVpZ2h0PSI4MDBweCIgd2lkdGg9IjgwMHB4Ij4mI3hhOyYjeGE7PGcgc3Ryb2tlLXdpZHRoPSIwIiBpZD0iU1ZHUmVwb19iZ0NhcnJpZXIiLz4mI3hhOyYjeGE7PGcgc3Ryb2tlLWxpbmVqb2luPSJyb3VuZCIgc3Ryb2tlLWxpbmVjYXA9InJvdW5kIiBpZD0iU1ZHUmVwb190cmFjZXJDYXJyaWVyIi8+JiN4YTsmI3hhOzxnIGlkPSJTVkdSZXBvX2ljb25DYXJyaWVyIj4gPHBhdGggZD0iTTE1LjYyMjcxLDUgTDIxLjYzODc0MSwxMS41NTk0MzIxIEwxNS42MjI3MSwxOC4xMTg4NjQyIEwxMy42MTIsMTUuOTI2IEwxMS41ODc0NTk1LDE4LjEzNDMyNDkgTDkuNzk0LDE2LjE3OSBMOC4wMTYwMzA5NiwxOC4xMTg4NjQyIEwyLDExLjU1OTQzMjEgTDguMDE2MDMwOTYsNSBMOS44MDgsNi45NTQgTDkuMTc5LDcuNjQgTDguMDE2MDMwOTYsNi4zNzI0MTQzNCBMMy4yNTg3MTk4MSwxMS41NTk0MzIxIEw4LjAxNjAzMDk2LDE2Ljc0NjQ0OTkgTDkuMTY1LDE1LjQ5MyBMNS41NzE0Mjg1NywxMS41NzQ4OTI4IEwxMS41ODc0NTk1LDUuMDE1NDYwNzMgTDEzLjU5OCw3LjIwNyBMMTUuNjIyNzEsNSBaIE0xMS41ODc0NTk1LDYuMzg3ODc1MDcgTDYuODMwMTQ4MzgsMTEuNTc0ODkyOCBMMTEuNTg3NDU5NSwxNi43NjE5MTA2IEwxMi45ODIsMTUuMjQgTDkuNjA2Njc5MDQsMTEuNTU5NDMyMSBMMTIuOTY4LDcuODkzIEwxMS41ODc0NTk1LDYuMzg3ODc1MDcgWiIgZmlsbD0iI2MxMTUxNSIvPiA8L2c+JiN4YTsmI3hhOzwvc3ZnPg==;" vertex="1" parent="4XwBpmDzUFXZfetM7Drz-51">
          <mxGeometry width="120" height="120" as="geometry" />
        </mxCell>
        <mxCell id="4XwBpmDzUFXZfetM7Drz-50" value="Notifications&lt;div&gt;Queue&lt;/div&gt;" style="text;html=1;align=center;verticalAlign=middle;resizable=0;points=[];autosize=1;strokeColor=none;fillColor=none;" vertex="1" parent="4XwBpmDzUFXZfetM7Drz-51">
          <mxGeometry x="15" y="100" width="90" height="40" as="geometry" />
        </mxCell>
        <mxCell id="4XwBpmDzUFXZfetM7Drz-52" value="" style="group" vertex="1" connectable="0" parent="1">
          <mxGeometry x="920" y="243" width="120" height="133" as="geometry" />
        </mxCell>
        <mxCell id="4XwBpmDzUFXZfetM7Drz-47" value="" style="shape=image;verticalLabelPosition=bottom;labelBackgroundColor=default;verticalAlign=top;aspect=fixed;imageAspect=0;image=data:image/svg+xml,PHN2ZyB4bWxucz0iaHR0cDovL3d3dy53My5vcmcvMjAwMC9zdmciIGZpbGw9IiMwMDAwMDAiIHZpZXdCb3g9IjAgMCAyNCAyNCIgaGVpZ2h0PSI4MDBweCIgd2lkdGg9IjgwMHB4Ij4mI3hhOyYjeGE7PGcgc3Ryb2tlLXdpZHRoPSIwIiBpZD0iU1ZHUmVwb19iZ0NhcnJpZXIiLz4mI3hhOyYjeGE7PGcgc3Ryb2tlLWxpbmVqb2luPSJyb3VuZCIgc3Ryb2tlLWxpbmVjYXA9InJvdW5kIiBpZD0iU1ZHUmVwb190cmFjZXJDYXJyaWVyIi8+JiN4YTsmI3hhOzxnIGlkPSJTVkdSZXBvX2ljb25DYXJyaWVyIj4gPHBhdGggZD0iTTE1LjYyMjcxLDUgTDIxLjYzODc0MSwxMS41NTk0MzIxIEwxNS42MjI3MSwxOC4xMTg4NjQyIEwxMy42MTIsMTUuOTI2IEwxMS41ODc0NTk1LDE4LjEzNDMyNDkgTDkuNzk0LDE2LjE3OSBMOC4wMTYwMzA5NiwxOC4xMTg4NjQyIEwyLDExLjU1OTQzMjEgTDguMDE2MDMwOTYsNSBMOS44MDgsNi45NTQgTDkuMTc5LDcuNjQgTDguMDE2MDMwOTYsNi4zNzI0MTQzNCBMMy4yNTg3MTk4MSwxMS41NTk0MzIxIEw4LjAxNjAzMDk2LDE2Ljc0NjQ0OTkgTDkuMTY1LDE1LjQ5MyBMNS41NzE0Mjg1NywxMS41NzQ4OTI4IEwxMS41ODc0NTk1LDUuMDE1NDYwNzMgTDEzLjU5OCw3LjIwNyBMMTUuNjIyNzEsNSBaIE0xMS41ODc0NTk1LDYuMzg3ODc1MDcgTDYuODMwMTQ4MzgsMTEuNTc0ODkyOCBMMTEuNTg3NDU5NSwxNi43NjE5MTA2IEwxMi45ODIsMTUuMjQgTDkuNjA2Njc5MDQsMTEuNTU5NDMyMSBMMTIuOTY4LDcuODkzIEwxMS41ODc0NTk1LDYuMzg3ODc1MDcgWiIgZmlsbD0iI2MxMTUxNSIvPiA8L2c+JiN4YTsmI3hhOzwvc3ZnPg==;" vertex="1" parent="4XwBpmDzUFXZfetM7Drz-52">
          <mxGeometry width="120" height="120" as="geometry" />
        </mxCell>
        <mxCell id="4XwBpmDzUFXZfetM7Drz-49" value="Maintenance&lt;div&gt;Queue&lt;/div&gt;" style="text;html=1;align=center;verticalAlign=middle;resizable=0;points=[];autosize=1;strokeColor=none;fillColor=none;" vertex="1" parent="4XwBpmDzUFXZfetM7Drz-52">
          <mxGeometry x="15" y="93" width="90" height="40" as="geometry" />
        </mxCell>
        <mxCell id="4XwBpmDzUFXZfetM7Drz-53" style="edgeStyle=orthogonalEdgeStyle;rounded=0;orthogonalLoop=1;jettySize=auto;html=1;entryX=0.5;entryY=0;entryDx=0;entryDy=0;" edge="1" parent="1" source="4XwBpmDzUFXZfetM7Drz-37" target="4XwBpmDzUFXZfetM7Drz-47">
          <mxGeometry relative="1" as="geometry">
            <Array as="points">
              <mxPoint x="980" y="177" />
            </Array>
          </mxGeometry>
        </mxCell>
        <mxCell id="4XwBpmDzUFXZfetM7Drz-54" value="Publish Tasks" style="edgeLabel;html=1;align=center;verticalAlign=middle;resizable=0;points=[];" vertex="1" connectable="0" parent="4XwBpmDzUFXZfetM7Drz-53">
          <mxGeometry x="-0.3058" y="2" relative="1" as="geometry">
            <mxPoint x="1" y="-12" as="offset" />
          </mxGeometry>
        </mxCell>
        <mxCell id="4XwBpmDzUFXZfetM7Drz-55" style="edgeStyle=orthogonalEdgeStyle;rounded=0;orthogonalLoop=1;jettySize=auto;html=1;entryX=0.997;entryY=0.38;entryDx=0;entryDy=0;entryPerimeter=0;exitX=0;exitY=0.5;exitDx=0;exitDy=0;" edge="1" parent="1" source="4XwBpmDzUFXZfetM7Drz-47" target="4XwBpmDzUFXZfetM7Drz-8">
          <mxGeometry relative="1" as="geometry">
            <Array as="points">
              <mxPoint x="790" y="303" />
              <mxPoint x="790" y="341" />
            </Array>
          </mxGeometry>
        </mxCell>
        <mxCell id="4XwBpmDzUFXZfetM7Drz-56" style="edgeStyle=orthogonalEdgeStyle;rounded=0;orthogonalLoop=1;jettySize=auto;html=1;entryX=1.009;entryY=0.591;entryDx=0;entryDy=0;entryPerimeter=0;" edge="1" parent="1" source="4XwBpmDzUFXZfetM7Drz-48" target="4XwBpmDzUFXZfetM7Drz-9">
          <mxGeometry relative="1" as="geometry">
            <Array as="points">
              <mxPoint x="810" y="503" />
              <mxPoint x="810" y="542" />
            </Array>
          </mxGeometry>
        </mxCell>
        <mxCell id="4XwBpmDzUFXZfetM7Drz-57" value="Consumes Tasks" style="edgeLabel;html=1;align=center;verticalAlign=middle;resizable=0;points=[];" vertex="1" connectable="0" parent="1">
          <mxGeometry x="759.9984210526312" y="353.0026315789475" as="geometry">
            <mxPoint x="-12" y="1" as="offset" />
          </mxGeometry>
        </mxCell>
        <mxCell id="4XwBpmDzUFXZfetM7Drz-58" value="Consumes Tasks" style="edgeLabel;html=1;align=center;verticalAlign=middle;resizable=0;points=[];" vertex="1" connectable="0" parent="1">
          <mxGeometry x="759.9984210526312" y="523.0026315789476" as="geometry">
            <mxPoint x="-12" y="1" as="offset" />
          </mxGeometry>
        </mxCell>
        <mxCell id="4XwBpmDzUFXZfetM7Drz-63" value="" style="group" vertex="1" connectable="0" parent="1">
          <mxGeometry x="155" y="295.5" width="120" height="165" as="geometry" />
        </mxCell>
        <mxCell id="4XwBpmDzUFXZfetM7Drz-64" value="" style="shape=image;verticalLabelPosition=bottom;labelBackgroundColor=default;verticalAlign=top;aspect=fixed;imageAspect=0;image=data:image/svg+xml,PHN2ZyB4bWxucz0iaHR0cDovL3d3dy53My5vcmcvMjAwMC9zdmciIGZpbGw9Im5vbmUiIHZpZXdCb3g9IjAgMCAyNCAyNCIgaGVpZ2h0PSI4MDBweCIgd2lkdGg9IjgwMHB4Ij4mI3hhOzxwYXRoIGZpbGw9IiMxQzI3NEMiIGQ9Ik01LjY4NDM2IDExLjk5OTdDNS42ODQzNiAxMi41ODQ0IDUuMjEzMDkgMTMuMDU4NSA0LjYzMTczIDEzLjA1ODVDNC4wNTAzOCAxMy4wNTg1IDMuNTc5MSAxMi41ODQ0IDMuNTc5MSAxMS45OTk3QzMuNTc5MSAxMS40MTQ5IDQuMDUwMzggMTAuOTQwOCA0LjYzMTczIDEwLjk0MDhDNS4yMTMwOSAxMC45NDA4IDUuNjg0MzYgMTEuNDE0OSA1LjY4NDM2IDExLjk5OTdaIi8+JiN4YTs8cGF0aCBmaWxsPSIjMUMyNzRDIiBkPSJNNS42ODQzNiAxOC4zNTI2QzUuNjg0MzYgMTguOTM3NCA1LjIxMzA5IDE5LjQxMTQgNC42MzE3MyAxOS40MTE0QzQuMDUwMzggMTkuNDExNCAzLjU3OTEgMTguOTM3NCAzLjU3OTEgMTguMzUyNkMzLjU3OTEgMTcuNzY3OCA0LjA1MDM4IDE3LjI5MzggNC42MzE3MyAxNy4yOTM4QzUuMjEzMDkgMTcuMjkzOCA1LjY4NDM2IDE3Ljc2NzggNS42ODQzNiAxOC4zNTI2WiIvPiYjeGE7PHBhdGggZmlsbD0iIzFDMjc0QyIgZD0iTTUuNjg0MzYgNS42NDY3MUM1LjY4NDM2IDYuMjMxNDkgNS4yMTMwOSA2LjcwNTU0IDQuNjMxNzMgNi43MDU1NEM0LjA1MDM4IDYuNzA1NTQgMy41NzkxIDYuMjMxNDkgMy41NzkxIDUuNjQ2NzFDMy41NzkxIDUuMDYxOTQgNC4wNTAzOCA0LjU4Nzg5IDQuNjMxNzMgNC41ODc4OUM1LjIxMzA5IDQuNTg3ODkgNS42ODQzNiA1LjA2MTk0IDUuNjg0MzYgNS42NDY3MVoiLz4mI3hhOzxnIG9wYWNpdHk9IjAuNSI+JiN4YTs8cGF0aCBmaWxsPSIjMUMyNzRDIiBkPSJNMy41MTU1IDE1LjcyNDhDMy43ODcwMiAxNS43MDYyIDQuMTMzOTEgMTUuNzA1OSA0LjYzMTU4IDE1LjcwNTlIMTkuMzY4NEMxOS44NjYxIDE1LjcwNTkgMjAuMjEzIDE1LjcwNjIgMjAuNDg0NSAxNS43MjQ4QzIwLjc1MTMgMTUuNzQzMSAyMC45MDY3IDE1Ljc3NzQgMjEuMDI1MyAxNS44MjY4QzIxLjQxMjIgMTUuOTg4IDIxLjcxOTYgMTYuMjk3MiAyMS44Nzk4IDE2LjY4NjNDMjEuOTI4OSAxNi44MDU2IDIxLjk2MyAxNi45NjE5IDIxLjk4MTIgMTcuMjMwM0MyMS45OTk3IDE3LjUwMzQgMjIgMTcuODUyMyAyMiAxOC4zNTI5QzIyIDE4Ljg1MzUgMjEuOTk5NyAxOS4yMDI1IDIxLjk4MTIgMTkuNDc1NkMyMS45NjMgMTkuNzQ0IDIxLjkyODkgMTkuOTAwMiAyMS44Nzk4IDIwLjAxOTZDMjEuNzE5NiAyMC40MDg3IDIxLjQxMjIgMjAuNzE3OSAyMS4wMjUzIDIwLjg3OTFDMjAuOTA2NyAyMC45Mjg1IDIwLjc1MTMgMjAuOTYyOCAyMC40ODQ1IDIwLjk4MTFDMjAuMjEzIDIwLjk5OTcgMTkuODY2MSAyMSAxOS4zNjg0IDIxSDQuNjMxNThDNC4xMzM5MSAyMSAzLjc4NzAyIDIwLjk5OTcgMy41MTU1IDIwLjk4MTFDMy4yNDg3IDIwLjk2MjggMy4wOTMzMyAyMC45Mjg1IDIuOTc0NzEgMjAuODc5MUMyLjU4NzgyIDIwLjcxNzkgMi4yODA0NCAyMC40MDg3IDIuMTIwMTkgMjAuMDE5NkMyLjA3MTA1IDE5LjkwMDIgMi4wMzcwMSAxOS43NDQgMi4wMTg4MSAxOS40NzU2QzIuMDAwMjggMTkuMjAyNSAyIDE4Ljg1MzUgMiAxOC4zNTI5QzIgMTcuODUyMyAyLjAwMDI4IDE3LjUwMzQgMi4wMTg4MSAxNy4yMzAzQzIuMDM3MDEgMTYuOTYxOSAyLjA3MTA1IDE2LjgwNTYgMi4xMjAxOSAxNi42ODYzQzIuMjgwNDQgMTYuMjk3MiAyLjU4NzgyIDE1Ljk4OCAyLjk3NDcxIDE1LjgyNjhDMy4wOTMzMyAxNS43Nzc0IDMuMjQ4NyAxNS43NDMxIDMuNTE1NSAxNS43MjQ4Wk00LjYzMTU4IDE5LjQxMThDNS4yMTI5MyAxOS40MTE4IDUuNjg0MjEgMTguOTM3NyA1LjY4NDIxIDE4LjM1MjlDNS42ODQyMSAxNy43NjgyIDUuMjEyOTMgMTcuMjk0MSA0LjYzMTU4IDE3LjI5NDFDNC4wNTAyMyAxNy4yOTQxIDMuNTc4OTUgMTcuNzY4MiAzLjU3ODk1IDE4LjM1MjlDMy41Nzg5NSAxOC45Mzc3IDQuMDUwMjMgMTkuNDExOCA0LjYzMTU4IDE5LjQxMThaIiBjbGlwLXJ1bGU9ImV2ZW5vZGQiIGZpbGwtcnVsZT0iZXZlbm9kZCIvPiYjeGE7PHBhdGggZmlsbD0iIzFDMjc0QyIgZD0iTTQuNjMxNTggOC4yOTQxMkM0LjEzMzkxIDguMjk0MTIgMy43ODcwMiA4LjI5MzgzIDMuNTE1NSA4LjI3NTJDMy4yNDg3IDguMjU2ODkgMy4wOTMzMyA4LjIyMjY0IDIuOTc0NzEgOC4xNzMyMkMyLjU4NzgyIDguMDEyMDIgMi4yODA0NCA3LjcwMjg0IDIuMTIwMTkgNy4zMTM2N0MyLjA3MTA1IDcuMTk0MzUgMi4wMzcwMSA3LjAzODA3IDIuMDE4ODEgNi43Njk3QzIuMDAwMjggNi40OTY1OCAyIDYuMTQ3NjUgMiA1LjY0NzA2QzIgNS4xNDY0NyAyLjAwMDI4IDQuNzk3NTMgMi4wMTg4MSA0LjUyNDQxQzIuMDM3MDEgNC4yNTYwNSAyLjA3MTA1IDQuMDk5NzcgMi4xMjAxOSAzLjk4MDQ0QzIuMjgwNDQgMy41OTEyOCAyLjU4NzgyIDMuMjgyMDkgMi45NzQ3MSAzLjEyMDlDMy4wOTMzMyAzLjA3MTQ3IDMuMjQ4NyAzLjAzNzIzIDMuNTE1NSAzLjAxODkyQzMuNzg3MDIgMy4wMDAyOSA0LjEzMzkxIDMgNC42MzE1OCAzSDE5LjM2ODRDMTkuODY2MSAzIDIwLjIxMyAzLjAwMDI5IDIwLjQ4NDUgMy4wMTg5MkMyMC43NTEzIDMuMDM3MjMgMjAuOTA2NyAzLjA3MTQ3IDIxLjAyNTMgMy4xMjA5QzIxLjQxMjIgMy4yODIwOSAyMS43MTk2IDMuNTkxMjggMjEuODc5OCAzLjk4MDQ0QzIxLjkyODkgNC4wOTk3NyAyMS45NjMgNC4yNTYwNSAyMS45ODEyIDQuNTI0NDFDMjEuOTk5NyA0Ljc5NzUzIDIyIDUuMTQ2NDcgMjIgNS42NDcwNkMyMiA2LjE0NzY1IDIxLjk5OTcgNi40OTY1OCAyMS45ODEyIDYuNzY5N0MyMS45NjMgNy4wMzgwNyAyMS45Mjg5IDcuMTk0MzUgMjEuODc5OCA3LjMxMzY3QzIxLjcxOTYgNy43MDI4NCAyMS40MTIyIDguMDEyMDIgMjEuMDI1MyA4LjE3MzIyQzIwLjkwNjcgOC4yMjI2NCAyMC43NTEzIDguMjU2ODkgMjAuNDg0NSA4LjI3NTJDMjAuMjEzIDguMjkzODMgMTkuODY2MSA4LjI5NDEyIDE5LjM2ODQgOC4yOTQxMkg0LjYzMTU4Wk00LjYzMTU4IDkuMzUyOTRDNC4xMzM5MSA5LjM1Mjk0IDMuNzg3MDIgOS4zNTMyMyAzLjUxNTUgOS4zNzE4NkMzLjI0ODcgOS4zOTAxNyAzLjA5MzMzIDkuNDI0NDEgMi45NzQ3MSA5LjQ3Mzg0QzIuNTg3ODIgOS42MzUwMyAyLjI4MDQ0IDkuOTQ0MjIgMi4xMjAxOSAxMC4zMzM0QzIuMDcxMDUgMTAuNDUyNyAyLjAzNzAxIDEwLjYwOSAyLjAxODgxIDEwLjg3NzRDMi4wMDAyOCAxMS4xNTA1IDIgMTEuNDk5NCAyIDEyQzIgMTIuNTAwNiAyLjAwMDI4IDEyLjg0OTUgMi4wMTg4MSAxMy4xMjI2QzIuMDM3MDEgMTMuMzkxIDIuMDcxMDUgMTMuNTQ3MyAyLjEyMDE5IDEzLjY2NjZDMi4yODA0NCAxNC4wNTU4IDIuNTg3ODIgMTQuMzY1IDIuOTc0NzEgMTQuNTI2MkMzLjA5MzMzIDE0LjU3NTYgMy4yNDg3IDE0LjYwOTggMy41MTU1IDE0LjYyODFDMy43ODcwMiAxNC42NDY4IDQuMTMzOTEgMTQuNjQ3MSA0LjYzMTU4IDE0LjY0NzFIMTkuMzY4NEMxOS44NjYxIDE0LjY0NzEgMjAuMjEzIDE0LjY0NjggMjAuNDg0NSAxNC42MjgxQzIwLjc1MTMgMTQuNjA5OCAyMC45MDY3IDE0LjU3NTYgMjEuMDI1MyAxNC41MjYyQzIxLjQxMjIgMTQuMzY1IDIxLjcxOTYgMTQuMDU1OCAyMS44Nzk4IDEzLjY2NjZDMjEuOTI4OSAxMy41NDczIDIxLjk2MyAxMy4zOTEgMjEuOTgxMiAxMy4xMjI2QzIxLjk5OTcgMTIuODQ5NSAyMiAxMi41MDA2IDIyIDEyQzIyIDExLjQ5OTQgMjEuOTk5NyAxMS4xNTA1IDIxLjk4MTIgMTAuODc3NEMyMS45NjMgMTAuNjA5IDIxLjkyODkgMTAuNDUyNyAyMS44Nzk4IDEwLjMzMzRDMjEuNzE5NiA5Ljk0NDIyIDIxLjQxMjIgOS42MzUwMyAyMS4wMjUzIDkuNDczODRDMjAuOTA2NyA5LjQyNDQxIDIwLjc1MTMgOS4zOTAxNyAyMC40ODQ1IDkuMzcxODZDMjAuMjEzIDkuMzUzMjMgMTkuODY2MSA5LjM1Mjk0IDE5LjM2ODQgOS4zNTI5NEg0LjYzMTU4Wk01LjY4NDIxIDEyQzUuNjg0MjEgMTIuNTg0OCA1LjIxMjkzIDEzLjA1ODggNC42MzE1OCAxMy4wNTg4QzQuMDUwMjMgMTMuMDU4OCAzLjU3ODk1IDEyLjU4NDggMy41Nzg5NSAxMkMzLjU3ODk1IDExLjQxNTIgNC4wNTAyMyAxMC45NDEyIDQuNjMxNTggMTAuOTQxMkM1LjIxMjkzIDEwLjk0MTIgNS42ODQyMSAxMS40MTUyIDUuNjg0MjEgMTJaTTQuNjMxNTggNi43MDU4OEM1LjIxMjkzIDYuNzA1ODggNS42ODQyMSA2LjIzMTgzIDUuNjg0MjEgNS42NDcwNkM1LjY4NDIxIDUuMDYyMjkgNS4yMTI5MyA0LjU4ODI0IDQuNjMxNTggNC41ODgyNEM0LjA1MDIzIDQuNTg4MjQgMy41Nzg5NSA1LjA2MjI5IDMuNTc4OTUgNS42NDcwNkMzLjU3ODk1IDYuMjMxODMgNC4wNTAyMyA2LjcwNTg4IDQuNjMxNTggNi43MDU4OFoiIGNsaXAtcnVsZT0iZXZlbm9kZCIgZmlsbC1ydWxlPSJldmVub2RkIi8+JiN4YTs8L2c+JiN4YTs8L3N2Zz4=;" vertex="1" parent="4XwBpmDzUFXZfetM7Drz-63">
          <mxGeometry width="110" height="110" as="geometry" />
        </mxCell>
        <mxCell id="4XwBpmDzUFXZfetM7Drz-66" value="&lt;b&gt;ITS Naos FTP&amp;nbsp;&lt;/b&gt;&lt;div&gt;&lt;b&gt;Server&lt;/b&gt;&lt;/div&gt;" style="text;html=1;align=center;verticalAlign=middle;resizable=0;points=[];autosize=1;strokeColor=none;fillColor=none;" vertex="1" parent="4XwBpmDzUFXZfetM7Drz-63">
          <mxGeometry x="5" y="125" width="100" height="40" as="geometry" />
        </mxCell>
        <mxCell id="4XwBpmDzUFXZfetM7Drz-68" value="" style="shape=image;verticalLabelPosition=bottom;labelBackgroundColor=default;verticalAlign=top;aspect=fixed;imageAspect=0;image=data:image/svg+xml,PHN2ZyB4bWxucz0iaHR0cDovL3d3dy53My5vcmcvMjAwMC9zdmciIHZlcnNpb249IjEuMSIgY2xhc3M9Imljb24iIHZpZXdCb3g9IjAgMCAxMDI0IDEwMjQiIGhlaWdodD0iODAwcHgiIHdpZHRoPSI4MDBweCI+PHBhdGggZmlsbD0iI0ZGQTAwMCIgZD0iTTg1My4zMzMzMzMgMjU2SDQ2OS4zMzMzMzNsLTg1LjMzMzMzMy04NS4zMzMzMzNIMTcwLjY2NjY2N2MtNDYuOTMzMzMzIDAtODUuMzMzMzMzIDM4LjQtODUuMzMzMzM0IDg1LjMzMzMzM3YxNzAuNjY2NjY3aDg1My4zMzMzMzR2LTg1LjMzMzMzNGMwLTQ2LjkzMzMzMy0zOC40LTg1LjMzMzMzMy04NS4zMzMzMzQtODUuMzMzMzMzeiIvPjxwYXRoIGZpbGw9IiNGRkNBMjgiIGQ9Ik04NTMuMzMzMzMzIDI1NkgxNzAuNjY2NjY3Yy00Ni45MzMzMzMgMC04NS4zMzMzMzMgMzguNC04NS4zMzMzMzQgODUuMzMzMzMzdjQyNi42NjY2NjdjMCA0Ni45MzMzMzMgMzguNCA4NS4zMzMzMzMgODUuMzMzMzM0IDg1LjMzMzMzM2g2ODIuNjY2NjY2YzQ2LjkzMzMzMyAwIDg1LjMzMzMzMy0zOC40IDg1LjMzMzMzNC04NS4zMzMzMzNWMzQxLjMzMzMzM2MwLTQ2LjkzMzMzMy0zOC40LTg1LjMzMzMzMy04NS4zMzMzMzQtODUuMzMzMzMzeiIvPjwvc3ZnPg==;" vertex="1" parent="4XwBpmDzUFXZfetM7Drz-63">
          <mxGeometry x="60" y="65" width="60" height="60" as="geometry" />
        </mxCell>
        <mxCell id="4XwBpmDzUFXZfetM7Drz-67" value="" style="group" vertex="1" connectable="0" parent="1">
          <mxGeometry x="150" y="93" width="130" height="150" as="geometry" />
        </mxCell>
        <mxCell id="4XwBpmDzUFXZfetM7Drz-61" value="" style="shape=image;verticalLabelPosition=bottom;labelBackgroundColor=default;verticalAlign=top;aspect=fixed;imageAspect=0;image=data:image/svg+xml,PHN2ZyB4bWxucz0iaHR0cDovL3d3dy53My5vcmcvMjAwMC9zdmciIGZpbGw9Im5vbmUiIHZpZXdCb3g9IjAgMCAyNCAyNCIgaGVpZ2h0PSI4MDBweCIgd2lkdGg9IjgwMHB4Ij4mI3hhOzxwYXRoIGZpbGw9IiMxQzI3NEMiIGQ9Ik0xMiAxMEMxNi40MTgzIDEwIDIwIDguMjA5MTQgMjAgNkMyMCAzLjc5MDg2IDE2LjQxODMgMiAxMiAyQzcuNTgxNzIgMiA0IDMuNzkwODYgNCA2QzQgOC4yMDkxNCA3LjU4MTcyIDEwIDEyIDEwWiIvPiYjeGE7PHBhdGggZmlsbD0iIzFDMjc0QyIgZD0iTTQgMTJWMThDNCAyMC4yMDkxIDcuNTgxNzIgMjIgMTIgMjJDMTYuNDE4MyAyMiAyMCAyMC4yMDkxIDIwIDE4VjEyQzIwIDE0LjIwOTEgMTYuNDE4MyAxNiAxMiAxNkM3LjU4MTcyIDE2IDQgMTQuMjA5MSA0IDEyWiIgb3BhY2l0eT0iMC41Ii8+JiN4YTs8cGF0aCBmaWxsPSIjMUMyNzRDIiBkPSJNNCA2VjEyQzQgMTQuMjA5MSA3LjU4MTcyIDE2IDEyIDE2QzE2LjQxODMgMTYgMjAgMTQuMjA5MSAyMCAxMlY2QzIwIDguMjA5MTQgMTYuNDE4MyAxMCAxMiAxMEM3LjU4MTcyIDEwIDQgOC4yMDkxNCA0IDZaIiBvcGFjaXR5PSIwLjciLz4mI3hhOzwvc3ZnPg==;" vertex="1" parent="4XwBpmDzUFXZfetM7Drz-67">
          <mxGeometry width="120" height="120" as="geometry" />
        </mxCell>
        <mxCell id="4XwBpmDzUFXZfetM7Drz-62" value="ITS Database" style="text;html=1;align=center;verticalAlign=middle;resizable=0;points=[];autosize=1;strokeColor=none;fillColor=none;" vertex="1" parent="4XwBpmDzUFXZfetM7Drz-67">
          <mxGeometry x="5" y="120" width="100" height="30" as="geometry" />
        </mxCell>
        <mxCell id="4XwBpmDzUFXZfetM7Drz-60" value="" style="shape=image;verticalLabelPosition=bottom;labelBackgroundColor=default;verticalAlign=top;aspect=fixed;imageAspect=0;image=data:image/svg+xml,PHN2ZyB4bWxuczp4bGluaz0iaHR0cDovL3d3dy53My5vcmcvMTk5OS94bGluayIgeG1sbnM9Imh0dHA6Ly93d3cudzMub3JnLzIwMDAvc3ZnIiB2aWV3Qm94PSIwIDAgMzIgMzIiIGhlaWdodD0iODAwcHgiIHdpZHRoPSI4MDBweCI+PGRlZnM+PGxpbmVhckdyYWRpZW50IGdyYWRpZW50VW5pdHM9InVzZXJTcGFjZU9uVXNlIiBncmFkaWVudFRyYW5zZm9ybT0ibWF0cml4KC0wLjk3NywgLTAuMzIzLCAtMC4yOSwgMC44NzcsIC0zNzUuOTQ0LCAtOTI4LjI4NykiIHkyPSI4MzkuMjUiIHgyPSItNjU0LjU5IiB5MT0iODM5LjE4OCIgeDE9Ii02NDUuNzMyIiBpZD0iYSI+PHN0b3Agc3RvcC1jb2xvcj0iIzk5OTg3NSIgb2Zmc2V0PSIwLjIzMSIvPjxzdG9wIHN0b3AtY29sb3I9IiM5Yjk5NzciIG9mZnNldD0iMC41NjMiLz48c3RvcCBzdG9wLWNvbG9yPSIjYTA5ZjdlIiBvZmZzZXQ9IjAuNjgzIi8+PHN0b3Agc3RvcC1jb2xvcj0iI2E5YTg4OSIgb2Zmc2V0PSIwLjc2OCIvPjxzdG9wIHN0b3AtY29sb3I9IiNiN2I2OWEiIG9mZnNldD0iMC44MzciLz48c3RvcCBzdG9wLWNvbG9yPSIjYzljN2IwIiBvZmZzZXQ9IjAuODk2Ii8+PHN0b3Agc3RvcC1jb2xvcj0iI2RlZGRjYiIgb2Zmc2V0PSIwLjk0OCIvPjxzdG9wIHN0b3AtY29sb3I9IiNmOGY2ZWIiIG9mZnNldD0iMC45OTQiLz48c3RvcCBzdG9wLWNvbG9yPSIjZmJmOWVmIiBvZmZzZXQ9IjEiLz48L2xpbmVhckdyYWRpZW50PjxsaW5lYXJHcmFkaWVudCBncmFkaWVudFVuaXRzPSJ1c2VyU3BhY2VPblVzZSIgZ3JhZGllbnRUcmFuc2Zvcm09Im1hdHJpeCgtMC45NzcsIC0wLjMyMywgLTAuMjksIDAuODc3LCAtMzc1Ljk0NCwgLTkyOC4yODcpIiB5Mj0iODQ1LjQ3NiIgeDI9Ii02NTcuMDI4IiB5MT0iODIzLjQwNSIgeDE9Ii02NDQuMjg3IiBpZD0iYiI+PHN0b3Agc3RvcC1jb2xvcj0iIzQ4YTU0NyIgb2Zmc2V0PSIwIi8+PHN0b3Agc3RvcC1jb2xvcj0iIzNmOTE0MyIgb2Zmc2V0PSIxIi8+PC9saW5lYXJHcmFkaWVudD48bGluZWFyR3JhZGllbnQgZ3JhZGllbnRVbml0cz0idXNlclNwYWNlT25Vc2UiIGdyYWRpZW50VHJhbnNmb3JtPSJtYXRyaXgoLTAuOTc3LCAtMC4zMjMsIC0wLjI5LCAwLjg3NywgLTM3NS45NDQsIC05MjguMjg3KSIgeTI9IjgzMy40MTciIHgyPSItNjUyLjQxOCIgeTE9IjgzOS40ODUiIHgxPSItNjQzLjM4NiIgaWQ9ImMiPjxzdG9wIHN0b3AtY29sb3I9IiM0MWEyNDciIG9mZnNldD0iMCIvPjxzdG9wIHN0b3AtY29sb3I9IiM0YmE3NGIiIG9mZnNldD0iMC4zNTIiLz48c3RvcCBzdG9wLWNvbG9yPSIjNjdiNTU0IiBvZmZzZXQ9IjAuOTU2Ii8+PHN0b3Agc3RvcC1jb2xvcj0iIzY5YjY1NSIgb2Zmc2V0PSIxIi8+PC9saW5lYXJHcmFkaWVudD48L2RlZnM+PHRpdGxlPmZpbGVfdHlwZV9tb25nbzwvdGl0bGU+PHBhdGggc3R5bGU9ImZpbGw6dXJsKCNhKSIgZD0iTTE2LjYyLDMwbC0uNzUxLS4yNDlzLjEtMy44LTEuMjc1LTQuMDY3Yy0uOS0xLjA0OC4xMzMtNDQuNzQxLDMuNDIzLS4xNDlhMi43MTIsMi43MTIsMCwwLDAtMS4zMzMsMS41MjNBMTQuMSwxNC4xLDAsMCwwLDE2LjYyLDMwWiIvPjxwYXRoIHN0eWxlPSJmaWxsOnVybCgjYikiIGQ9Ik0xNy4wMjYsMjYuMzI5YTEzLjIyMywxMy4yMjMsMCwwLDAsNS0xMy4yMjVDMjAuNTU2LDYuNjE5LDE3LjA3NSw0LjQ4NywxNi43LDMuNjczYTkuNzkyLDkuNzkyLDAsMCwxLS44MjUtMS42bC4yNzcsMTguMDY5UzE1LjU3OCwyNS42NjQsMTcuMDI2LDI2LjMyOVoiLz48cGF0aCBzdHlsZT0iZmlsbDp1cmwoI2MpIiBkPSJNMTUuNDg3LDI2LjU2OVM5LjM2NiwyMi40LDkuNzIsMTUuMDI1QTE1LjU0LDE1LjU0LDAsMCwxLDE1LjIzOSwzLjM3NywxLjcyNSwxLjcyNSwwLDAsMCwxNS44NDYsMmMuMzgxLjgyLjMxOSwxMi4yNDMuMzU5LDEzLjU3OUMxNi4zNiwyMC43NzYsMTUuOTE2LDI1LjU4OCwxNS40ODcsMjYuNTY5WiIvPjwvc3ZnPg==;" vertex="1" parent="4XwBpmDzUFXZfetM7Drz-67">
          <mxGeometry x="70" y="70" width="60" height="60" as="geometry" />
        </mxCell>
        <mxCell id="4XwBpmDzUFXZfetM7Drz-70" style="edgeStyle=orthogonalEdgeStyle;rounded=0;orthogonalLoop=1;jettySize=auto;html=1;entryX=1;entryY=0.25;entryDx=0;entryDy=0;exitX=0;exitY=0.5;exitDx=0;exitDy=0;endArrow=block;endFill=1;targetPerimeterSpacing=6;startArrow=block;startFill=1;" edge="1" parent="1" source="4XwBpmDzUFXZfetM7Drz-8" target="4XwBpmDzUFXZfetM7Drz-60">
          <mxGeometry relative="1" as="geometry" />
        </mxCell>
        <mxCell id="4XwBpmDzUFXZfetM7Drz-72" value="Fetches the data" style="edgeLabel;html=1;align=center;verticalAlign=middle;resizable=0;points=[];" vertex="1" connectable="0" parent="4XwBpmDzUFXZfetM7Drz-70">
          <mxGeometry x="-0.0876" y="-2" relative="1" as="geometry">
            <mxPoint x="-57" y="-116" as="offset" />
          </mxGeometry>
        </mxCell>
        <mxCell id="4XwBpmDzUFXZfetM7Drz-74" value="" style="shape=image;verticalLabelPosition=bottom;labelBackgroundColor=default;verticalAlign=top;aspect=fixed;imageAspect=0;image=data:image/svg+xml,PHN2ZyB4bWxuczp4bGluaz0iaHR0cDovL3d3dy53My5vcmcvMTk5OS94bGluayIgeG1sbnM9Imh0dHA6Ly93d3cudzMub3JnLzIwMDAvc3ZnIiBwcmVzZXJ2ZUFzcGVjdFJhdGlvPSJ4TWlkWU1pZCBtZWV0IiBjbGFzcz0iaWNvbmlmeSBpY29uaWZ5LS1ub3RvIiByb2xlPSJpbWciIGFyaWEtaGlkZGVuPSJ0cnVlIiB2aWV3Qm94PSIwIDAgMTI4IDEyOCIgaGVpZ2h0PSI4MDBweCIgd2lkdGg9IjgwMHB4Ij4mI3hhOyYjeGE7PHBhdGggZD0iTS0xODMuOTcgMjQ4LjhoMzAyLjMzdjE2OS4xMmgtMzAyLjMzeiIgZmlsbD0iI2ZmZmZmZiI+JiN4YTsmI3hhOzwvcGF0aD4mI3hhOyYjeGE7PHBhdGggZmlsbD0iI2RlYTY2YyIgZD0iTTYyLjU0IDQuODRMMTAuMzggMzEuNzNjLTEuMTQuNjctMS40NyAxLjY3LTEuNDYgMy4xMmwuMSAxLjgxTDY0LjA5IDY0LjlsNTQuOTQtMjcuNzlzLjA2LS4yOC4wNi0xLjI2YzAgMC0uMDUtMS4yOS0uMzQtMS44OWMtLjMyLS42OC0xLTEuMjktMS40NC0xLjY2Yy0xLjE3LS45Ny0yLjM0LTEuODMtNC4zMy0yLjk1Qzg0LjQ1IDEzLjIyIDY1LjY5IDQuOTEgNjUuNjkgNC45MWMtMS4yMS0uNDUtMi4yMS0uNjEtMy4xNS0uMDd6Ij4mI3hhOyYjeGE7PC9wYXRoPiYjeGE7JiN4YTs8cGF0aCBmaWxsPSIjYjM4MjUxIiBkPSJNOS43NCA5Ni4xNmMzLjA0IDIuMDEgOC41OSA0LjY1IDE0LjIgNy42OWMxMy4wNCA3LjA2IDI5LjUyIDE1LjY0IDM3LjcyIDE5LjAxYzEuMTEuNDYgMS43Ny42OCAyLjU0LjcyYy41Ny4wMyAxLjUxLS4zNSAxLjUxLS4zNXMtMS41My01NS4xOS0xLjYyLTU4LjM0Yy0uMDktMy4wOC0xLjM4LTQuMS0yLjUyLTQuODRjLTEuNzgtMS4xNC01LjY0LTIuOTItNS42NC0yLjkycy0xMy41Mi02LjcyLTI3LjAyLTEzLjhjLTYuNDItMy4zNy0xMS44NC02LjgyLTE3LjY3LTkuNjZjLTEuMDctLjUxLTIuMzMuMTMtMi4zMyAxLjMzdjU5LjhjMCAuNTcuMzUgMS4wNS44MyAxLjM2eiI+JiN4YTsmI3hhOzwvcGF0aD4mI3hhOyYjeGE7PHBhdGggZmlsbD0iIzk2NjIzOSIgZD0iTTExNy41OCA5Ni41MUw2NS44MiAxMjMuMmMtLjgzLjQzLTEuODItLjE3LTEuODItMS4xMWwuMDktNTcuMThjMC0uNTUtLjE3LTEuNzYtLjM0LTIuMjRjLS40Ny0xLjQuNTUtMS45NiAxLjAxLTIuMTlsNTEuMzQtMjYuNDRjMS4zNi0uNyAyLjk5LjI5IDIuOTkgMS44MnY1OC4xOWMwIDEuMDMtLjU4IDEuOTgtMS41MSAyLjQ2eiI+JiN4YTsmI3hhOzwvcGF0aD4mI3hhOyYjeGE7PHBhdGggZmlsbD0iIzIxMjEyMSIgb3BhY2l0eT0iLjUiIGQ9Ik05NC40NiA0Ny41OVM2Ni4wOSA2Mi4xIDY1LjYzIDYzLjMzYy0uNDYgMS4yMiAyMi4yNi05LjcgMjQuOTItMTEuMDdjMy4wMS0xLjU1IDI2LjY1LTE0LjE5IDI2LjY1LTE1LjU4Yy4wMS0xLjE0LTIyLjc0IDEwLjkxLTIyLjc0IDEwLjkxeiI+JiN4YTsmI3hhOzwvcGF0aD4mI3hhOyYjeGE7PGcgb3BhY2l0eT0iLjUiPiYjeGE7JiN4YTs8cGF0aCBmaWxsPSIjMjEyMTIxIiBkPSJNMTIuODEgOTIuODVjMy42OSAxLjg2IDcuMzUgMy43OCAxMS45MSA2LjExdi0xLjc4Yy00LjU0LTIuMzItOC4yMS00LjIzLTExLjkxLTYuMTF2MS43OHoiPiYjeGE7JiN4YTs8L3BhdGg+JiN4YTsmI3hhOzxwYXRoIGZpbGw9IiMyMTIxMjEiIGQ9Ik0yMC41OCA5My42NmMxLjA0LjUzIDEuNTYuOCAyLjU0IDEuM2MuMDEtMy4xLjAxLTQuNjUuMDItNy43NWMtLjk4LS41LTEuNDktLjc2LTIuNTItMS4yOWMtLjAyIDMuMS0uMDMgNC42NC0uMDQgNy43NHoiPiYjeGE7JiN4YTs8L3BhdGg+JiN4YTsmI3hhOzxwYXRoIGZpbGw9IiMyMTIxMjEiIGQ9Ik0xNC4xMiA5MC4zNGMuODYuNDQgMS4zNC42OSAyLjMyIDEuMTlsLjA1LTcuNzJjLS45OS0uNTEtMS40Ny0uNzUtMi4zNC0xLjIxYy0uMDEgMy4xLS4wMiA0LjY1LS4wMyA3Ljc0eiI+JiN4YTsmI3hhOzwvcGF0aD4mI3hhOyYjeGE7PHBhdGggZmlsbD0iIzIxMjEyMSIgZD0iTTE4Ljk1IDg1Ljk5YzIuMzcgMS4yMSAzLjYzIDEuODYgNS43MiAyLjkyYy0xLjA0LTEuODktMS42MS0yLjg1LTIuNzUtNC43OWMtMS4xNy43Ni0xLjc4IDEuMTMtMi45NyAxLjg3eiI+JiN4YTsmI3hhOzwvcGF0aD4mI3hhOyYjeGE7PHBhdGggZmlsbD0iIzIxMjEyMSIgZD0iTTEyLjgxIDgyLjg0YzEuNzcuOTIgMi45NiAxLjUzIDUuMyAyLjczYy0xLjE2LTEuOTUtMS43NC0yLjkyLTIuODEtNC44M2MtMS4wOS43OS0xLjYgMS4yLTIuNDkgMi4xeiI+JiN4YTsmI3hhOzwvcGF0aD4mI3hhOyYjeGE7PC9nPiYjeGE7JiN4YTs8ZyBvcGFjaXR5PSIuNSI+JiN4YTsmI3hhOzxwYXRoIGZpbGw9IiMyMTIxMjEiIGQ9Ik0zMS44MSAxMDEuNGMuODMuNDMgMS4yNi42NiAyLjA5IDEuMDljLS4wNi0zLjY4LS4wOS01LjUyLS4xNi05LjJjLS44LS40Mi0xLjItLjYzLTItMS4wNGMuMDMgMy42Ni4wNCA1LjQ5LjA3IDkuMTV6Ij4mI3hhOyYjeGE7PC9wYXRoPiYjeGE7JiN4YTs8cGF0aCBmaWxsPSIjMjEyMTIxIiBkPSJNMjguNzYgMTAwLjc1YzMuMDQgMS42IDUuNCAyLjggOC4zMiA0LjM2Yy0uMDItMS4wNS0uODMtMi4zMi0xLjkzLTIuOTFjLTEuNzItLjkxLTIuNy0xLjQxLTQuNDQtMi4zMmMtMS4xMi0uNTctMS45NS0uMTYtMS45NS44N3oiPiYjeGE7JiN4YTs8L3BhdGg+JiN4YTsmI3hhOzxwYXRoIGZpbGw9IiMyMTIxMjEiIGQ9Ik0zNC41NSA5MC4zNmwxLjI4IDIuNzFjLS40Ljg1LS42MSAxLjI4LTEuMDMgMi4xMmMuMzYtLjAzLjU0LS4wNC45LS4wN2MuNDgtLjY0LjcyLS45NiAxLjE4LTEuNmMtLjQyLS45OS0uNjQtMS40OS0xLjA4LTIuNDhjMS4yMi42NyAxLjgyIDEuMDEgMi45MyAxLjY2YzAgMy41OC0yLjM0IDUuMTYtNS44NiAzLjMyYy0zLjUyLTEuODMtNS44NS01LjkyLTUuODUtOS41MWMyLjYyIDEuMzEgNC4zOCAyLjE3IDcuNTMgMy44NXoiPiYjeGE7JiN4YTs8L3BhdGg+JiN4YTsmI3hhOzwvZz4mI3hhOyYjeGE7PHBhdGggZmlsbD0iI2ZmZTBiMiIgZD0iTTEwMC43NCA0MS40OWMtLjUtLjM3LTU0LjE5LTI4LjQyLTU0LjE5LTI4LjQybC0xNi42NiA4LjYxbDU1LjA1IDI4LjM5bC4wMy4wM2wxNi4xMS04LjI1cy0uMDMtLjA4LS4xMi0uMThjLS4wNy0uMDYtLjE5LS4xNS0uMjItLjE4eiI+JiN4YTsmI3hhOzwvcGF0aD4mI3hhOyYjeGE7PHBhdGggZmlsbD0iI2JmOWY4NSIgZD0iTTEwMSA0MS43M2MtOS4xMiA0LjQ5LTE2LjA2IDguMzQtMTYuMDYgOC4zNGMuMjMuMjMuMjQuNTMuMjQuNjhjLS4wMyAxLjE2LS4wNSAyLjA4LS4wOCAzLjIzYy0uMTQgNS45NS0uMjIgMTEuOTEtLjQyIDE3Ljg2Yy42Ny0uNCAxLjQ4LjQ4IDIuMDkgMGMuOTQtLjc0IDIuOTQtNCAzLjI0LTQuMWMuNC0uMTMuODMtLjAzIDEuMjQtLjA1YzEuOC0uMSA1LjgzLTMuNzcgNi42OS0zLjk0Yy44My0uMTYgMy41Ny4zNyAzLjU3LjM3cy0uMTktMTguMTUtLjI2LTIxLjJjLS4wMi0xLjA4LS4yNS0xLjE5LS4yNS0xLjE5eiI+JiN4YTsmI3hhOzwvcGF0aD4mI3hhOyYjeGE7PHBhdGggZmlsbD0iI2RlYTY2YyIgZD0iTS05OC43MyA0Ljg0bC01MS44MyAyNi42OGMtMi41MiAxLjQ4LTEuOCA1LjA5LTEuOCA1LjA5bDU1LjE3IDI4LjNsNTUuMDctMjcuODZjLjA1LS4xNy4xMS0xLjIxLS4xNS0zLjE5Yy0uMTQtMS4wNC0zLjI1LTIuOTQtNi4wMy00LjUxQy03Ni44MiAxMy4yMi05NS41OCA0LjkxLTk1LjU4IDQuOTFjLTEuMjEtLjQ1LTIuMi0uNjEtMy4xNS0uMDd6Ij4mI3hhOyYjeGE7PC9wYXRoPiYjeGE7JiN4YTs8cGF0aCBmaWxsPSIjYmY4MDQ5IiBkPSJNLTE1MS41MyA5Ni4xNmMzLjA0IDIuMDEgOC41OSA0LjY1IDE0LjIgNy42OWMxMy4wNCA3LjA2IDI5LjUyIDE1LjY0IDM3LjcyIDE5LjAxYzIuNDUgMS4wMSAzLjc1LjUxIDMuNzUuNTFzLTEuMTUtNTYuMy0xLjExLTU5LjQ1Yy4wMi0xLjMyLTEuNTktMy4xMi0yLjc0LTMuODZjLTEuNzgtMS4xNC01LjY0LTIuOTItNS42NC0yLjkycy0xMy41Mi02LjcyLTI3LjAyLTEzLjhjLTYuNDItMy4zNy0xMS44NC02LjgyLTE3LjY3LTkuNjZjLTEuMDYtLjUyLTIuMzMuMTItMi4zMiAxLjMxdjU5LjhjMCAuNTguMzYgMS4wNi44MyAxLjM3eiI+JiN4YTsmI3hhOzwvcGF0aD4mI3hhOyYjeGE7PHBhdGggZmlsbD0iIzllNjczYyIgZD0iTS00My42OSA5Ni41MWwtNTEuNzYgMjYuNjljLS44My40My0xLjgyLS4xNy0xLjgyLTEuMTFsLjA5LTU3LjE4YzAtLjU1LS40MS0xLjk4LS41Ni0yLjQ4Yy0uMTQtLjUuMzUtMS41MS44MS0xLjc0bDUxLjc2LTI2LjY2YzEuMzYtLjcgMi45OS4yOSAyLjk5IDEuODJ2NTguMTljMCAxLjA0LS41OCAxLjk5LTEuNTEgMi40N3oiPiYjeGE7JiN4YTs8L3BhdGg+JiN4YTsmI3hhOzxwYXRoIG9wYWNpdHk9Ii41IiBmaWxsPSIjMjEyMTIxIiBkPSJNLTcwLjcxIDUyLjI2YzMuMDEtMS41NSAyNi42NS0xNC4xOSAyNi42NS0xNS41OGMwLTEuMTQtMjIuNzUgMTAuOTEtMjIuNzUgMTAuOTFTLTk1LjE4IDYyLjEtOTUuNjQgNjMuMzNjLS40NSAxLjIyIDIyLjI2LTkuNyAyNC45My0xMS4wN3oiPiYjeGE7JiN4YTs8L3BhdGg+JiN4YTsmI3hhOzxnIG9wYWNpdHk9Ii41Ij4mI3hhOyYjeGE7PHBhdGggZmlsbD0iIzIxMjEyMSIgZD0iTS0xNDguNDYgOTIuODVjMy42OSAxLjg2IDcuMzUgMy43OCAxMS45MSA2LjExdi0xLjc4Yy00LjU0LTIuMzItOC4yMS00LjIzLTExLjkxLTYuMTF2MS43OHoiPiYjeGE7JiN4YTs8L3BhdGg+JiN4YTsmI3hhOzxwYXRoIGZpbGw9IiMyMTIxMjEiIGQ9Ik0tMTQwLjY5IDkzLjY2YzEuMDQuNTMgMS41Ni44IDIuNTQgMS4zYy4wMS0zLjEuMDEtNC42NS4wMi03Ljc1Yy0uOTgtLjUtMS40OS0uNzYtMi41Mi0xLjI5Yy0uMDEgMy4xLS4wMiA0LjY0LS4wNCA3Ljc0eiI+JiN4YTsmI3hhOzwvcGF0aD4mI3hhOyYjeGE7PHBhdGggZmlsbD0iIzIxMjEyMSIgZD0iTS0xNDcuMTUgOTAuMzRjLjg2LjQ0IDEuMzQuNjkgMi4zMiAxLjE5bC4wNS03LjcyYy0uOTktLjUxLTEuNDctLjc1LTIuMzQtMS4yMWMtLjAxIDMuMS0uMDIgNC42NS0uMDMgNy43NHoiPiYjeGE7JiN4YTs8L3BhdGg+JiN4YTsmI3hhOzxwYXRoIGZpbGw9IiMyMTIxMjEiIGQ9Ik0tMTQyLjMyIDg1Ljk5YzIuMzcgMS4yMSAzLjYzIDEuODYgNS43MiAyLjkyYy0xLjA0LTEuODktMS42MS0yLjg1LTIuNzUtNC43OWMtMS4xNy43Ni0xLjc4IDEuMTMtMi45NyAxLjg3eiI+JiN4YTsmI3hhOzwvcGF0aD4mI3hhOyYjeGE7PHBhdGggZmlsbD0iIzIxMjEyMSIgZD0iTS0xNDguNDYgODIuODRjMS43Ny45MiAyLjk2IDEuNTMgNS4zIDIuNzNjLTEuMTYtMS45NS0xLjc0LTIuOTItMi44MS00LjgzYy0xLjA5Ljc5LTEuNiAxLjItMi40OSAyLjF6Ij4mI3hhOyYjeGE7PC9wYXRoPiYjeGE7JiN4YTs8L2c+JiN4YTsmI3hhOzxnIG9wYWNpdHk9Ii41Ij4mI3hhOyYjeGE7PHBhdGggZmlsbD0iIzIxMjEyMSIgZD0iTS0xMjkuNDYgMTAxLjRjLjgzLjQzIDEuMjYuNjYgMi4wOSAxLjA5Yy0uMDYtMy42OC0uMDktNS41Mi0uMTYtOS4yYy0uOC0uNDItMS4yLS42My0yLTEuMDRjLjAzIDMuNjYuMDQgNS40OS4wNyA5LjE1eiI+JiN4YTsmI3hhOzwvcGF0aD4mI3hhOyYjeGE7PHBhdGggZmlsbD0iIzIxMjEyMSIgZD0iTS0xMzIuNTEgMTAwLjc1YzMuMDQgMS42IDUuNCAyLjggOC4zMiA0LjM2Yy0uMDItMS4wNS0uODMtMi4zMi0xLjkzLTIuOTFjLTEuNzItLjkxLTIuNy0xLjQxLTQuNDQtMi4zMmMtMS4xMi0uNTctMS45NC0uMTYtMS45NS44N3oiPiYjeGE7JiN4YTs8L3BhdGg+JiN4YTsmI3hhOzxwYXRoIGZpbGw9IiMyMTIxMjEiIGQ9Ik0tMTI2LjcyIDkwLjM2bDEuMjggMi43MWMtLjQuODUtLjYxIDEuMjgtMS4wMyAyLjEyYy4zNi0uMDMuNTQtLjA0LjktLjA3Yy40OC0uNjQuNzItLjk2IDEuMTgtMS42Yy0uNDItLjk5LS42NC0xLjQ5LTEuMDgtMi40OGMxLjIyLjY3IDEuODIgMS4wMSAyLjkzIDEuNjZjMCAzLjU4LTIuMzQgNS4xNi01Ljg2IDMuMzJjLTMuNTItMS44My01Ljg1LTUuOTItNS44NS05LjUxYzIuNjMgMS4zMSA0LjM4IDIuMTcgNy41MyAzLjg1eiI+JiN4YTsmI3hhOzwvcGF0aD4mI3hhOyYjeGE7PC9nPiYjeGE7JiN4YTs8cGF0aCBmaWxsPSIjZmZlMGIyIiBkPSJNLTYxLjg2IDQyLjMzYy0uNS0uMzctNTQuMzItMjguNDktNTQuMzItMjguNDlsLTE2LjY4IDguNmw1NS4xMSAyOC4zN2M0Ljc2LTIuNDUgMTIuMzItNi4zNSAxNi4xMi04LjNhMS4xNSAxLjE1IDAgMCAwLS4yMy0uMTh6Ij4mI3hhOyYjeGE7PC9wYXRoPiYjeGE7JiN4YTs8cGF0aCBmaWxsPSIjYmY5Zjg1IiBkPSJNLTYxLjYzIDQyLjVjLTguMzQgMy43Ny0xNi41IDguMTEtMTYuNSA4LjExYy4yMS4wOS43My43NC43My43NGMtLjAzIDEuMTYtLjA1IDIuMzEtLjA4IDMuNDdjLS4xNCA1Ljk1LS4yMiAxMS45MS0uNDIgMTcuODZjLjY3LS40IDEuNDguNDggMi4wOSAwYy45NC0uNzQgMi45NC00IDMuMjQtNC4xYy40LS4xMy44My0uMDMgMS4yNC0uMDVjMS44LS4xIDUuODMtMy43NyA2LjY5LTMuOTRjLjgzLS4xNiAzLjU3LjM3IDMuNTcuMzdzLS4yMS0xOC4xNS0uMjYtMjEuMmMtLjAyLS44Ny0uMy0xLjI2LS4zLTEuMjZ6Ij4mI3hhOyYjeGE7PC9wYXRoPiYjeGE7JiN4YTs8Zz4mI3hhOyYjeGE7PHBhdGggZmlsbD0iI2RlYTY2YyIgZD0iTTIyMy44MSA0Ljg0bC01MS44MyAyNi42OGMtMi41MiAxLjQ4LTEuOCA1LjA5LTEuOCA1LjA5bDU1LjE3IDI4LjNsNTUuMDctMjcuODZjLjA1LS4xNy4xMS0xLjIxLS4xNS0zLjE5Yy0uMTQtMS4wNC0zLjI1LTIuOTQtNi4wMy00LjUxYy0yOC41My0xNi4xMi00Ny4yOS0yNC40Mi00Ny4yOS0yNC40MmMtMS4yLS40Ny0yLjItLjYzLTMuMTQtLjA5eiI+JiN4YTsmI3hhOzwvcGF0aD4mI3hhOyYjeGE7PHBhdGggZmlsbD0iI2JmODA0OSIgZD0iTTE3MS4wMSA5Ni4xNmMzLjA0IDIuMDEgOC41OSA0LjY1IDE0LjIgNy42OWMxMy4wNCA3LjA2IDI5LjUyIDE1LjY0IDM3LjcyIDE5LjAxYzIuNDUgMS4wMSAzLjc1LjUxIDMuNzUuNTFzLTEuMTUtNTYuMy0xLjExLTU5LjQ1Yy4wMi0xLjMyLTEuNTktMy4xMi0yLjc0LTMuODZjLTEuNzgtMS4xNC01LjY0LTIuOTItNS42NC0yLjkycy0xMy41Mi02LjcyLTI3LjAyLTEzLjhjLTYuNDItMy4zNy0xMS44NC02LjgyLTE3LjY3LTkuNjZjLTEuMDYtLjUyLTIuMzMuMTItMi4zMiAxLjMxdjU5LjhjMCAuNTguMzUgMS4wNi44MyAxLjM3eiI+JiN4YTsmI3hhOzwvcGF0aD4mI3hhOyYjeGE7PHBhdGggZmlsbD0iIzllNjczYyIgZD0iTTI3OC44NSA5Ni41MWwtNTEuNzYgMjYuNjljLS44My40My0xLjgyLS4xNy0xLjgyLTEuMTFsLjA5LTU3LjE4YzAtLjU1LS40MS0xLjk4LS41Ni0yLjQ4Yy0uMTQtLjUuMzUtMS41MS44MS0xLjc0bDUxLjc2LTI2LjY2YzEuMzYtLjcgMi45OS4yOSAyLjk5IDEuODJ2NTguMTljMCAxLjA0LS41OSAxLjk5LTEuNTEgMi40N3oiPiYjeGE7JiN4YTs8L3BhdGg+JiN4YTsmI3hhOzxwYXRoIGZpbGw9IiM3ODRkMzAiIGQ9Ik0yNTEuODIgNTIuMjZjMy4wMS0xLjU1IDI2LjY1LTE0LjE5IDI2LjY1LTE1LjU4YzAtMS4xNC0yMi43NSAxMC45MS0yMi43NSAxMC45MVMyMjcuMzYgNjIuMSAyMjYuOSA2My4zM2MtLjQ2IDEuMjIgMjIuMjYtOS43IDI0LjkyLTExLjA3eiI+JiN4YTsmI3hhOzwvcGF0aD4mI3hhOyYjeGE7PGcgb3BhY2l0eT0iLjg1Ij4mI3hhOyYjeGE7PHBhdGggZmlsbD0iIzc4NGQzMCIgZD0iTTE3My4zNiA5My4yMmMzLjY5IDEuODYgNy4zNSAzLjc4IDExLjkxIDYuMTF2LTEuNzhjLTQuNTQtMi4zMi04LjIxLTQuMjMtMTEuOTEtNi4xMXYxLjc4eiI+JiN4YTsmI3hhOzwvcGF0aD4mI3hhOyYjeGE7PHBhdGggZmlsbD0iIzc4NGQzMCIgZD0iTTE4MS4xMyA5NC4wMmMxLjA0LjUzIDEuNTYuOCAyLjU0IDEuM2MuMDEtMy4xLjAxLTQuNjUuMDItNy43NWMtLjk4LS41LTEuNDktLjc2LTIuNTItMS4yOWMtLjAyIDMuMS0uMDMgNC42NS0uMDQgNy43NHoiPiYjeGE7JiN4YTs8L3BhdGg+JiN4YTsmI3hhOzxwYXRoIGZpbGw9IiM3ODRkMzAiIGQ9Ik0xNzQuNjcgOTAuNzFjLjg2LjQ0IDEuMzQuNjkgMi4zMiAxLjE5bC4wNS03LjcyYy0uOTktLjUxLTEuNDctLjc1LTIuMzQtMS4yMWMtLjAxIDMuMDktLjAyIDQuNjQtLjAzIDcuNzR6Ij4mI3hhOyYjeGE7PC9wYXRoPiYjeGE7JiN4YTs8cGF0aCBmaWxsPSIjNzg0ZDMwIiBkPSJNMTc5LjUgODYuMzZjMi4zNyAxLjIxIDMuNjMgMS44NiA1LjcyIDIuOTJjLTEuMDQtMS44OS0xLjYxLTIuODUtMi43NS00Ljc5Yy0xLjE3Ljc2LTEuNzggMS4xMy0yLjk3IDEuODd6Ij4mI3hhOyYjeGE7PC9wYXRoPiYjeGE7JiN4YTs8cGF0aCBmaWxsPSIjNzg0ZDMwIiBkPSJNMTczLjM2IDgzLjJjMS43Ny45MiAyLjk2IDEuNTMgNS4zIDIuNzNjLTEuMTYtMS45NS0xLjc0LTIuOTItMi44MS00LjgzYy0xLjA5Ljc5LTEuNiAxLjItMi40OSAyLjF6Ij4mI3hhOyYjeGE7PC9wYXRoPiYjeGE7JiN4YTs8L2c+JiN4YTsmI3hhOzxnIG9wYWNpdHk9Ii44NSI+JiN4YTsmI3hhOzxwYXRoIGZpbGw9IiM3ODRkMzAiIGQ9Ik0xOTIuMzUgMTAxLjc3Yy44My40MyAxLjI2LjY2IDIuMDkgMS4wOWMtLjA2LTMuNjgtLjA5LTUuNTItLjE2LTkuMmMtLjgtLjQyLTEuMi0uNjMtMi0xLjA0Yy4wNCAzLjY2LjA1IDUuNDkuMDcgOS4xNXoiPiYjeGE7JiN4YTs8L3BhdGg+JiN4YTsmI3hhOzxwYXRoIGZpbGw9IiM3ODRkMzAiIGQ9Ik0xODkuMzEgMTAxLjEyYzMuMDQgMS42IDUuNCAyLjggOC4zMiA0LjM2Yy0uMDItMS4wNS0uODMtMi4zMi0xLjkzLTIuOTFjLTEuNzItLjkxLTIuNy0xLjQxLTQuNDQtMi4zMmMtMS4xMi0uNTctMS45NS0uMTYtMS45NS44N3oiPiYjeGE7JiN4YTs8L3BhdGg+JiN4YTsmI3hhOzxwYXRoIGZpbGw9IiM3ODRkMzAiIGQ9Ik0xOTUuMSA5MC43M2wxLjI4IDIuNzFjLS40Ljg1LS42MSAxLjI4LTEuMDMgMi4xMmMuMzYtLjAzLjU0LS4wNC45LS4wN2MuNDgtLjY0LjcyLS45NiAxLjE4LTEuNmMtLjQyLS45OS0uNjQtMS40OS0xLjA4LTIuNDhjMS4yMi42NyAxLjgyIDEuMDEgMi45MyAxLjY2YzAgMy41OC0yLjM0IDUuMTYtNS44NiAzLjMyYy0zLjUyLTEuODMtNS44NS01LjkyLTUuODUtOS41MWMyLjYyIDEuMzEgNC4zOCAyLjE3IDcuNTMgMy44NXoiPiYjeGE7JiN4YTs8L3BhdGg+JiN4YTsmI3hhOzwvZz4mI3hhOyYjeGE7PHBhdGggZmlsbD0iI2ZmZTBiMiIgZD0iTTI2MC42OCA0Mi4zM2MtLjUtLjM3LTU0LjMyLTI4LjQ5LTU0LjMyLTI4LjQ5bC0xNi42OCA4LjZsNTUuMTEgMjguMzdjNC43Ni0yLjQ1IDEyLjMyLTYuMzUgMTYuMTItOC4zYy0uMDctLjA2LS4xNC0uMTItLjIzLS4xOHoiPiYjeGE7JiN4YTs8L3BhdGg+JiN4YTsmI3hhOzxwYXRoIGZpbGw9IiNiZjlmODUiIGQ9Ik0yNjAuOTEgNDIuNWMtOC4zNCAzLjc3LTE2LjUgOC4xMS0xNi41IDguMTFjLjIxLjA5LjczLjc0LjczLjc0Yy0uMDMgMS4xNi0uMDUgMi4zMS0uMDggMy40N2MtLjE0IDUuOTUtLjIyIDExLjkxLS40MiAxNy44NmMuNjctLjQgMS40OC40OCAyLjA5IDBjLjk0LS43NCAyLjk0LTQgMy4yNC00LjFjLjQtLjEzLjgzLS4wMyAxLjI0LS4wNWMxLjgtLjEgNS44My0zLjc3IDYuNjktMy45NGMuODMtLjE2IDMuNTcuMzcgMy41Ny4zN3MtLjIxLTE4LjE1LS4yNi0yMS4yYy0uMDItLjg3LS4zLTEuMjYtLjMtMS4yNnoiPiYjeGE7JiN4YTs8L3BhdGg+JiN4YTsmI3hhOzwvZz4mI3hhOyYjeGE7PGc+JiN4YTsmI3hhOzxwYXRoIGZpbGw9IiNkZWE2NmMiIGQ9Ik01NjYuNTEgNC44NGwtNTEuODMgMjYuNjhjLTIuNTIgMS40OC0xLjggNS4wOS0xLjggNS4wOWw1NS4xNyAyOC4zbDU1LjA3LTI3Ljg2Yy4wNS0uMTcuMTEtMS4yMS0uMTUtMy4xOWMtLjE0LTEuMDQtMy4yNS0yLjk0LTYuMDMtNC41MWMtMjguNTMtMTYuMTItNDcuMjktMjQuNDItNDcuMjktMjQuNDJjLTEuMi0uNDctMi4yLS42My0zLjE0LS4wOXoiPiYjeGE7JiN4YTs8L3BhdGg+JiN4YTsmI3hhOzxwYXRoIGZpbGw9IiNiZjgwNDkiIGQ9Ik01MTMuNzEgOTYuMTZjMy4wNCAyLjAxIDguNTkgNC42NSAxNC4yIDcuNjljMTMuMDQgNy4wNiAyOS41MiAxNS42NCAzNy43MiAxOS4wMWMyLjQ1IDEuMDEgMy43NS41MSAzLjc1LjUxcy0xLjE1LTU2LjMtMS4xMS01OS40NWMuMDItMS4zMi0xLjU5LTMuMTItMi43NC0zLjg2Yy0xLjc4LTEuMTQtNS42NC0yLjkyLTUuNjQtMi45MnMtMTMuNTItNi43Mi0yNy4wMi0xMy44Yy02LjQyLTMuMzctMTEuODQtNi44Mi0xNy42Ny05LjY2Yy0xLjA2LS41Mi0yLjMzLjEyLTIuMzIgMS4zMXY1OS44YzAgLjU4LjM1IDEuMDYuODMgMS4zN3oiPiYjeGE7JiN4YTs8L3BhdGg+JiN4YTsmI3hhOzxwYXRoIGZpbGw9IiM5ZTY3M2MiIGQ9Ik02MjEuNTUgOTYuNTFsLTUxLjc2IDI2LjY5Yy0uODMuNDMtMS44Mi0uMTctMS44Mi0xLjExbC4wOS01Ny4xOGMwLS41NS0uNDEtMS45OC0uNTYtMi40OGMtLjE0LS41LjM1LTEuNTEuODEtMS43NGw1MS43Ni0yNi42NmMxLjM2LS43IDIuOTkuMjkgMi45OSAxLjgydjU4LjE5YTIuODE1IDIuODE1IDAgMCAxLTEuNTEgMi40N3oiPiYjeGE7JiN4YTs8L3BhdGg+JiN4YTsmI3hhOzxwYXRoIGZpbGw9IiM3ODRkMzAiIGQ9Ik01OTQuNTIgNTIuMjZjMy4wMS0xLjU1IDI2LjY1LTE0LjE5IDI2LjY1LTE1LjU4YzAtMS4xNC0yMi43NSAxMC45MS0yMi43NSAxMC45MVM1NzAuMDYgNjIuMSA1NjkuNiA2My4zM2MtLjQ2IDEuMjIgMjIuMjYtOS43IDI0LjkyLTExLjA3eiI+JiN4YTsmI3hhOzwvcGF0aD4mI3hhOyYjeGE7PGcgb3BhY2l0eT0iLjg1Ij4mI3hhOyYjeGE7PHBhdGggZmlsbD0iIzc4NGQzMCIgZD0iTTUxNi4wNiA5My4yMmMzLjY5IDEuODYgNy4zNSAzLjc4IDExLjkxIDYuMTF2LTEuNzhjLTQuNTQtMi4zMi04LjIxLTQuMjMtMTEuOTEtNi4xMXYxLjc4eiI+JiN4YTsmI3hhOzwvcGF0aD4mI3hhOyYjeGE7PHBhdGggZmlsbD0iIzc4NGQzMCIgZD0iTTUyMy44MiA5NC4wMmMxLjA0LjUzIDEuNTYuOCAyLjU0IDEuM2MuMDEtMy4xLjAxLTQuNjUuMDItNy43NWMtLjk4LS41LTEuNDktLjc2LTIuNTItMS4yOWMtLjAxIDMuMS0uMDIgNC42NS0uMDQgNy43NHoiPiYjeGE7JiN4YTs8L3BhdGg+JiN4YTsmI3hhOzxwYXRoIGZpbGw9IiM3ODRkMzAiIGQ9Ik01MTcuMzcgOTAuNzFjLjg2LjQ0IDEuMzQuNjkgMi4zMiAxLjE5bC4wNS03LjcyYy0uOTktLjUxLTEuNDctLjc1LTIuMzQtMS4yMWMtLjAxIDMuMDktLjAyIDQuNjQtLjAzIDcuNzR6Ij4mI3hhOyYjeGE7PC9wYXRoPiYjeGE7JiN4YTs8cGF0aCBmaWxsPSIjNzg0ZDMwIiBkPSJNNTIyLjIgODYuMzZjMi4zNyAxLjIxIDMuNjQgMS44NiA1LjcyIDIuOTJjLTEuMDQtMS44OS0xLjYxLTIuODUtMi43NS00Ljc5Yy0xLjE3Ljc2LTEuNzggMS4xMy0yLjk3IDEuODd6Ij4mI3hhOyYjeGE7PC9wYXRoPiYjeGE7JiN4YTs8cGF0aCBmaWxsPSIjNzg0ZDMwIiBkPSJNNTE2LjA2IDgzLjJjMS43Ny45MiAyLjk2IDEuNTMgNS4zIDIuNzNjLTEuMTYtMS45NS0xLjc0LTIuOTItMi44MS00LjgzYy0xLjA5Ljc5LTEuNjEgMS4yLTIuNDkgMi4xeiI+JiN4YTsmI3hhOzwvcGF0aD4mI3hhOyYjeGE7PC9nPiYjeGE7JiN4YTs8ZyBvcGFjaXR5PSIuODUiPiYjeGE7JiN4YTs8cGF0aCBmaWxsPSIjNzg0ZDMwIiBkPSJNNTM1LjA1IDEwMS43N2MuODMuNDMgMS4yNi42NiAyLjA5IDEuMDljLS4wNi0zLjY4LS4wOS01LjUyLS4xNi05LjJjLS44LS40Mi0xLjItLjYzLTItMS4wNGMuMDQgMy42Ni4wNSA1LjQ5LjA3IDkuMTV6Ij4mI3hhOyYjeGE7PC9wYXRoPiYjeGE7JiN4YTs8cGF0aCBmaWxsPSIjNzg0ZDMwIiBkPSJNNTMyLjAxIDEwMS4xMmMzLjA0IDEuNiA1LjQgMi44IDguMzIgNC4zNmMtLjAyLTEuMDUtLjgzLTIuMzItMS45My0yLjkxYy0xLjcyLS45MS0yLjctMS40MS00LjQ0LTIuMzJjLTEuMTMtLjU3LTEuOTUtLjE2LTEuOTUuODd6Ij4mI3hhOyYjeGE7PC9wYXRoPiYjeGE7JiN4YTs8cGF0aCBmaWxsPSIjNzg0ZDMwIiBkPSJNNTM3LjggOTAuNzNsMS4yOCAyLjcxYy0uNC44NS0uNjEgMS4yOC0xLjAzIDIuMTJjLjM2LS4wMy41NC0uMDQuOS0uMDdjLjQ4LS42NC43Mi0uOTYgMS4xOC0xLjZjLS40Mi0uOTktLjY0LTEuNDktMS4wOC0yLjQ4YzEuMjIuNjcgMS44MiAxLjAxIDIuOTMgMS42NmMwIDMuNTgtMi4zNCA1LjE2LTUuODYgMy4zMnMtNS44NS01LjkyLTUuODUtOS41MWMyLjYyIDEuMzEgNC4zOCAyLjE3IDcuNTMgMy44NXoiPiYjeGE7JiN4YTs8L3BhdGg+JiN4YTsmI3hhOzwvZz4mI3hhOyYjeGE7PHBhdGggZmlsbD0iI2ZjZThiMiIgZD0iTTYwMy4zOCA0Mi4zM2MtLjUtLjM3LTU0LjMyLTI4LjQ5LTU0LjMyLTI4LjQ5bC0xNi42OCA4LjZsNTUuMTEgMjguMzdjNC43Ni0yLjQ1IDEyLjMyLTYuMzUgMTYuMTItOC4zYy0uMDctLjA2LS4xNC0uMTItLjIzLS4xOHoiPiYjeGE7JiN4YTs8L3BhdGg+JiN4YTsmI3hhOzxwYXRoIGZpbGw9IiNlY2IzNTQiIGQ9Ik02MDMuNjEgNDIuNWMtOC4zNCAzLjc3LTE2LjUgOC4xMS0xNi41IDguMTFjLjIxLjA5LjcyLjc0LjcyLjc0Yy0uMDMgMS4xNi0uMDUgMi4zMS0uMDggMy40N2MtLjE0IDUuOTUtLjIyIDExLjkxLS40MiAxNy44NmMuNjctLjQgMS40OC40OCAyLjA5IDBjLjk0LS43NCAyLjk0LTQgMy4yNC00LjFjLjQtLjEzLjgzLS4wMyAxLjI0LS4wNWMxLjgtLjEgNS44My0zLjc3IDYuNjktMy45NGMuODMtLjE2IDMuNTcuMzcgMy41Ny4zN3MtLjIxLTE4LjE1LS4yNi0yMS4yYy0uMDEtLjg3LS4yOS0xLjI2LS4yOS0xLjI2eiI+JiN4YTsmI3hhOzwvcGF0aD4mI3hhOyYjeGE7PC9nPiYjeGE7JiN4YTs8Zz4mI3hhOyYjeGE7PHBhdGggZmlsbD0iI2RlYTY2YyIgZD0iTTYyLjU0IDIxNi4wN2wtNTEuODMgMjYuNjhjLTIuNTIgMS40OC0xLjggNS4wOS0xLjggNS4wOWw1NS4xNyAyOC4zbDU1LjA3LTI3Ljg2Yy4wNS0uMTcuMTEtMS4yMS0uMTUtMy4xOWMtLjE0LTEuMDQtMy4yNS0yLjk0LTYuMDMtNC41MWMtMjguNTMtMTYuMTItNDcuMjktMjQuNDItNDcuMjktMjQuNDJjLTEuMi0uNDctMi4yLS42My0zLjE0LS4wOXoiPiYjeGE7JiN4YTs8L3BhdGg+JiN4YTsmI3hhOzxwYXRoIGZpbGw9IiNiZDg5NTUiIGQ9Ik05Ljc0IDMwNy4zOWMzLjA0IDIuMDEgOC41OSA0LjY1IDE0LjIgNy42OWMxMy4wNCA3LjA2IDI5LjUyIDE1LjY0IDM3LjcyIDE5LjAxYzIuNDUgMS4wMSAzLjc1LjUxIDMuNzUuNTFzLTEuMTUtNTYuMy0xLjExLTU5LjQ1Yy4wMi0xLjMyLTEuNTktMy4xMi0yLjc0LTMuODZjLTEuNzgtMS4xNC01LjY0LTIuOTItNS42NC0yLjkycy0xMy41Mi02LjcyLTI3LjAyLTEzLjhjLTYuNDItMy4zNy0xMS44NC02LjgyLTE3LjY3LTkuNjZjLTEuMDYtLjUyLTIuMzMuMTItMi4zMiAxLjMxdjU5LjhjMCAuNTkuMzUgMS4wNi44MyAxLjM3eiI+JiN4YTsmI3hhOzwvcGF0aD4mI3hhOyYjeGE7PHBhdGggZmlsbD0iI2EwNjg0MSIgZD0iTTExNy41OCAzMDcuNzRsLTUxLjc2IDI2LjY5Yy0uODMuNDMtMS44Mi0uMTctMS44Mi0xLjExbC4wOS01Ny4xOGMwLS41NS0uNDEtMS45OC0uNTYtMi40OGMtLjE0LS41LjM1LTEuNTEuODEtMS43NGw1MS43Ni0yNi42NmMxLjM2LS43IDIuOTkuMjkgMi45OSAxLjgydjU4LjE5YzAgMS4wNC0uNTggMS45OS0xLjUxIDIuNDd6Ij4mI3hhOyYjeGE7PC9wYXRoPiYjeGE7JiN4YTs8cGF0aCBmaWxsPSIjNzg0ZDMwIiBkPSJNOTAuNTUgMjYzLjQ5YzMuMDEtMS41NSAyNi42NS0xNC4xOSAyNi42NS0xNS41OGMwLTEuMTQtMjIuNzUgMTAuOTEtMjIuNzUgMTAuOTFzLTI4LjM3IDE0LjUxLTI4LjgzIDE1Ljc0Yy0uNDQgMS4yMiAyMi4yNy05LjcgMjQuOTMtMTEuMDd6Ij4mI3hhOyYjeGE7PC9wYXRoPiYjeGE7JiN4YTs8ZyBvcGFjaXR5PSIuNzMiPiYjeGE7JiN4YTs8cGF0aCBmaWxsPSIjNzg0ZDMwIiBkPSJNMTIuMDkgMzA0LjQ1YzMuNjkgMS44NiA3LjM1IDMuNzggMTEuOTEgNi4xMXYtMS43OGMtNC41NC0yLjMyLTguMjEtNC4yMy0xMS45MS02LjExdjEuNzh6Ij4mI3hhOyYjeGE7PC9wYXRoPiYjeGE7JiN4YTs8cGF0aCBmaWxsPSIjNzg0ZDMwIiBkPSJNMTkuODYgMzA1LjI1YzEuMDQuNTMgMS41Ni44IDIuNTQgMS4zYy4wMS0zLjEuMDEtNC42NS4wMi03Ljc1Yy0uOTgtLjUtMS40OS0uNzYtMi41Mi0xLjI5Yy0uMDIgMy4xLS4wMyA0LjY1LS4wNCA3Ljc0eiI+JiN4YTsmI3hhOzwvcGF0aD4mI3hhOyYjeGE7PHBhdGggZmlsbD0iIzc4NGQzMCIgZD0iTTEzLjQgMzAxLjk0Yy44Ni40NCAxLjM0LjY5IDIuMzIgMS4xOWwuMDUtNy43MmMtLjk5LS41MS0xLjQ3LS43NS0yLjM0LTEuMjFjLS4wMSAzLjA5LS4wMiA0LjY0LS4wMyA3Ljc0eiI+JiN4YTsmI3hhOzwvcGF0aD4mI3hhOyYjeGE7PHBhdGggZmlsbD0iIzc4NGQzMCIgZD0iTTE4LjIzIDI5Ny41OWMyLjM3IDEuMjEgMy42MyAxLjg2IDUuNzIgMi45MmMtMS4wNC0xLjg5LTEuNjEtMi44NS0yLjc1LTQuNzljLTEuMTcuNzYtMS43OCAxLjEzLTIuOTcgMS44N3oiPiYjeGE7JiN4YTs8L3BhdGg+JiN4YTsmI3hhOzxwYXRoIGZpbGw9IiM3ODRkMzAiIGQ9Ik0xMi4wOSAyOTQuNDNjMS43Ny45MiAyLjk2IDEuNTMgNS4zIDIuNzNjLTEuMTYtMS45NS0xLjc0LTIuOTItMi44MS00LjgzYy0xLjA5Ljc5LTEuNiAxLjItMi40OSAyLjF6Ij4mI3hhOyYjeGE7PC9wYXRoPiYjeGE7JiN4YTs8L2c+JiN4YTsmI3hhOzxnIG9wYWNpdHk9Ii43MyI+JiN4YTsmI3hhOzxwYXRoIGZpbGw9IiM3ODRkMzAiIGQ9Ik0zMS4wOSAzMTNjLjgzLjQzIDEuMjYuNjYgMi4wOSAxLjA5Yy0uMDYtMy42OC0uMDktNS41Mi0uMTYtOS4yYy0uOC0uNDItMS4yLS42My0yLTEuMDRjLjAzIDMuNjYuMDQgNS40OS4wNyA5LjE1eiI+JiN4YTsmI3hhOzwvcGF0aD4mI3hhOyYjeGE7PHBhdGggZmlsbD0iIzc4NGQzMCIgZD0iTTI4LjA0IDMxMi4zNWMzLjA0IDEuNiA1LjQgMi44IDguMzIgNC4zNmMtLjAyLTEuMDUtLjgzLTIuMzMtMS45My0yLjkxYy0xLjcyLS45MS0yLjctMS40MS00LjQ0LTIuMzJjLTEuMTItLjU3LTEuOTUtLjE2LTEuOTUuODd6Ij4mI3hhOyYjeGE7PC9wYXRoPiYjeGE7JiN4YTs8cGF0aCBmaWxsPSIjNzg0ZDMwIiBkPSJNMzMuODMgMzAxLjk2bDEuMjggMi43MWMtLjQuODUtLjYxIDEuMjgtMS4wMyAyLjEyYy4zNi0uMDMuNTQtLjA0LjktLjA3Yy40OC0uNjQuNzItLjk2IDEuMTgtMS42Yy0uNDItLjk5LS42NC0xLjQ5LTEuMDgtMi40OGMxLjIyLjY3IDEuODIgMS4wMSAyLjkzIDEuNjZjMCAzLjU4LTIuMzQgNS4xNi01Ljg2IDMuMzJjLTMuNTItMS44My01Ljg1LTUuOTItNS44NS05LjUxYzIuNjIgMS4zMSA0LjM4IDIuMTcgNy41MyAzLjg1eiI+JiN4YTsmI3hhOzwvcGF0aD4mI3hhOyYjeGE7PC9nPiYjeGE7JiN4YTs8cGF0aCBmaWxsPSIjZmNlOGIyIiBkPSJNOTkuNDEgMjUzLjU2Yy0uNS0uMzctNTQuMzItMjguNDktNTQuMzItMjguNDlsLTE2LjY4IDguNmw1NS4xMSAyOC4zN2M0Ljc2LTIuNDUgMTIuMzItNi4zNSAxNi4xMi04LjNjLS4wNi0uMDYtLjE0LS4xMi0uMjMtLjE4eiI+JiN4YTsmI3hhOzwvcGF0aD4mI3hhOyYjeGE7PHBhdGggZmlsbD0iI2VjYjM1NCIgZD0iTTk5LjY0IDI1My43M2MtOC4zNCAzLjc3LTE2LjUgOC4xMS0xNi41IDguMTFjLjIxLjA5LjczLjc0LjczLjc0Yy0uMDMgMS4xNi0uMDUgMi4zMS0uMDggMy40N2MtLjE0IDUuOTUtLjIyIDExLjkxLS40MiAxNy44NmMuNjctLjQgMS40OC40OCAyLjA5IDBjLjk0LS43NCAyLjk0LTQgMy4yNC00LjFjLjQtLjEzLjgzLS4wMyAxLjI0LS4wNWMxLjgtLjEgNS44My0zLjc3IDYuNjktMy45NGMuODMtLjE2IDMuNTcuMzcgMy41Ny4zN3MtLjIxLTE4LjE1LS4yNi0yMS4yYy0uMDItLjg3LS4zLTEuMjYtLjMtMS4yNnoiPiYjeGE7JiN4YTs8L3BhdGg+JiN4YTsmI3hhOzwvZz4mI3hhOyYjeGE7PGc+JiN4YTsmI3hhOzxwYXRoIGZpbGw9IiNlNmE0NjciIGQ9Ik00MDEuODIgNC44NGwtNTEuODMgMjYuNjhjLTIuNTIgMS40OC0xLjggNS4wOS0xLjggNS4wOWw1NS4xNyAyOC4zbDU1LjA3LTI3Ljg2Yy4wNS0uMTcuMTEtMS4yMS0uMTUtMy4xOWMtLjE0LTEuMDQtMy4yNS0yLjk0LTYuMDMtNC41MWMtMjguNTMtMTYuMTItNDcuMjktMjQuNDItNDcuMjktMjQuNDJjLTEuMi0uNDctMi4yLS42My0zLjE0LS4wOXoiPiYjeGE7JiN4YTs8L3BhdGg+JiN4YTsmI3hhOzxwYXRoIGZpbGw9IiNkNjhiNTIiIGQ9Ik0zNDkuMDIgOTYuMTZjMy4wNCAyLjAxIDguNTkgNC42NSAxNC4yIDcuNjljMTMuMDQgNy4wNiAyOS41MiAxNS42NCAzNy43MiAxOS4wMWMyLjQ1IDEuMDEgMy43NS41MSAzLjc1LjUxcy0xLjE1LTU2LjMtMS4xMS01OS40NWMuMDItMS4zMi0xLjU5LTMuMTItMi43NC0zLjg2Yy0xLjc4LTEuMTQtNS42NC0yLjkyLTUuNjQtMi45MnMtMTMuNTItNi43Mi0yNy4wMi0xMy44Yy02LjQyLTMuMzctMTEuODQtNi44Mi0xNy42Ny05LjY2Yy0xLjA2LS41Mi0yLjMzLjEyLTIuMzIgMS4zMXY1OS44YzAgLjU4LjM1IDEuMDYuODMgMS4zN3oiPiYjeGE7JiN4YTs8L3BhdGg+JiN4YTsmI3hhOzxwYXRoIGZpbGw9IiNhMDY4NDEiIGQ9Ik00NTYuODYgOTYuNTFMNDA1LjEgMTIzLjJjLS44My40My0xLjgyLS4xNy0xLjgyLTEuMTFsLjA5LTU3LjE4YzAtLjU1LS40MS0xLjk4LS41Ni0yLjQ4Yy0uMTQtLjUuMzUtMS41MS44MS0xLjc0bDUxLjc2LTI2LjY2YzEuMzYtLjcgMi45OS4yOSAyLjk5IDEuODJ2NTguMTlhMi44MTUgMi44MTUgMCAwIDEtMS41MSAyLjQ3eiI+JiN4YTsmI3hhOzwvcGF0aD4mI3hhOyYjeGE7PHBhdGggZmlsbD0iIzc4NGQzMCIgZD0iTTQyOS44MyA1Mi4yNmMzLjAxLTEuNTUgMjYuNjUtMTQuMTkgMjYuNjUtMTUuNThjMC0xLjE0LTIyLjc1IDEwLjkxLTIyLjc1IDEwLjkxUzQwNS4zNiA2Mi4xIDQwNC45IDYzLjMzYy0uNDUgMS4yMiAyMi4yNy05LjcgMjQuOTMtMTEuMDd6Ij4mI3hhOyYjeGE7PC9wYXRoPiYjeGE7JiN4YTs8ZyBvcGFjaXR5PSIuNzMiPiYjeGE7JiN4YTs8cGF0aCBmaWxsPSIjNzg0ZDMwIiBkPSJNMzUxLjM3IDkzLjIyYzMuNjkgMS44NiA3LjM1IDMuNzggMTEuOTEgNi4xMXYtMS43OGMtNC41NC0yLjMyLTguMjEtNC4yMy0xMS45MS02LjExdjEuNzh6Ij4mI3hhOyYjeGE7PC9wYXRoPiYjeGE7JiN4YTs8cGF0aCBmaWxsPSIjNzg0ZDMwIiBkPSJNMzU5LjEzIDk0LjAyYzEuMDQuNTMgMS41Ni44IDIuNTQgMS4zYy4wMS0zLjEuMDEtNC42NS4wMi03Ljc1Yy0uOTgtLjUtMS40OS0uNzYtMi41Mi0xLjI5Yy0uMDEgMy4xLS4wMiA0LjY1LS4wNCA3Ljc0eiI+JiN4YTsmI3hhOzwvcGF0aD4mI3hhOyYjeGE7PHBhdGggZmlsbD0iIzc4NGQzMCIgZD0iTTM1Mi42OCA5MC43MWMuODYuNDQgMS4zNC42OSAyLjMyIDEuMTlsLjA1LTcuNzJjLS45OS0uNTEtMS40Ny0uNzUtMi4zNS0xLjIxYzAgMy4wOS0uMDEgNC42NC0uMDIgNy43NHoiPiYjeGE7JiN4YTs8L3BhdGg+JiN4YTsmI3hhOzxwYXRoIGZpbGw9IiM3ODRkMzAiIGQ9Ik0zNTcuNTEgODYuMzZjMi4zNyAxLjIxIDMuNjQgMS44NiA1LjcyIDIuOTJjLTEuMDQtMS44OS0xLjYxLTIuODUtMi43NS00Ljc5Yy0xLjE3Ljc2LTEuNzggMS4xMy0yLjk3IDEuODd6Ij4mI3hhOyYjeGE7PC9wYXRoPiYjeGE7JiN4YTs8cGF0aCBmaWxsPSIjNzg0ZDMwIiBkPSJNMzUxLjM3IDgzLjJjMS43Ny45MiAyLjk2IDEuNTMgNS4zIDIuNzNjLTEuMTYtMS45NS0xLjc0LTIuOTItMi44MS00LjgzYy0xLjA5Ljc5LTEuNjEgMS4yLTIuNDkgMi4xeiI+JiN4YTsmI3hhOzwvcGF0aD4mI3hhOyYjeGE7PC9nPiYjeGE7JiN4YTs8ZyBvcGFjaXR5PSIuNzMiPiYjeGE7JiN4YTs8cGF0aCBmaWxsPSIjNzg0ZDMwIiBkPSJNMzcwLjM2IDEwMS43N2MuODMuNDMgMS4yNi42NiAyLjA5IDEuMDljLS4wNi0zLjY4LS4wOS01LjUyLS4xNi05LjJjLS44LS40Mi0xLjItLjYzLTItMS4wNGMuMDQgMy42Ni4wNSA1LjQ5LjA3IDkuMTV6Ij4mI3hhOyYjeGE7PC9wYXRoPiYjeGE7JiN4YTs8cGF0aCBmaWxsPSIjNzg0ZDMwIiBkPSJNMzY3LjMyIDEwMS4xMmMzLjA0IDEuNiA1LjQgMi44IDguMzIgNC4zNmMtLjAyLTEuMDUtLjgzLTIuMzItMS45My0yLjkxYy0xLjcyLS45MS0yLjctMS40MS00LjQ0LTIuMzJjLTEuMTMtLjU3LTEuOTUtLjE2LTEuOTUuODd6Ij4mI3hhOyYjeGE7PC9wYXRoPiYjeGE7JiN4YTs8cGF0aCBmaWxsPSIjNzg0ZDMwIiBkPSJNMzczLjExIDkwLjczbDEuMjggMi43MWMtLjQuODUtLjYxIDEuMjgtMS4wMyAyLjEyYy4zNi0uMDMuNTQtLjA0LjktLjA3Yy40OC0uNjQuNzItLjk2IDEuMTgtMS42Yy0uNDItLjk5LS42NC0xLjQ5LTEuMDgtMi40OGMxLjIyLjY3IDEuODIgMS4wMSAyLjkzIDEuNjZjMCAzLjU4LTIuMzQgNS4xNi01Ljg2IDMuMzJjLTMuNTItMS44My01Ljg1LTUuOTItNS44NS05LjUxYzIuNjIgMS4zMSA0LjM4IDIuMTcgNy41MyAzLjg1eiI+JiN4YTsmI3hhOzwvcGF0aD4mI3hhOyYjeGE7PC9nPiYjeGE7JiN4YTs8cGF0aCBmaWxsPSIjZmNlOGIyIiBkPSJNNDM4LjY5IDQyLjMzYy0uNS0uMzctNTQuMzItMjguNDktNTQuMzItMjguNDlsLTE2LjY4IDguNmw1NS4xMSAyOC4zN2M0Ljc2LTIuNDUgMTIuMzItNi4zNSAxNi4xMi04LjNjLS4wNy0uMDYtLjE0LS4xMi0uMjMtLjE4eiI+JiN4YTsmI3hhOzwvcGF0aD4mI3hhOyYjeGE7PHBhdGggZmlsbD0iI2VjYjM1NCIgZD0iTTQzOC45MiA0Mi41Yy04LjM0IDMuNzctMTYuNSA4LjExLTE2LjUgOC4xMWMuMjEuMDkuNzMuNzQuNzMuNzRjLS4wMyAxLjE2LS4wNSAyLjMxLS4wOCAzLjQ3Yy0uMTQgNS45NS0uMjIgMTEuOTEtLjQyIDE3Ljg2Yy42Ny0uNCAxLjQ4LjQ4IDIuMDkgMGMuOTQtLjc0IDIuOTQtNCAzLjI0LTQuMWMuNC0uMTMuODMtLjAzIDEuMjQtLjA1YzEuOC0uMSA1LjgzLTMuNzcgNi42OS0zLjk0Yy44My0uMTYgMy41Ny4zNyAzLjU3LjM3cy0uMjEtMTguMTUtLjI2LTIxLjJjLS4wMi0uODctLjMtMS4yNi0uMy0xLjI2eiI+JiN4YTsmI3hhOzwvcGF0aD4mI3hhOyYjeGE7PC9nPiYjeGE7JiN4YTs8Zz4mI3hhOyYjeGE7PHBhdGggZmlsbD0iI2U2YTQ3NSIgZD0iTS0yNDAuNjMgNC44NGwtNTEuODMgMjYuNjhjLTIuNTIgMS40OC0xLjggNS4wOS0xLjggNS4wOWw1NS4xNyAyOC4zbDU1LjA3LTI3Ljg2Yy4wNS0uMTcuMTEtMS4yMS0uMTUtMy4xOWMtLjE0LTEuMDQtMy4yNS0yLjk0LTYuMDMtNC41MWMtMjguNTMtMTYuMTItNDcuMjktMjQuNDItNDcuMjktMjQuNDJjLTEuMi0uNDctMi4yLS42My0zLjE0LS4wOXoiPiYjeGE7JiN4YTs8L3BhdGg+JiN4YTsmI3hhOzxwYXRoIGZpbGw9IiNjNzhjNjEiIGQ9Ik0tMjkzLjQzIDk2LjE2YzMuMDQgMi4wMSA4LjU5IDQuNjUgMTQuMiA3LjY5YzEzLjA0IDcuMDYgMjkuNTIgMTUuNjQgMzcuNzIgMTkuMDFjMi40NSAxLjAxIDMuNzUuNTEgMy43NS41MXMtMS4xNS01Ni4zLTEuMTEtNTkuNDVjLjAyLTEuMzItMS41OS0zLjEyLTIuNzQtMy44NmMtMS43OC0xLjE0LTUuNjQtMi45Mi01LjY0LTIuOTJzLTEzLjUyLTYuNzItMjcuMDItMTMuOGMtNi40Mi0zLjM3LTExLjg0LTYuODItMTcuNjctOS42NmMtMS4wNi0uNTItMi4zMy4xMi0yLjMyIDEuMzF2NTkuOGMwIC41OC4zNSAxLjA2LjgzIDEuMzd6Ij4mI3hhOyYjeGE7PC9wYXRoPiYjeGE7JiN4YTs8cGF0aCBmaWxsPSIjYTA2ODQxIiBkPSJNLTE4NS41OSA5Ni41MWwtNTEuNzYgMjYuNjljLS44My40My0xLjgyLS4xNy0xLjgyLTEuMTFsLjA5LTU3LjE4YzAtLjU1LS40MS0xLjk4LS41Ni0yLjQ4Yy0uMTQtLjUuMzUtMS41MS44MS0xLjc0bDUxLjc2LTI2LjY2YzEuMzYtLjcgMi45OS4yOSAyLjk5IDEuODJ2NTguMTlhMi44MTUgMi44MTUgMCAwIDEtMS41MSAyLjQ3eiI+JiN4YTsmI3hhOzwvcGF0aD4mI3hhOyYjeGE7PHBhdGggZmlsbD0iIzc4NGQzMCIgZD0iTS0yMTIuNjIgNTIuMjZjMy4wMS0xLjU1IDI2LjY1LTE0LjE5IDI2LjY1LTE1LjU4YzAtMS4xNC0yMi43NSAxMC45MS0yMi43NSAxMC45MXMtMjguMzcgMTQuNTEtMjguODMgMTUuNzRjLS40NSAxLjIyIDIyLjI2LTkuNyAyNC45My0xMS4wN3oiPiYjeGE7JiN4YTs8L3BhdGg+JiN4YTsmI3hhOzxnIG9wYWNpdHk9Ii43MyI+JiN4YTsmI3hhOzxwYXRoIGZpbGw9IiM3ODRkMzAiIGQ9Ik0tMjkxLjA4IDkzLjIyYzMuNjkgMS44NiA3LjM1IDMuNzggMTEuOTEgNi4xMXYtMS43OGMtNC41NC0yLjMyLTguMjEtNC4yMy0xMS45MS02LjExdjEuNzh6Ij4mI3hhOyYjeGE7PC9wYXRoPiYjeGE7JiN4YTs8cGF0aCBmaWxsPSIjNzg0ZDMwIiBkPSJNLTI4My4zMiA5NC4wMmMxLjA0LjUzIDEuNTYuOCAyLjU0IDEuM2MuMDEtMy4xLjAxLTQuNjUuMDItNy43NWMtLjk4LS41LTEuNDktLjc2LTIuNTItMS4yOWMtLjAxIDMuMS0uMDIgNC42NS0uMDQgNy43NHoiPiYjeGE7JiN4YTs8L3BhdGg+JiN4YTsmI3hhOzxwYXRoIGZpbGw9IiM3ODRkMzAiIGQ9Ik0tMjg5Ljc3IDkwLjcxYy44Ni40NCAxLjM0LjY5IDIuMzIgMS4xOWwuMDUtNy43MmMtLjk5LS41MS0xLjQ3LS43NS0yLjM0LTEuMjFjLS4wMSAzLjA5LS4wMiA0LjY0LS4wMyA3Ljc0eiI+JiN4YTsmI3hhOzwvcGF0aD4mI3hhOyYjeGE7PHBhdGggZmlsbD0iIzc4NGQzMCIgZD0iTS0yODQuOTUgODYuMzZjMi4zNyAxLjIxIDMuNjMgMS44NiA1LjcyIDIuOTJjLTEuMDQtMS44OS0xLjYxLTIuODUtMi43NS00Ljc5Yy0xLjE2Ljc2LTEuNzcgMS4xMy0yLjk3IDEuODd6Ij4mI3hhOyYjeGE7PC9wYXRoPiYjeGE7JiN4YTs8cGF0aCBmaWxsPSIjNzg0ZDMwIiBkPSJNLTI5MS4wOCA4My4yYzEuNzcuOTIgMi45NiAxLjUzIDUuMyAyLjczYy0xLjE2LTEuOTUtMS43NC0yLjkyLTIuODEtNC44M2MtMS4wOS43OS0xLjYxIDEuMi0yLjQ5IDIuMXoiPiYjeGE7JiN4YTs8L3BhdGg+JiN4YTsmI3hhOzwvZz4mI3hhOyYjeGE7PGcgb3BhY2l0eT0iLjczIj4mI3hhOyYjeGE7PHBhdGggZmlsbD0iIzc4NGQzMCIgZD0iTS0yNzIuMDkgMTAxLjc3Yy44My40MyAxLjI2LjY2IDIuMDkgMS4wOWMtLjA2LTMuNjgtLjA5LTUuNTItLjE2LTkuMmMtLjgtLjQyLTEuMi0uNjMtMi0xLjA0Yy4wNCAzLjY2LjA1IDUuNDkuMDcgOS4xNXoiPiYjeGE7JiN4YTs8L3BhdGg+JiN4YTsmI3hhOzxwYXRoIGZpbGw9IiM3ODRkMzAiIGQ9Ik0tMjc1LjEzIDEwMS4xMmMzLjA0IDEuNiA1LjQgMi44IDguMzIgNC4zNmMtLjAyLTEuMDUtLjgzLTIuMzItMS45My0yLjkxYy0xLjcyLS45MS0yLjctMS40MS00LjQ0LTIuMzJjLTEuMTMtLjU3LTEuOTUtLjE2LTEuOTUuODd6Ij4mI3hhOyYjeGE7PC9wYXRoPiYjeGE7JiN4YTs8cGF0aCBmaWxsPSIjNzg0ZDMwIiBkPSJNLTI2OS4zNCA5MC43M2wxLjI4IDIuNzFjLS40Ljg1LS42MSAxLjI4LTEuMDMgMi4xMmMuMzYtLjAzLjU0LS4wNC45LS4wN2MuNDgtLjY0LjcyLS45NiAxLjE4LTEuNmMtLjQyLS45OS0uNjQtMS40OS0xLjA4LTIuNDhjMS4yMi42NyAxLjgyIDEuMDEgMi45MyAxLjY2YzAgMy41OC0yLjM0IDUuMTYtNS44NiAzLjMycy01Ljg1LTUuOTItNS44NS05LjUxYzIuNjIgMS4zMSA0LjM4IDIuMTcgNy41MyAzLjg1eiI+JiN4YTsmI3hhOzwvcGF0aD4mI3hhOyYjeGE7PC9nPiYjeGE7JiN4YTs8cGF0aCBmaWxsPSIjZmNlOGIyIiBkPSJNLTIwMy43NiA0Mi4zM2MtLjUtLjM3LTU0LjMyLTI4LjQ5LTU0LjMyLTI4LjQ5bC0xNi42OCA4LjZsNTUuMTEgMjguMzdjNC43Ni0yLjQ1IDEyLjMyLTYuMzUgMTYuMTItOC4zYy0uMDctLjA2LS4xNC0uMTItLjIzLS4xOHoiPiYjeGE7JiN4YTs8L3BhdGg+JiN4YTsmI3hhOzxwYXRoIGZpbGw9IiNlY2IzNTQiIGQ9Ik0tMjAzLjU0IDQyLjVjLTguMzQgMy43Ny0xNi41IDguMTEtMTYuNSA4LjExYy4yMS4wOS43My43NC43My43NGMtLjAzIDEuMTYtLjA1IDIuMzEtLjA4IDMuNDdjLS4xNCA1Ljk1LS4yMiAxMS45MS0uNDIgMTcuODZjLjY3LS40IDEuNDguNDggMi4wOSAwYy45NC0uNzQgMi45NC00IDMuMjQtNC4xYy40LS4xMy44My0uMDMgMS4yNC0uMDVjMS44LS4xIDUuODMtMy43NyA2LjY5LTMuOTRjLjgzLS4xNiAzLjU3LjM3IDMuNTcuMzdzLS4yMS0xOC4xNS0uMjYtMjEuMmMtLjAxLS44Ny0uMy0xLjI2LS4zLTEuMjZ6Ij4mI3hhOyYjeGE7PC9wYXRoPiYjeGE7JiN4YTs8L2c+JiN4YTsmI3hhOzxwYXRoIGZpbGw9IiNlNmE0NzUiIGQ9Ik05MC4yOS0xNDYuNzlsLTEwLjQ3IDUuNGwtMjEuNDggMTEuMDdjLTMuNzYgMS45NC03LjUzIDMuODctMTEuMjkgNS44MWMtMi41MiAxLjMtNy44OSAyLjkzLTguNzEgNi4wOGMtLjE4LjcxLS4xMSAxLjQ1LS4wMyAyLjE4Yy4zNiAzLjMyLjI3IDYuMjcgMi40MyA4LjljMi4wNCAyLjQ4IDUuNDcgNS44IDkuMDEgNS44YzguMTEgMi42NSAxNS44NSA2LjI4IDIzLjgyIDkuM2M3LjEyIDIuNyAxNi4wOSA2LjkgMjMuMzYgMi44MmMuODgtLjQ5IDEuNi0xLjE2IDIuNDktMS42YzEuMTktLjU5IDIuNDMtMS4wNSAzLjYxLTEuNjhjMy4zNS0xLjc3IDYuMy00LjIgOS40Ny02LjI2YzUuMzQtMy40OCAxMS4yNC01LjkyIDE2Ljk5LTguNjFjMi44OS0xLjM1IDUuNzYtMi43NyA4LjQ5LTQuNDJhNDcuOSA0Ny45IDAgMCAwIDMuOTYtMi42NWMuOTgtLjczIDIuNzEtMS43NCAzLjA1LTMuMDFjLjA1LS4xNy4wNy0uMzQuMDctLjUyYy0uMDEtLjctLjQxLTEuMzQtLjk0LTEuNzljLTEuNzYtMS41LTQuMjYtMi4yOC02LjMzLTMuMTljLTIuNy0xLjE4LTUuMjQtMi44Ny03LjgxLTQuMzJjLTUuNDItMy4wNi0xMC44OC02LjA0LTE2LjM4LTguOTNhNjc1LjQ5IDY3NS40OSAwIDAgMC0xMi4yOC02LjNjLTIuMTEtMS4wNS00LjIyLTIuMDktNi4zNC0zLjEzYy0xLjM2LS42Ni0zLjEzLTEuNzUtNC42OS0uOTV6Ij4mI3hhOyYjeGE7PC9wYXRoPiYjeGE7JiN4YTs8cGF0aCBmaWxsPSIjYTA2ODQxIiBkPSJNMzguNzgtNTcuNzRjLjc3Ljg4IDEuODEgMS41MiAyLjgzIDIuMWM1LjA5IDIuODkgMTAuMzEgNS41MiAxNS41MyA4LjJjMi42MSAxLjM1IDUuMjMgMi42OSA3Ljg0IDQuMDRjMi41NyAxLjMzIDUuMTUgMi42NSA3LjcyIDMuOThsNi45MyAzLjU3YzEuODIuOTQgMy42NCAxLjg4IDUuNDYgMi44MWMxLjEuNTcgMi4yIDEuMTQgMy4zMSAxLjdjMS40MS43MyAyLjM5IDEuNDQgNC4wMi44NWMxLjM2LS40OSAxLjQ0LTIuMTUgMS43NS0zLjQzYy44Ni0zLjUxIDEuMjItNy4xMyAxLjM3LTEwLjc0Yy4yMS00Ljc4LjA1LTkuNTgtLjEtMTQuMzZjLS4xOC01Ljc0LjE4LTExLjQ5LS4wNi0xNy4yNmMtLjA3LTEuNTgtLjExLTMuMTctLjE2LTQuNzRjLS4wNC0xLjM5LS44OS0yLjY2LTEuNy0zLjc0Yy0uOTktMS4zMS0yLjExLTIuNjktMi4xOC00LjMzYy0uMTMtMi42OS0yLjgxLTMuNDctNC44My00LjM2Yy0zLjA1LTEuMzUtNS45OS0zLjAxLTguOTYtNC41M2ExMDc0LjE0NCAxMDc0LjE0NCAwIDAgMS0zMS4zNC0xNi43Yy0xLjI1LS42OS04LjEzLTYuMDEtOC4xNi0yLjA1Yy0uMTYgMTcuODEtLjMzIDM1LjYxLS42MiA1My40MmMtLjAzIDEuNi0uMDMgMy4yOS43NSA0LjY4Yy4xNy4zNS4zNy42My42Ljg5eiI+JiN4YTsmI3hhOzwvcGF0aD4mI3hhOyYjeGE7PHBhdGggZmlsbD0iI2M3OGM2MSIgZD0iTTE0NC4xNS01Ny42M2MtMS4wNSAxLjA1LTIuNTcgMS44LTQuNSAyLjc5Yy00LjEzIDIuMTItOC4yNyA0LjI1LTEyLjQgNi4zN2MtOC40MSA0LjMyLTE2LjgxIDguNjQtMjUuMjIgMTIuOTVjLTEuODMuOTQtOC4xIDUuMDQtMTAuMTYgNC4xNWMtMS41OC0uNjgtLjYyLTguNS0uNjItMTAuMjJ2LTIyLjA5di0xMS40MWMwLTQuMTQuMzktOC41My0uMjctMTIuNjFjLS4yLTEuMjQtLjQyLTIuMzkuMzMtMy40OWMxLjItMS43NCA0LjA5LTIuNjcgNS45My0zLjYyYzIuMjMtMS4xNSA0LjQ2LTIuMyA2LjctMy40NWM1LjY2LTIuOTIgMTEuMzEtNS44MyAxNi45Ny04Ljc1bDEzLjUtNi45NmMyLjQxLTEuMjQgNS4wNy0zLjE4IDcuNjYtMy45NWMyLjMtLjY4IDIuNzQgMS4zNiAyLjg4IDMuMjhjLjQgNS43NS4zMyAxMS41OC40NiAxNy4zNGMuMjYgMTEuNDYuNDIgMjIuOTEuNSAzNC4zN2MuMDIgMi42MS0uNTggNC4xMy0xLjc2IDUuM3oiPiYjeGE7JiN4YTs8L3BhdGg+JiN4YTsmI3hhOzxnPiYjeGE7JiN4YTs8cGF0aCBmaWxsPSIjYTA2ODQxIiBkPSJNMTE3LjIzLTEwMC4xNmMyLjk1LTEuNTIgMjYuMDctMTMuODggMjYuMDgtMTUuMjRjMC0xLjEyLTIyLjI2IDEwLjY3LTIyLjI2IDEwLjY3cy0yNy43NiAxNC4yLTI4LjIgMTUuNGMtLjQ1IDEuMiAyMS43Ny05LjQ4IDI0LjM4LTEwLjgzeiI+JiN4YTsmI3hhOzwvcGF0aD4mI3hhOyYjeGE7PC9nPiYjeGE7JiN4YTs8bGluZWFyR3JhZGllbnQgZ3JhZGllbnRUcmFuc2Zvcm09Im1hdHJpeCgtMSAwIDAgMSAxMjQuODggMCkiIHkyPSItNzkuMDY2IiB4Mj0iMTQuMTA3IiB5MT0iLTEwOC4zNjgiIHgxPSIyOC4yIiBncmFkaWVudFVuaXRzPSJ1c2VyU3BhY2VPblVzZSIgaWQ9Ikljb25pZnlJZDE3ZWNkYjI5MDRkMTc4ZWFiMTQ3MzciPiYjeGE7JiN4YTs8c3RvcCBzdG9wLWNvbG9yPSIjZmNlOGIyIiBvZmZzZXQ9Ii4zMSI+JiN4YTsmI3hhOzwvc3RvcD4mI3hhOyYjeGE7PHN0b3Agc3RvcC1jb2xvcj0iI2ZmY2M4MCIgb2Zmc2V0PSIuMzk5Ij4mI3hhOyYjeGE7PC9zdG9wPiYjeGE7JiN4YTs8L2xpbmVhckdyYWRpZW50PiYjeGE7JiN4YTs8cGF0aCBmaWxsPSJ1cmwoI0ljb25pZnlJZDE3ZWNkYjI5MDRkMTc4ZWFiMTQ3MzcpIiBkPSJNMTEwLjE5LTgwLjE4Yy4yLTUuODIuMjgtMTEuNjUuNDEtMTcuNDdjLjAzLTEuMTMuMDUtMi4yNi4wOC0zLjM5YzAgMC0uMDEtLjM4LS4yMS0uNDdsLTU0LjA0LTI3LjgybDE2LjMyLTguNDFzNTIuNjUgMjcuNTEgNTMuMTQgMjcuODdjLjQ5LjM2LjQ5LjM2LjUxIDEuNDFjLjA0IDIuOTguMDkgNS45Ni4xMyA4Ljk0bC4wOSA2LjE2Yy4wMS44OC40OCAzLjE0LjAzIDMuOTRjLS40NC43OC0yLjY4IDEuMTgtMy40OSAxLjM0Yy0uODQuMTYtMS43My4yMy0yLjQ4LjY2Yy0xLjU0Ljg3LTIuMzEgMy4wOS00LjA3IDMuMmMtLjQxLjAyLS44My0uMDgtMS4yMi4wNWMtLjI5LjEtLjUyLjMxLS43NC41MmMtLjg1LjgxLTEuNjcgMS43My0yLjU5IDIuNDZjLS41OS40NS0xLjIxLjYxLTEuODcgMS4wMXoiPiYjeGE7JiN4YTs8L3BhdGg+JiN4YTsmI3hhOzxwYXRoIGZpbGw9IiNmZmNjODAiIGQ9Ik0xMjcuNzItNDguNjVjMC0yLjY0LS4xOC04LjE1LS4xOC04LjE1cy0yLjA3IDEuNzYtMy4zNyAyLjI1Yy0xLjAyLjM4LTIuMTMuNTgtMy4wMiAxLjIxYy0uOTIuNjYtMS41MiAxLjcxLTIuNDYgMi4zNWMtMi4zMiAxLjU5LTUuNDguOTYtNS40OC45NnY4Ljg2bDE0LjUxLTcuNDh6Ij4mI3hhOyYjeGE7PC9wYXRoPiYjeGE7JiN4YTs8Zz4mI3hhOyYjeGE7PHBhdGggZmlsbD0iIzdkNTEzMyIgZD0iTTQwLjQ3LTYwLjA4YzMuNjEgMS44MiA3LjE5IDMuNyAxMS42NiA1Ljk4di0xLjc0Yy00LjQ0LTIuMjctOC4wMy00LjE0LTExLjY2LTUuOTh2MS43NHoiPiYjeGE7JiN4YTs8L3BhdGg+JiN4YTsmI3hhOzxwYXRoIGZpbGw9IiM3ZDUxMzMiIGQ9Ik00OC4wNy01OS4zYzEuMDEuNTIgMS41Mi43OCAyLjQ5IDEuMjhjLjAxLTMuMDMuMDEtNC41NS4wMi03LjU4Yy0uOTUtLjQ5LTEuNDYtLjc0LTIuNDctMS4yNmMtLjAyIDMuMDItLjAzIDQuNTQtLjA0IDcuNTZ6Ij4mI3hhOyYjeGE7PC9wYXRoPiYjeGE7JiN4YTs8cGF0aCBmaWxsPSIjN2Q1MTMzIiBkPSJNNDEuNzUtNjIuNTRjLjg1LjQzIDEuMzEuNjcgMi4yNyAxLjE2bC4wNS03LjU2Yy0uOTctLjUtMS40My0uNzQtMi4yOS0xLjE4Yy0uMDEgMy4wNC0uMDIgNC41NS0uMDMgNy41OHoiPiYjeGE7JiN4YTs8L3BhdGg+JiN4YTsmI3hhOzxwYXRoIGZpbGw9IiM3ZDUxMzMiIGQ9Ik00Ni40Ny02Ni44YzIuMzEgMS4xOSAzLjU2IDEuODIgNS41OSAyLjg2Yy0xLjAyLTEuODQtMS41Ny0yLjc5LTIuNy00LjY5Yy0xLjEyLjc1LTEuNzIgMS4xMS0yLjg5IDEuODN6Ij4mI3hhOyYjeGE7PC9wYXRoPiYjeGE7JiN4YTs8cGF0aCBmaWxsPSIjN2Q1MTMzIiBkPSJNNDAuNDctNjkuODhjMS43My45IDIuODkgMS40OSA1LjE5IDIuNjdjLTEuMTQtMS45MS0xLjctMi44Ni0yLjc1LTQuNzJjLTEuMDcuNzctMS41NyAxLjE3LTIuNDQgMi4wNXoiPiYjeGE7JiN4YTs8L3BhdGg+JiN4YTsmI3hhOzwvZz4mI3hhOyYjeGE7PGc+JiN4YTsmI3hhOzxwYXRoIGZpbGw9IiM3ZDUxMzMiIGQ9Ik01OS4wMS01Mi4xNWMuODIuNDIgMS4yMy42NCAyLjA1IDEuMDdsLS4xNS05Yy0uNzgtLjQxLTEuMTgtLjYyLTEuOTUtMS4wMmMuMDEgMy41OC4wMiA1LjM3LjA1IDguOTV6Ij4mI3hhOyYjeGE7PC9wYXRoPiYjeGE7JiN4YTs8cGF0aCBmaWxsPSIjN2Q1MTMzIiBkPSJNNTYuMDMtNTIuNzhjMi45NyAxLjU3IDUuMjkgMi43NCA4LjE0IDQuMjdjLS4wMi0xLjAzLS44MS0yLjI3LTEuODktMi44NGMtMS42OC0uODktMi42NC0xLjM4LTQuMzUtMi4yN2MtMS4wOS0uNTgtMS45LS4xNy0xLjkuODR6Ij4mI3hhOyYjeGE7PC9wYXRoPiYjeGE7JiN4YTs8cGF0aCBmaWxsPSIjN2Q1MTMzIiBkPSJNNjEuNjktNjIuOTVjLjUgMS4wNi43NiAxLjU5IDEuMjUgMi42NWMtLjQuODMtLjYgMS4yNS0xLjAxIDIuMDhjLjM2LS4wMy41My0uMDQuODgtLjA3Yy40Ny0uNjMuNy0uOTQgMS4xNS0xLjU3Yy0uNDEtLjk3LS42My0xLjQ1LTEuMDUtMi40M2MxLjIuNjUgMS43OC45OSAyLjg3IDEuNjNjMCAzLjUxLTIuMjkgNS4wNC01LjczIDMuMjVjLTMuNDQtMS43OS01LjcyLTUuOC01LjcyLTkuM2MyLjU2IDEuMjggNC4yOCAyLjExIDcuMzYgMy43NnoiPiYjeGE7JiN4YTs8L3BhdGg+JiN4YTsmI3hhOzwvZz4mI3hhOyYjeGE7PC9zdmc+;" vertex="1" parent="1">
          <mxGeometry x="650" y="643" width="60" height="60" as="geometry" />
        </mxCell>
        <mxCell id="4XwBpmDzUFXZfetM7Drz-34" value="" style="shape=image;verticalLabelPosition=bottom;labelBackgroundColor=default;verticalAlign=top;aspect=fixed;imageAspect=0;image=data:image/svg+xml,PHN2ZyB4bWxuczp4bGluaz0iaHR0cDovL3d3dy53My5vcmcvMTk5OS94bGluayIgeG1sbnM9Imh0dHA6Ly93d3cudzMub3JnLzIwMDAvc3ZnIiB2aWV3Qm94PSIwIDAgMzIgMzIiIGhlaWdodD0iODAwcHgiIHdpZHRoPSI4MDBweCI+PGRlZnM+PGxpbmVhckdyYWRpZW50IGdyYWRpZW50VW5pdHM9InVzZXJTcGFjZU9uVXNlIiBncmFkaWVudFRyYW5zZm9ybT0idHJhbnNsYXRlKDI1MjQzLjA2MSAzODUxOS4xNykgc2NhbGUoMTg5LjM4IDE4OS44MSkiIHkyPSItMjAyLjg0IiB4Mj0iLTEzMy4xOTgiIHkxPSItMjAyLjkxIiB4MT0iLTEzMy4yNjgiIGlkPSJhIj48c3RvcCBzdG9wLWNvbG9yPSIjMzg3ZWI4IiBvZmZzZXQ9IjAiLz48c3RvcCBzdG9wLWNvbG9yPSIjMzY2OTk0IiBvZmZzZXQ9IjEiLz48L2xpbmVhckdyYWRpZW50PjxsaW5lYXJHcmFkaWVudCBncmFkaWVudFVuaXRzPSJ1c2VyU3BhY2VPblVzZSIgZ3JhZGllbnRUcmFuc2Zvcm09InRyYW5zbGF0ZSgyNTMwOS4wNjEgMzg1ODMuNDIpIHNjYWxlKDE4OS4zOCAxODkuODEpIiB5Mj0iLTIwMy4xMzMiIHgyPSItMTMzLjQ5NSIgeTE9Ii0yMDMuMjAzIiB4MT0iLTEzMy41NzUiIGlkPSJiIj48c3RvcCBzdG9wLWNvbG9yPSIjZmZlMDUyIiBvZmZzZXQ9IjAiLz48c3RvcCBzdG9wLWNvbG9yPSIjZmZjMzMxIiBvZmZzZXQ9IjEiLz48L2xpbmVhckdyYWRpZW50PjwvZGVmcz48dGl0bGU+ZmlsZV90eXBlX3B5dGhvbjwvdGl0bGU+PHBhdGggc3R5bGU9ImZpbGw6dXJsKCNhKSIgZD0iTTE1Ljg4NSwyLjFjLTcuMSwwLTYuNjUxLDMuMDctNi42NTEsMy4wN1Y4LjM2aDYuNzUydjFINi41NDVTMiw4LjgsMiwxNi4wMDVzNC4wMTMsNi45MTIsNC4wMTMsNi45MTJIOC4zM1YxOS41NTZzLS4xMy00LjAxMywzLjktNC4wMTNoNi43NjJzMy43NzIuMDYsMy43NzItMy42NTJWNS44cy41NzItMy43MTItNi44NDItMy43MTJoMFpNMTIuMTUzLDQuMjM3YTEuMjE0LDEuMjE0LDAsMSwxLTEuMTgzLDEuMjQ0di0uMDJhMS4yMTQsMS4yMTQsMCwwLDEsMS4yMTQtMS4yMTRoMFoiLz48cGF0aCBzdHlsZT0iZmlsbDp1cmwoI2IpIiBkPSJNMTYuMDg1LDI5LjkxYzcuMSwwLDYuNjUxLTMuMDgsNi42NTEtMy4wOFYyMy42NUgxNS45ODV2LTFoOS40N1MzMCwyMy4xNTgsMzAsMTUuOTk1cy00LjAxMy02LjkxMi00LjAxMy02LjkxMkgyMy42NFYxMi40cy4xMyw0LjAxMy0zLjksNC4wMTNIMTIuOTc1UzkuMiwxNi4zNTYsOS4yLDIwLjA2OFYyNi4ycy0uNTcyLDMuNzEyLDYuODQyLDMuNzEyaC4wNFptMy43MzItMi4xNDdBMS4yMTQsMS4yMTQsMCwxLDEsMjEsMjYuNTE5di4wM2ExLjIxNCwxLjIxNCwwLDAsMS0xLjIxNCwxLjIxNGguMDNaIi8+PC9zdmc+;" vertex="1" parent="1">
          <mxGeometry x="690" y="673" width="40" height="40" as="geometry" />
        </mxCell>
        <mxCell id="4XwBpmDzUFXZfetM7Drz-77" style="edgeStyle=orthogonalEdgeStyle;rounded=0;orthogonalLoop=1;jettySize=auto;html=1;" edge="1" parent="1" source="4XwBpmDzUFXZfetM7Drz-75" target="4XwBpmDzUFXZfetM7Drz-48">
          <mxGeometry relative="1" as="geometry" />
        </mxCell>
        <mxCell id="4XwBpmDzUFXZfetM7Drz-78" value="Publish Tasks" style="edgeLabel;html=1;align=center;verticalAlign=middle;resizable=0;points=[];" vertex="1" connectable="0" parent="4XwBpmDzUFXZfetM7Drz-77">
          <mxGeometry x="-0.5708" y="-5" relative="1" as="geometry">
            <mxPoint x="15" y="23" as="offset" />
          </mxGeometry>
        </mxCell>
        <mxCell id="4XwBpmDzUFXZfetM7Drz-75" value="" style="shape=image;verticalLabelPosition=bottom;labelBackgroundColor=default;verticalAlign=top;aspect=fixed;imageAspect=0;image=data:image/svg+xml,PHN2ZyB4bWxuczp4bGluaz0iaHR0cDovL3d3dy53My5vcmcvMTk5OS94bGluayIgeG1sbnM9Imh0dHA6Ly93d3cudzMub3JnLzIwMDAvc3ZnIiBwcmVzZXJ2ZUFzcGVjdFJhdGlvPSJ4TWlkWU1pZCBtZWV0IiBjbGFzcz0iaWNvbmlmeSBpY29uaWZ5LS1ub3RvIiByb2xlPSJpbWciIGFyaWEtaGlkZGVuPSJ0cnVlIiB2aWV3Qm94PSIwIDAgMTI4IDEyOCIgaGVpZ2h0PSI4MDBweCIgd2lkdGg9IjgwMHB4Ij4mI3hhOyYjeGE7PHBhdGggZD0iTS0xODMuOTcgMjQ4LjhoMzAyLjMzdjE2OS4xMmgtMzAyLjMzeiIgZmlsbD0iI2ZmZmZmZiI+JiN4YTsmI3hhOzwvcGF0aD4mI3hhOyYjeGE7PHBhdGggZmlsbD0iI2RlYTY2YyIgZD0iTTYyLjU0IDQuODRMMTAuMzggMzEuNzNjLTEuMTQuNjctMS40NyAxLjY3LTEuNDYgMy4xMmwuMSAxLjgxTDY0LjA5IDY0LjlsNTQuOTQtMjcuNzlzLjA2LS4yOC4wNi0xLjI2YzAgMC0uMDUtMS4yOS0uMzQtMS44OWMtLjMyLS42OC0xLTEuMjktMS40NC0xLjY2Yy0xLjE3LS45Ny0yLjM0LTEuODMtNC4zMy0yLjk1Qzg0LjQ1IDEzLjIyIDY1LjY5IDQuOTEgNjUuNjkgNC45MWMtMS4yMS0uNDUtMi4yMS0uNjEtMy4xNS0uMDd6Ij4mI3hhOyYjeGE7PC9wYXRoPiYjeGE7JiN4YTs8cGF0aCBmaWxsPSIjYjM4MjUxIiBkPSJNOS43NCA5Ni4xNmMzLjA0IDIuMDEgOC41OSA0LjY1IDE0LjIgNy42OWMxMy4wNCA3LjA2IDI5LjUyIDE1LjY0IDM3LjcyIDE5LjAxYzEuMTEuNDYgMS43Ny42OCAyLjU0LjcyYy41Ny4wMyAxLjUxLS4zNSAxLjUxLS4zNXMtMS41My01NS4xOS0xLjYyLTU4LjM0Yy0uMDktMy4wOC0xLjM4LTQuMS0yLjUyLTQuODRjLTEuNzgtMS4xNC01LjY0LTIuOTItNS42NC0yLjkycy0xMy41Mi02LjcyLTI3LjAyLTEzLjhjLTYuNDItMy4zNy0xMS44NC02LjgyLTE3LjY3LTkuNjZjLTEuMDctLjUxLTIuMzMuMTMtMi4zMyAxLjMzdjU5LjhjMCAuNTcuMzUgMS4wNS44MyAxLjM2eiI+JiN4YTsmI3hhOzwvcGF0aD4mI3hhOyYjeGE7PHBhdGggZmlsbD0iIzk2NjIzOSIgZD0iTTExNy41OCA5Ni41MUw2NS44MiAxMjMuMmMtLjgzLjQzLTEuODItLjE3LTEuODItMS4xMWwuMDktNTcuMThjMC0uNTUtLjE3LTEuNzYtLjM0LTIuMjRjLS40Ny0xLjQuNTUtMS45NiAxLjAxLTIuMTlsNTEuMzQtMjYuNDRjMS4zNi0uNyAyLjk5LjI5IDIuOTkgMS44MnY1OC4xOWMwIDEuMDMtLjU4IDEuOTgtMS41MSAyLjQ2eiI+JiN4YTsmI3hhOzwvcGF0aD4mI3hhOyYjeGE7PHBhdGggZmlsbD0iIzIxMjEyMSIgb3BhY2l0eT0iLjUiIGQ9Ik05NC40NiA0Ny41OVM2Ni4wOSA2Mi4xIDY1LjYzIDYzLjMzYy0uNDYgMS4yMiAyMi4yNi05LjcgMjQuOTItMTEuMDdjMy4wMS0xLjU1IDI2LjY1LTE0LjE5IDI2LjY1LTE1LjU4Yy4wMS0xLjE0LTIyLjc0IDEwLjkxLTIyLjc0IDEwLjkxeiI+JiN4YTsmI3hhOzwvcGF0aD4mI3hhOyYjeGE7PGcgb3BhY2l0eT0iLjUiPiYjeGE7JiN4YTs8cGF0aCBmaWxsPSIjMjEyMTIxIiBkPSJNMTIuODEgOTIuODVjMy42OSAxLjg2IDcuMzUgMy43OCAxMS45MSA2LjExdi0xLjc4Yy00LjU0LTIuMzItOC4yMS00LjIzLTExLjkxLTYuMTF2MS43OHoiPiYjeGE7JiN4YTs8L3BhdGg+JiN4YTsmI3hhOzxwYXRoIGZpbGw9IiMyMTIxMjEiIGQ9Ik0yMC41OCA5My42NmMxLjA0LjUzIDEuNTYuOCAyLjU0IDEuM2MuMDEtMy4xLjAxLTQuNjUuMDItNy43NWMtLjk4LS41LTEuNDktLjc2LTIuNTItMS4yOWMtLjAyIDMuMS0uMDMgNC42NC0uMDQgNy43NHoiPiYjeGE7JiN4YTs8L3BhdGg+JiN4YTsmI3hhOzxwYXRoIGZpbGw9IiMyMTIxMjEiIGQ9Ik0xNC4xMiA5MC4zNGMuODYuNDQgMS4zNC42OSAyLjMyIDEuMTlsLjA1LTcuNzJjLS45OS0uNTEtMS40Ny0uNzUtMi4zNC0xLjIxYy0uMDEgMy4xLS4wMiA0LjY1LS4wMyA3Ljc0eiI+JiN4YTsmI3hhOzwvcGF0aD4mI3hhOyYjeGE7PHBhdGggZmlsbD0iIzIxMjEyMSIgZD0iTTE4Ljk1IDg1Ljk5YzIuMzcgMS4yMSAzLjYzIDEuODYgNS43MiAyLjkyYy0xLjA0LTEuODktMS42MS0yLjg1LTIuNzUtNC43OWMtMS4xNy43Ni0xLjc4IDEuMTMtMi45NyAxLjg3eiI+JiN4YTsmI3hhOzwvcGF0aD4mI3hhOyYjeGE7PHBhdGggZmlsbD0iIzIxMjEyMSIgZD0iTTEyLjgxIDgyLjg0YzEuNzcuOTIgMi45NiAxLjUzIDUuMyAyLjczYy0xLjE2LTEuOTUtMS43NC0yLjkyLTIuODEtNC44M2MtMS4wOS43OS0xLjYgMS4yLTIuNDkgMi4xeiI+JiN4YTsmI3hhOzwvcGF0aD4mI3hhOyYjeGE7PC9nPiYjeGE7JiN4YTs8ZyBvcGFjaXR5PSIuNSI+JiN4YTsmI3hhOzxwYXRoIGZpbGw9IiMyMTIxMjEiIGQ9Ik0zMS44MSAxMDEuNGMuODMuNDMgMS4yNi42NiAyLjA5IDEuMDljLS4wNi0zLjY4LS4wOS01LjUyLS4xNi05LjJjLS44LS40Mi0xLjItLjYzLTItMS4wNGMuMDMgMy42Ni4wNCA1LjQ5LjA3IDkuMTV6Ij4mI3hhOyYjeGE7PC9wYXRoPiYjeGE7JiN4YTs8cGF0aCBmaWxsPSIjMjEyMTIxIiBkPSJNMjguNzYgMTAwLjc1YzMuMDQgMS42IDUuNCAyLjggOC4zMiA0LjM2Yy0uMDItMS4wNS0uODMtMi4zMi0xLjkzLTIuOTFjLTEuNzItLjkxLTIuNy0xLjQxLTQuNDQtMi4zMmMtMS4xMi0uNTctMS45NS0uMTYtMS45NS44N3oiPiYjeGE7JiN4YTs8L3BhdGg+JiN4YTsmI3hhOzxwYXRoIGZpbGw9IiMyMTIxMjEiIGQ9Ik0zNC41NSA5MC4zNmwxLjI4IDIuNzFjLS40Ljg1LS42MSAxLjI4LTEuMDMgMi4xMmMuMzYtLjAzLjU0LS4wNC45LS4wN2MuNDgtLjY0LjcyLS45NiAxLjE4LTEuNmMtLjQyLS45OS0uNjQtMS40OS0xLjA4LTIuNDhjMS4yMi42NyAxLjgyIDEuMDEgMi45MyAxLjY2YzAgMy41OC0yLjM0IDUuMTYtNS44NiAzLjMyYy0zLjUyLTEuODMtNS44NS01LjkyLTUuODUtOS41MWMyLjYyIDEuMzEgNC4zOCAyLjE3IDcuNTMgMy44NXoiPiYjeGE7JiN4YTs8L3BhdGg+JiN4YTsmI3hhOzwvZz4mI3hhOyYjeGE7PHBhdGggZmlsbD0iI2ZmZTBiMiIgZD0iTTEwMC43NCA0MS40OWMtLjUtLjM3LTU0LjE5LTI4LjQyLTU0LjE5LTI4LjQybC0xNi42NiA4LjYxbDU1LjA1IDI4LjM5bC4wMy4wM2wxNi4xMS04LjI1cy0uMDMtLjA4LS4xMi0uMThjLS4wNy0uMDYtLjE5LS4xNS0uMjItLjE4eiI+JiN4YTsmI3hhOzwvcGF0aD4mI3hhOyYjeGE7PHBhdGggZmlsbD0iI2JmOWY4NSIgZD0iTTEwMSA0MS43M2MtOS4xMiA0LjQ5LTE2LjA2IDguMzQtMTYuMDYgOC4zNGMuMjMuMjMuMjQuNTMuMjQuNjhjLS4wMyAxLjE2LS4wNSAyLjA4LS4wOCAzLjIzYy0uMTQgNS45NS0uMjIgMTEuOTEtLjQyIDE3Ljg2Yy42Ny0uNCAxLjQ4LjQ4IDIuMDkgMGMuOTQtLjc0IDIuOTQtNCAzLjI0LTQuMWMuNC0uMTMuODMtLjAzIDEuMjQtLjA1YzEuOC0uMSA1LjgzLTMuNzcgNi42OS0zLjk0Yy44My0uMTYgMy41Ny4zNyAzLjU3LjM3cy0uMTktMTguMTUtLjI2LTIxLjJjLS4wMi0xLjA4LS4yNS0xLjE5LS4yNS0xLjE5eiI+JiN4YTsmI3hhOzwvcGF0aD4mI3hhOyYjeGE7PHBhdGggZmlsbD0iI2RlYTY2YyIgZD0iTS05OC43MyA0Ljg0bC01MS44MyAyNi42OGMtMi41MiAxLjQ4LTEuOCA1LjA5LTEuOCA1LjA5bDU1LjE3IDI4LjNsNTUuMDctMjcuODZjLjA1LS4xNy4xMS0xLjIxLS4xNS0zLjE5Yy0uMTQtMS4wNC0zLjI1LTIuOTQtNi4wMy00LjUxQy03Ni44MiAxMy4yMi05NS41OCA0LjkxLTk1LjU4IDQuOTFjLTEuMjEtLjQ1LTIuMi0uNjEtMy4xNS0uMDd6Ij4mI3hhOyYjeGE7PC9wYXRoPiYjeGE7JiN4YTs8cGF0aCBmaWxsPSIjYmY4MDQ5IiBkPSJNLTE1MS41MyA5Ni4xNmMzLjA0IDIuMDEgOC41OSA0LjY1IDE0LjIgNy42OWMxMy4wNCA3LjA2IDI5LjUyIDE1LjY0IDM3LjcyIDE5LjAxYzIuNDUgMS4wMSAzLjc1LjUxIDMuNzUuNTFzLTEuMTUtNTYuMy0xLjExLTU5LjQ1Yy4wMi0xLjMyLTEuNTktMy4xMi0yLjc0LTMuODZjLTEuNzgtMS4xNC01LjY0LTIuOTItNS42NC0yLjkycy0xMy41Mi02LjcyLTI3LjAyLTEzLjhjLTYuNDItMy4zNy0xMS44NC02LjgyLTE3LjY3LTkuNjZjLTEuMDYtLjUyLTIuMzMuMTItMi4zMiAxLjMxdjU5LjhjMCAuNTguMzYgMS4wNi44MyAxLjM3eiI+JiN4YTsmI3hhOzwvcGF0aD4mI3hhOyYjeGE7PHBhdGggZmlsbD0iIzllNjczYyIgZD0iTS00My42OSA5Ni41MWwtNTEuNzYgMjYuNjljLS44My40My0xLjgyLS4xNy0xLjgyLTEuMTFsLjA5LTU3LjE4YzAtLjU1LS40MS0xLjk4LS41Ni0yLjQ4Yy0uMTQtLjUuMzUtMS41MS44MS0xLjc0bDUxLjc2LTI2LjY2YzEuMzYtLjcgMi45OS4yOSAyLjk5IDEuODJ2NTguMTljMCAxLjA0LS41OCAxLjk5LTEuNTEgMi40N3oiPiYjeGE7JiN4YTs8L3BhdGg+JiN4YTsmI3hhOzxwYXRoIG9wYWNpdHk9Ii41IiBmaWxsPSIjMjEyMTIxIiBkPSJNLTcwLjcxIDUyLjI2YzMuMDEtMS41NSAyNi42NS0xNC4xOSAyNi42NS0xNS41OGMwLTEuMTQtMjIuNzUgMTAuOTEtMjIuNzUgMTAuOTFTLTk1LjE4IDYyLjEtOTUuNjQgNjMuMzNjLS40NSAxLjIyIDIyLjI2LTkuNyAyNC45My0xMS4wN3oiPiYjeGE7JiN4YTs8L3BhdGg+JiN4YTsmI3hhOzxnIG9wYWNpdHk9Ii41Ij4mI3hhOyYjeGE7PHBhdGggZmlsbD0iIzIxMjEyMSIgZD0iTS0xNDguNDYgOTIuODVjMy42OSAxLjg2IDcuMzUgMy43OCAxMS45MSA2LjExdi0xLjc4Yy00LjU0LTIuMzItOC4yMS00LjIzLTExLjkxLTYuMTF2MS43OHoiPiYjeGE7JiN4YTs8L3BhdGg+JiN4YTsmI3hhOzxwYXRoIGZpbGw9IiMyMTIxMjEiIGQ9Ik0tMTQwLjY5IDkzLjY2YzEuMDQuNTMgMS41Ni44IDIuNTQgMS4zYy4wMS0zLjEuMDEtNC42NS4wMi03Ljc1Yy0uOTgtLjUtMS40OS0uNzYtMi41Mi0xLjI5Yy0uMDEgMy4xLS4wMiA0LjY0LS4wNCA3Ljc0eiI+JiN4YTsmI3hhOzwvcGF0aD4mI3hhOyYjeGE7PHBhdGggZmlsbD0iIzIxMjEyMSIgZD0iTS0xNDcuMTUgOTAuMzRjLjg2LjQ0IDEuMzQuNjkgMi4zMiAxLjE5bC4wNS03LjcyYy0uOTktLjUxLTEuNDctLjc1LTIuMzQtMS4yMWMtLjAxIDMuMS0uMDIgNC42NS0uMDMgNy43NHoiPiYjeGE7JiN4YTs8L3BhdGg+JiN4YTsmI3hhOzxwYXRoIGZpbGw9IiMyMTIxMjEiIGQ9Ik0tMTQyLjMyIDg1Ljk5YzIuMzcgMS4yMSAzLjYzIDEuODYgNS43MiAyLjkyYy0xLjA0LTEuODktMS42MS0yLjg1LTIuNzUtNC43OWMtMS4xNy43Ni0xLjc4IDEuMTMtMi45NyAxLjg3eiI+JiN4YTsmI3hhOzwvcGF0aD4mI3hhOyYjeGE7PHBhdGggZmlsbD0iIzIxMjEyMSIgZD0iTS0xNDguNDYgODIuODRjMS43Ny45MiAyLjk2IDEuNTMgNS4zIDIuNzNjLTEuMTYtMS45NS0xLjc0LTIuOTItMi44MS00LjgzYy0xLjA5Ljc5LTEuNiAxLjItMi40OSAyLjF6Ij4mI3hhOyYjeGE7PC9wYXRoPiYjeGE7JiN4YTs8L2c+JiN4YTsmI3hhOzxnIG9wYWNpdHk9Ii41Ij4mI3hhOyYjeGE7PHBhdGggZmlsbD0iIzIxMjEyMSIgZD0iTS0xMjkuNDYgMTAxLjRjLjgzLjQzIDEuMjYuNjYgMi4wOSAxLjA5Yy0uMDYtMy42OC0uMDktNS41Mi0uMTYtOS4yYy0uOC0uNDItMS4yLS42My0yLTEuMDRjLjAzIDMuNjYuMDQgNS40OS4wNyA5LjE1eiI+JiN4YTsmI3hhOzwvcGF0aD4mI3hhOyYjeGE7PHBhdGggZmlsbD0iIzIxMjEyMSIgZD0iTS0xMzIuNTEgMTAwLjc1YzMuMDQgMS42IDUuNCAyLjggOC4zMiA0LjM2Yy0uMDItMS4wNS0uODMtMi4zMi0xLjkzLTIuOTFjLTEuNzItLjkxLTIuNy0xLjQxLTQuNDQtMi4zMmMtMS4xMi0uNTctMS45NC0uMTYtMS45NS44N3oiPiYjeGE7JiN4YTs8L3BhdGg+JiN4YTsmI3hhOzxwYXRoIGZpbGw9IiMyMTIxMjEiIGQ9Ik0tMTI2LjcyIDkwLjM2bDEuMjggMi43MWMtLjQuODUtLjYxIDEuMjgtMS4wMyAyLjEyYy4zNi0uMDMuNTQtLjA0LjktLjA3Yy40OC0uNjQuNzItLjk2IDEuMTgtMS42Yy0uNDItLjk5LS42NC0xLjQ5LTEuMDgtMi40OGMxLjIyLjY3IDEuODIgMS4wMSAyLjkzIDEuNjZjMCAzLjU4LTIuMzQgNS4xNi01Ljg2IDMuMzJjLTMuNTItMS44My01Ljg1LTUuOTItNS44NS05LjUxYzIuNjMgMS4zMSA0LjM4IDIuMTcgNy41MyAzLjg1eiI+JiN4YTsmI3hhOzwvcGF0aD4mI3hhOyYjeGE7PC9nPiYjeGE7JiN4YTs8cGF0aCBmaWxsPSIjZmZlMGIyIiBkPSJNLTYxLjg2IDQyLjMzYy0uNS0uMzctNTQuMzItMjguNDktNTQuMzItMjguNDlsLTE2LjY4IDguNmw1NS4xMSAyOC4zN2M0Ljc2LTIuNDUgMTIuMzItNi4zNSAxNi4xMi04LjNhMS4xNSAxLjE1IDAgMCAwLS4yMy0uMTh6Ij4mI3hhOyYjeGE7PC9wYXRoPiYjeGE7JiN4YTs8cGF0aCBmaWxsPSIjYmY5Zjg1IiBkPSJNLTYxLjYzIDQyLjVjLTguMzQgMy43Ny0xNi41IDguMTEtMTYuNSA4LjExYy4yMS4wOS43My43NC43My43NGMtLjAzIDEuMTYtLjA1IDIuMzEtLjA4IDMuNDdjLS4xNCA1Ljk1LS4yMiAxMS45MS0uNDIgMTcuODZjLjY3LS40IDEuNDguNDggMi4wOSAwYy45NC0uNzQgMi45NC00IDMuMjQtNC4xYy40LS4xMy44My0uMDMgMS4yNC0uMDVjMS44LS4xIDUuODMtMy43NyA2LjY5LTMuOTRjLjgzLS4xNiAzLjU3LjM3IDMuNTcuMzdzLS4yMS0xOC4xNS0uMjYtMjEuMmMtLjAyLS44Ny0uMy0xLjI2LS4zLTEuMjZ6Ij4mI3hhOyYjeGE7PC9wYXRoPiYjeGE7JiN4YTs8Zz4mI3hhOyYjeGE7PHBhdGggZmlsbD0iI2RlYTY2YyIgZD0iTTIyMy44MSA0Ljg0bC01MS44MyAyNi42OGMtMi41MiAxLjQ4LTEuOCA1LjA5LTEuOCA1LjA5bDU1LjE3IDI4LjNsNTUuMDctMjcuODZjLjA1LS4xNy4xMS0xLjIxLS4xNS0zLjE5Yy0uMTQtMS4wNC0zLjI1LTIuOTQtNi4wMy00LjUxYy0yOC41My0xNi4xMi00Ny4yOS0yNC40Mi00Ny4yOS0yNC40MmMtMS4yLS40Ny0yLjItLjYzLTMuMTQtLjA5eiI+JiN4YTsmI3hhOzwvcGF0aD4mI3hhOyYjeGE7PHBhdGggZmlsbD0iI2JmODA0OSIgZD0iTTE3MS4wMSA5Ni4xNmMzLjA0IDIuMDEgOC41OSA0LjY1IDE0LjIgNy42OWMxMy4wNCA3LjA2IDI5LjUyIDE1LjY0IDM3LjcyIDE5LjAxYzIuNDUgMS4wMSAzLjc1LjUxIDMuNzUuNTFzLTEuMTUtNTYuMy0xLjExLTU5LjQ1Yy4wMi0xLjMyLTEuNTktMy4xMi0yLjc0LTMuODZjLTEuNzgtMS4xNC01LjY0LTIuOTItNS42NC0yLjkycy0xMy41Mi02LjcyLTI3LjAyLTEzLjhjLTYuNDItMy4zNy0xMS44NC02LjgyLTE3LjY3LTkuNjZjLTEuMDYtLjUyLTIuMzMuMTItMi4zMiAxLjMxdjU5LjhjMCAuNTguMzUgMS4wNi44MyAxLjM3eiI+JiN4YTsmI3hhOzwvcGF0aD4mI3hhOyYjeGE7PHBhdGggZmlsbD0iIzllNjczYyIgZD0iTTI3OC44NSA5Ni41MWwtNTEuNzYgMjYuNjljLS44My40My0xLjgyLS4xNy0xLjgyLTEuMTFsLjA5LTU3LjE4YzAtLjU1LS40MS0xLjk4LS41Ni0yLjQ4Yy0uMTQtLjUuMzUtMS41MS44MS0xLjc0bDUxLjc2LTI2LjY2YzEuMzYtLjcgMi45OS4yOSAyLjk5IDEuODJ2NTguMTljMCAxLjA0LS41OSAxLjk5LTEuNTEgMi40N3oiPiYjeGE7JiN4YTs8L3BhdGg+JiN4YTsmI3hhOzxwYXRoIGZpbGw9IiM3ODRkMzAiIGQ9Ik0yNTEuODIgNTIuMjZjMy4wMS0xLjU1IDI2LjY1LTE0LjE5IDI2LjY1LTE1LjU4YzAtMS4xNC0yMi43NSAxMC45MS0yMi43NSAxMC45MVMyMjcuMzYgNjIuMSAyMjYuOSA2My4zM2MtLjQ2IDEuMjIgMjIuMjYtOS43IDI0LjkyLTExLjA3eiI+JiN4YTsmI3hhOzwvcGF0aD4mI3hhOyYjeGE7PGcgb3BhY2l0eT0iLjg1Ij4mI3hhOyYjeGE7PHBhdGggZmlsbD0iIzc4NGQzMCIgZD0iTTE3My4zNiA5My4yMmMzLjY5IDEuODYgNy4zNSAzLjc4IDExLjkxIDYuMTF2LTEuNzhjLTQuNTQtMi4zMi04LjIxLTQuMjMtMTEuOTEtNi4xMXYxLjc4eiI+JiN4YTsmI3hhOzwvcGF0aD4mI3hhOyYjeGE7PHBhdGggZmlsbD0iIzc4NGQzMCIgZD0iTTE4MS4xMyA5NC4wMmMxLjA0LjUzIDEuNTYuOCAyLjU0IDEuM2MuMDEtMy4xLjAxLTQuNjUuMDItNy43NWMtLjk4LS41LTEuNDktLjc2LTIuNTItMS4yOWMtLjAyIDMuMS0uMDMgNC42NS0uMDQgNy43NHoiPiYjeGE7JiN4YTs8L3BhdGg+JiN4YTsmI3hhOzxwYXRoIGZpbGw9IiM3ODRkMzAiIGQ9Ik0xNzQuNjcgOTAuNzFjLjg2LjQ0IDEuMzQuNjkgMi4zMiAxLjE5bC4wNS03LjcyYy0uOTktLjUxLTEuNDctLjc1LTIuMzQtMS4yMWMtLjAxIDMuMDktLjAyIDQuNjQtLjAzIDcuNzR6Ij4mI3hhOyYjeGE7PC9wYXRoPiYjeGE7JiN4YTs8cGF0aCBmaWxsPSIjNzg0ZDMwIiBkPSJNMTc5LjUgODYuMzZjMi4zNyAxLjIxIDMuNjMgMS44NiA1LjcyIDIuOTJjLTEuMDQtMS44OS0xLjYxLTIuODUtMi43NS00Ljc5Yy0xLjE3Ljc2LTEuNzggMS4xMy0yLjk3IDEuODd6Ij4mI3hhOyYjeGE7PC9wYXRoPiYjeGE7JiN4YTs8cGF0aCBmaWxsPSIjNzg0ZDMwIiBkPSJNMTczLjM2IDgzLjJjMS43Ny45MiAyLjk2IDEuNTMgNS4zIDIuNzNjLTEuMTYtMS45NS0xLjc0LTIuOTItMi44MS00LjgzYy0xLjA5Ljc5LTEuNiAxLjItMi40OSAyLjF6Ij4mI3hhOyYjeGE7PC9wYXRoPiYjeGE7JiN4YTs8L2c+JiN4YTsmI3hhOzxnIG9wYWNpdHk9Ii44NSI+JiN4YTsmI3hhOzxwYXRoIGZpbGw9IiM3ODRkMzAiIGQ9Ik0xOTIuMzUgMTAxLjc3Yy44My40MyAxLjI2LjY2IDIuMDkgMS4wOWMtLjA2LTMuNjgtLjA5LTUuNTItLjE2LTkuMmMtLjgtLjQyLTEuMi0uNjMtMi0xLjA0Yy4wNCAzLjY2LjA1IDUuNDkuMDcgOS4xNXoiPiYjeGE7JiN4YTs8L3BhdGg+JiN4YTsmI3hhOzxwYXRoIGZpbGw9IiM3ODRkMzAiIGQ9Ik0xODkuMzEgMTAxLjEyYzMuMDQgMS42IDUuNCAyLjggOC4zMiA0LjM2Yy0uMDItMS4wNS0uODMtMi4zMi0xLjkzLTIuOTFjLTEuNzItLjkxLTIuNy0xLjQxLTQuNDQtMi4zMmMtMS4xMi0uNTctMS45NS0uMTYtMS45NS44N3oiPiYjeGE7JiN4YTs8L3BhdGg+JiN4YTsmI3hhOzxwYXRoIGZpbGw9IiM3ODRkMzAiIGQ9Ik0xOTUuMSA5MC43M2wxLjI4IDIuNzFjLS40Ljg1LS42MSAxLjI4LTEuMDMgMi4xMmMuMzYtLjAzLjU0LS4wNC45LS4wN2MuNDgtLjY0LjcyLS45NiAxLjE4LTEuNmMtLjQyLS45OS0uNjQtMS40OS0xLjA4LTIuNDhjMS4yMi42NyAxLjgyIDEuMDEgMi45MyAxLjY2YzAgMy41OC0yLjM0IDUuMTYtNS44NiAzLjMyYy0zLjUyLTEuODMtNS44NS01LjkyLTUuODUtOS41MWMyLjYyIDEuMzEgNC4zOCAyLjE3IDcuNTMgMy44NXoiPiYjeGE7JiN4YTs8L3BhdGg+JiN4YTsmI3hhOzwvZz4mI3hhOyYjeGE7PHBhdGggZmlsbD0iI2ZmZTBiMiIgZD0iTTI2MC42OCA0Mi4zM2MtLjUtLjM3LTU0LjMyLTI4LjQ5LTU0LjMyLTI4LjQ5bC0xNi42OCA4LjZsNTUuMTEgMjguMzdjNC43Ni0yLjQ1IDEyLjMyLTYuMzUgMTYuMTItOC4zYy0uMDctLjA2LS4xNC0uMTItLjIzLS4xOHoiPiYjeGE7JiN4YTs8L3BhdGg+JiN4YTsmI3hhOzxwYXRoIGZpbGw9IiNiZjlmODUiIGQ9Ik0yNjAuOTEgNDIuNWMtOC4zNCAzLjc3LTE2LjUgOC4xMS0xNi41IDguMTFjLjIxLjA5LjczLjc0LjczLjc0Yy0uMDMgMS4xNi0uMDUgMi4zMS0uMDggMy40N2MtLjE0IDUuOTUtLjIyIDExLjkxLS40MiAxNy44NmMuNjctLjQgMS40OC40OCAyLjA5IDBjLjk0LS43NCAyLjk0LTQgMy4yNC00LjFjLjQtLjEzLjgzLS4wMyAxLjI0LS4wNWMxLjgtLjEgNS44My0zLjc3IDYuNjktMy45NGMuODMtLjE2IDMuNTcuMzcgMy41Ny4zN3MtLjIxLTE4LjE1LS4yNi0yMS4yYy0uMDItLjg3LS4zLTEuMjYtLjMtMS4yNnoiPiYjeGE7JiN4YTs8L3BhdGg+JiN4YTsmI3hhOzwvZz4mI3hhOyYjeGE7PGc+JiN4YTsmI3hhOzxwYXRoIGZpbGw9IiNkZWE2NmMiIGQ9Ik01NjYuNTEgNC44NGwtNTEuODMgMjYuNjhjLTIuNTIgMS40OC0xLjggNS4wOS0xLjggNS4wOWw1NS4xNyAyOC4zbDU1LjA3LTI3Ljg2Yy4wNS0uMTcuMTEtMS4yMS0uMTUtMy4xOWMtLjE0LTEuMDQtMy4yNS0yLjk0LTYuMDMtNC41MWMtMjguNTMtMTYuMTItNDcuMjktMjQuNDItNDcuMjktMjQuNDJjLTEuMi0uNDctMi4yLS42My0zLjE0LS4wOXoiPiYjeGE7JiN4YTs8L3BhdGg+JiN4YTsmI3hhOzxwYXRoIGZpbGw9IiNiZjgwNDkiIGQ9Ik01MTMuNzEgOTYuMTZjMy4wNCAyLjAxIDguNTkgNC42NSAxNC4yIDcuNjljMTMuMDQgNy4wNiAyOS41MiAxNS42NCAzNy43MiAxOS4wMWMyLjQ1IDEuMDEgMy43NS41MSAzLjc1LjUxcy0xLjE1LTU2LjMtMS4xMS01OS40NWMuMDItMS4zMi0xLjU5LTMuMTItMi43NC0zLjg2Yy0xLjc4LTEuMTQtNS42NC0yLjkyLTUuNjQtMi45MnMtMTMuNTItNi43Mi0yNy4wMi0xMy44Yy02LjQyLTMuMzctMTEuODQtNi44Mi0xNy42Ny05LjY2Yy0xLjA2LS41Mi0yLjMzLjEyLTIuMzIgMS4zMXY1OS44YzAgLjU4LjM1IDEuMDYuODMgMS4zN3oiPiYjeGE7JiN4YTs8L3BhdGg+JiN4YTsmI3hhOzxwYXRoIGZpbGw9IiM5ZTY3M2MiIGQ9Ik02MjEuNTUgOTYuNTFsLTUxLjc2IDI2LjY5Yy0uODMuNDMtMS44Mi0uMTctMS44Mi0xLjExbC4wOS01Ny4xOGMwLS41NS0uNDEtMS45OC0uNTYtMi40OGMtLjE0LS41LjM1LTEuNTEuODEtMS43NGw1MS43Ni0yNi42NmMxLjM2LS43IDIuOTkuMjkgMi45OSAxLjgydjU4LjE5YTIuODE1IDIuODE1IDAgMCAxLTEuNTEgMi40N3oiPiYjeGE7JiN4YTs8L3BhdGg+JiN4YTsmI3hhOzxwYXRoIGZpbGw9IiM3ODRkMzAiIGQ9Ik01OTQuNTIgNTIuMjZjMy4wMS0xLjU1IDI2LjY1LTE0LjE5IDI2LjY1LTE1LjU4YzAtMS4xNC0yMi43NSAxMC45MS0yMi43NSAxMC45MVM1NzAuMDYgNjIuMSA1NjkuNiA2My4zM2MtLjQ2IDEuMjIgMjIuMjYtOS43IDI0LjkyLTExLjA3eiI+JiN4YTsmI3hhOzwvcGF0aD4mI3hhOyYjeGE7PGcgb3BhY2l0eT0iLjg1Ij4mI3hhOyYjeGE7PHBhdGggZmlsbD0iIzc4NGQzMCIgZD0iTTUxNi4wNiA5My4yMmMzLjY5IDEuODYgNy4zNSAzLjc4IDExLjkxIDYuMTF2LTEuNzhjLTQuNTQtMi4zMi04LjIxLTQuMjMtMTEuOTEtNi4xMXYxLjc4eiI+JiN4YTsmI3hhOzwvcGF0aD4mI3hhOyYjeGE7PHBhdGggZmlsbD0iIzc4NGQzMCIgZD0iTTUyMy44MiA5NC4wMmMxLjA0LjUzIDEuNTYuOCAyLjU0IDEuM2MuMDEtMy4xLjAxLTQuNjUuMDItNy43NWMtLjk4LS41LTEuNDktLjc2LTIuNTItMS4yOWMtLjAxIDMuMS0uMDIgNC42NS0uMDQgNy43NHoiPiYjeGE7JiN4YTs8L3BhdGg+JiN4YTsmI3hhOzxwYXRoIGZpbGw9IiM3ODRkMzAiIGQ9Ik01MTcuMzcgOTAuNzFjLjg2LjQ0IDEuMzQuNjkgMi4zMiAxLjE5bC4wNS03LjcyYy0uOTktLjUxLTEuNDctLjc1LTIuMzQtMS4yMWMtLjAxIDMuMDktLjAyIDQuNjQtLjAzIDcuNzR6Ij4mI3hhOyYjeGE7PC9wYXRoPiYjeGE7JiN4YTs8cGF0aCBmaWxsPSIjNzg0ZDMwIiBkPSJNNTIyLjIgODYuMzZjMi4zNyAxLjIxIDMuNjQgMS44NiA1LjcyIDIuOTJjLTEuMDQtMS44OS0xLjYxLTIuODUtMi43NS00Ljc5Yy0xLjE3Ljc2LTEuNzggMS4xMy0yLjk3IDEuODd6Ij4mI3hhOyYjeGE7PC9wYXRoPiYjeGE7JiN4YTs8cGF0aCBmaWxsPSIjNzg0ZDMwIiBkPSJNNTE2LjA2IDgzLjJjMS43Ny45MiAyLjk2IDEuNTMgNS4zIDIuNzNjLTEuMTYtMS45NS0xLjc0LTIuOTItMi44MS00LjgzYy0xLjA5Ljc5LTEuNjEgMS4yLTIuNDkgMi4xeiI+JiN4YTsmI3hhOzwvcGF0aD4mI3hhOyYjeGE7PC9nPiYjeGE7JiN4YTs8ZyBvcGFjaXR5PSIuODUiPiYjeGE7JiN4YTs8cGF0aCBmaWxsPSIjNzg0ZDMwIiBkPSJNNTM1LjA1IDEwMS43N2MuODMuNDMgMS4yNi42NiAyLjA5IDEuMDljLS4wNi0zLjY4LS4wOS01LjUyLS4xNi05LjJjLS44LS40Mi0xLjItLjYzLTItMS4wNGMuMDQgMy42Ni4wNSA1LjQ5LjA3IDkuMTV6Ij4mI3hhOyYjeGE7PC9wYXRoPiYjeGE7JiN4YTs8cGF0aCBmaWxsPSIjNzg0ZDMwIiBkPSJNNTMyLjAxIDEwMS4xMmMzLjA0IDEuNiA1LjQgMi44IDguMzIgNC4zNmMtLjAyLTEuMDUtLjgzLTIuMzItMS45My0yLjkxYy0xLjcyLS45MS0yLjctMS40MS00LjQ0LTIuMzJjLTEuMTMtLjU3LTEuOTUtLjE2LTEuOTUuODd6Ij4mI3hhOyYjeGE7PC9wYXRoPiYjeGE7JiN4YTs8cGF0aCBmaWxsPSIjNzg0ZDMwIiBkPSJNNTM3LjggOTAuNzNsMS4yOCAyLjcxYy0uNC44NS0uNjEgMS4yOC0xLjAzIDIuMTJjLjM2LS4wMy41NC0uMDQuOS0uMDdjLjQ4LS42NC43Mi0uOTYgMS4xOC0xLjZjLS40Mi0uOTktLjY0LTEuNDktMS4wOC0yLjQ4YzEuMjIuNjcgMS44MiAxLjAxIDIuOTMgMS42NmMwIDMuNTgtMi4zNCA1LjE2LTUuODYgMy4zMnMtNS44NS01LjkyLTUuODUtOS41MWMyLjYyIDEuMzEgNC4zOCAyLjE3IDcuNTMgMy44NXoiPiYjeGE7JiN4YTs8L3BhdGg+JiN4YTsmI3hhOzwvZz4mI3hhOyYjeGE7PHBhdGggZmlsbD0iI2ZjZThiMiIgZD0iTTYwMy4zOCA0Mi4zM2MtLjUtLjM3LTU0LjMyLTI4LjQ5LTU0LjMyLTI4LjQ5bC0xNi42OCA4LjZsNTUuMTEgMjguMzdjNC43Ni0yLjQ1IDEyLjMyLTYuMzUgMTYuMTItOC4zYy0uMDctLjA2LS4xNC0uMTItLjIzLS4xOHoiPiYjeGE7JiN4YTs8L3BhdGg+JiN4YTsmI3hhOzxwYXRoIGZpbGw9IiNlY2IzNTQiIGQ9Ik02MDMuNjEgNDIuNWMtOC4zNCAzLjc3LTE2LjUgOC4xMS0xNi41IDguMTFjLjIxLjA5LjcyLjc0LjcyLjc0Yy0uMDMgMS4xNi0uMDUgMi4zMS0uMDggMy40N2MtLjE0IDUuOTUtLjIyIDExLjkxLS40MiAxNy44NmMuNjctLjQgMS40OC40OCAyLjA5IDBjLjk0LS43NCAyLjk0LTQgMy4yNC00LjFjLjQtLjEzLjgzLS4wMyAxLjI0LS4wNWMxLjgtLjEgNS44My0zLjc3IDYuNjktMy45NGMuODMtLjE2IDMuNTcuMzcgMy41Ny4zN3MtLjIxLTE4LjE1LS4yNi0yMS4yYy0uMDEtLjg3LS4yOS0xLjI2LS4yOS0xLjI2eiI+JiN4YTsmI3hhOzwvcGF0aD4mI3hhOyYjeGE7PC9nPiYjeGE7JiN4YTs8Zz4mI3hhOyYjeGE7PHBhdGggZmlsbD0iI2RlYTY2YyIgZD0iTTYyLjU0IDIxNi4wN2wtNTEuODMgMjYuNjhjLTIuNTIgMS40OC0xLjggNS4wOS0xLjggNS4wOWw1NS4xNyAyOC4zbDU1LjA3LTI3Ljg2Yy4wNS0uMTcuMTEtMS4yMS0uMTUtMy4xOWMtLjE0LTEuMDQtMy4yNS0yLjk0LTYuMDMtNC41MWMtMjguNTMtMTYuMTItNDcuMjktMjQuNDItNDcuMjktMjQuNDJjLTEuMi0uNDctMi4yLS42My0zLjE0LS4wOXoiPiYjeGE7JiN4YTs8L3BhdGg+JiN4YTsmI3hhOzxwYXRoIGZpbGw9IiNiZDg5NTUiIGQ9Ik05Ljc0IDMwNy4zOWMzLjA0IDIuMDEgOC41OSA0LjY1IDE0LjIgNy42OWMxMy4wNCA3LjA2IDI5LjUyIDE1LjY0IDM3LjcyIDE5LjAxYzIuNDUgMS4wMSAzLjc1LjUxIDMuNzUuNTFzLTEuMTUtNTYuMy0xLjExLTU5LjQ1Yy4wMi0xLjMyLTEuNTktMy4xMi0yLjc0LTMuODZjLTEuNzgtMS4xNC01LjY0LTIuOTItNS42NC0yLjkycy0xMy41Mi02LjcyLTI3LjAyLTEzLjhjLTYuNDItMy4zNy0xMS44NC02LjgyLTE3LjY3LTkuNjZjLTEuMDYtLjUyLTIuMzMuMTItMi4zMiAxLjMxdjU5LjhjMCAuNTkuMzUgMS4wNi44MyAxLjM3eiI+JiN4YTsmI3hhOzwvcGF0aD4mI3hhOyYjeGE7PHBhdGggZmlsbD0iI2EwNjg0MSIgZD0iTTExNy41OCAzMDcuNzRsLTUxLjc2IDI2LjY5Yy0uODMuNDMtMS44Mi0uMTctMS44Mi0xLjExbC4wOS01Ny4xOGMwLS41NS0uNDEtMS45OC0uNTYtMi40OGMtLjE0LS41LjM1LTEuNTEuODEtMS43NGw1MS43Ni0yNi42NmMxLjM2LS43IDIuOTkuMjkgMi45OSAxLjgydjU4LjE5YzAgMS4wNC0uNTggMS45OS0xLjUxIDIuNDd6Ij4mI3hhOyYjeGE7PC9wYXRoPiYjeGE7JiN4YTs8cGF0aCBmaWxsPSIjNzg0ZDMwIiBkPSJNOTAuNTUgMjYzLjQ5YzMuMDEtMS41NSAyNi42NS0xNC4xOSAyNi42NS0xNS41OGMwLTEuMTQtMjIuNzUgMTAuOTEtMjIuNzUgMTAuOTFzLTI4LjM3IDE0LjUxLTI4LjgzIDE1Ljc0Yy0uNDQgMS4yMiAyMi4yNy05LjcgMjQuOTMtMTEuMDd6Ij4mI3hhOyYjeGE7PC9wYXRoPiYjeGE7JiN4YTs8ZyBvcGFjaXR5PSIuNzMiPiYjeGE7JiN4YTs8cGF0aCBmaWxsPSIjNzg0ZDMwIiBkPSJNMTIuMDkgMzA0LjQ1YzMuNjkgMS44NiA3LjM1IDMuNzggMTEuOTEgNi4xMXYtMS43OGMtNC41NC0yLjMyLTguMjEtNC4yMy0xMS45MS02LjExdjEuNzh6Ij4mI3hhOyYjeGE7PC9wYXRoPiYjeGE7JiN4YTs8cGF0aCBmaWxsPSIjNzg0ZDMwIiBkPSJNMTkuODYgMzA1LjI1YzEuMDQuNTMgMS41Ni44IDIuNTQgMS4zYy4wMS0zLjEuMDEtNC42NS4wMi03Ljc1Yy0uOTgtLjUtMS40OS0uNzYtMi41Mi0xLjI5Yy0uMDIgMy4xLS4wMyA0LjY1LS4wNCA3Ljc0eiI+JiN4YTsmI3hhOzwvcGF0aD4mI3hhOyYjeGE7PHBhdGggZmlsbD0iIzc4NGQzMCIgZD0iTTEzLjQgMzAxLjk0Yy44Ni40NCAxLjM0LjY5IDIuMzIgMS4xOWwuMDUtNy43MmMtLjk5LS41MS0xLjQ3LS43NS0yLjM0LTEuMjFjLS4wMSAzLjA5LS4wMiA0LjY0LS4wMyA3Ljc0eiI+JiN4YTsmI3hhOzwvcGF0aD4mI3hhOyYjeGE7PHBhdGggZmlsbD0iIzc4NGQzMCIgZD0iTTE4LjIzIDI5Ny41OWMyLjM3IDEuMjEgMy42MyAxLjg2IDUuNzIgMi45MmMtMS4wNC0xLjg5LTEuNjEtMi44NS0yLjc1LTQuNzljLTEuMTcuNzYtMS43OCAxLjEzLTIuOTcgMS44N3oiPiYjeGE7JiN4YTs8L3BhdGg+JiN4YTsmI3hhOzxwYXRoIGZpbGw9IiM3ODRkMzAiIGQ9Ik0xMi4wOSAyOTQuNDNjMS43Ny45MiAyLjk2IDEuNTMgNS4zIDIuNzNjLTEuMTYtMS45NS0xLjc0LTIuOTItMi44MS00LjgzYy0xLjA5Ljc5LTEuNiAxLjItMi40OSAyLjF6Ij4mI3hhOyYjeGE7PC9wYXRoPiYjeGE7JiN4YTs8L2c+JiN4YTsmI3hhOzxnIG9wYWNpdHk9Ii43MyI+JiN4YTsmI3hhOzxwYXRoIGZpbGw9IiM3ODRkMzAiIGQ9Ik0zMS4wOSAzMTNjLjgzLjQzIDEuMjYuNjYgMi4wOSAxLjA5Yy0uMDYtMy42OC0uMDktNS41Mi0uMTYtOS4yYy0uOC0uNDItMS4yLS42My0yLTEuMDRjLjAzIDMuNjYuMDQgNS40OS4wNyA5LjE1eiI+JiN4YTsmI3hhOzwvcGF0aD4mI3hhOyYjeGE7PHBhdGggZmlsbD0iIzc4NGQzMCIgZD0iTTI4LjA0IDMxMi4zNWMzLjA0IDEuNiA1LjQgMi44IDguMzIgNC4zNmMtLjAyLTEuMDUtLjgzLTIuMzMtMS45My0yLjkxYy0xLjcyLS45MS0yLjctMS40MS00LjQ0LTIuMzJjLTEuMTItLjU3LTEuOTUtLjE2LTEuOTUuODd6Ij4mI3hhOyYjeGE7PC9wYXRoPiYjeGE7JiN4YTs8cGF0aCBmaWxsPSIjNzg0ZDMwIiBkPSJNMzMuODMgMzAxLjk2bDEuMjggMi43MWMtLjQuODUtLjYxIDEuMjgtMS4wMyAyLjEyYy4zNi0uMDMuNTQtLjA0LjktLjA3Yy40OC0uNjQuNzItLjk2IDEuMTgtMS42Yy0uNDItLjk5LS42NC0xLjQ5LTEuMDgtMi40OGMxLjIyLjY3IDEuODIgMS4wMSAyLjkzIDEuNjZjMCAzLjU4LTIuMzQgNS4xNi01Ljg2IDMuMzJjLTMuNTItMS44My01Ljg1LTUuOTItNS44NS05LjUxYzIuNjIgMS4zMSA0LjM4IDIuMTcgNy41MyAzLjg1eiI+JiN4YTsmI3hhOzwvcGF0aD4mI3hhOyYjeGE7PC9nPiYjeGE7JiN4YTs8cGF0aCBmaWxsPSIjZmNlOGIyIiBkPSJNOTkuNDEgMjUzLjU2Yy0uNS0uMzctNTQuMzItMjguNDktNTQuMzItMjguNDlsLTE2LjY4IDguNmw1NS4xMSAyOC4zN2M0Ljc2LTIuNDUgMTIuMzItNi4zNSAxNi4xMi04LjNjLS4wNi0uMDYtLjE0LS4xMi0uMjMtLjE4eiI+JiN4YTsmI3hhOzwvcGF0aD4mI3hhOyYjeGE7PHBhdGggZmlsbD0iI2VjYjM1NCIgZD0iTTk5LjY0IDI1My43M2MtOC4zNCAzLjc3LTE2LjUgOC4xMS0xNi41IDguMTFjLjIxLjA5LjczLjc0LjczLjc0Yy0uMDMgMS4xNi0uMDUgMi4zMS0uMDggMy40N2MtLjE0IDUuOTUtLjIyIDExLjkxLS40MiAxNy44NmMuNjctLjQgMS40OC40OCAyLjA5IDBjLjk0LS43NCAyLjk0LTQgMy4yNC00LjFjLjQtLjEzLjgzLS4wMyAxLjI0LS4wNWMxLjgtLjEgNS44My0zLjc3IDYuNjktMy45NGMuODMtLjE2IDMuNTcuMzcgMy41Ny4zN3MtLjIxLTE4LjE1LS4yNi0yMS4yYy0uMDItLjg3LS4zLTEuMjYtLjMtMS4yNnoiPiYjeGE7JiN4YTs8L3BhdGg+JiN4YTsmI3hhOzwvZz4mI3hhOyYjeGE7PGc+JiN4YTsmI3hhOzxwYXRoIGZpbGw9IiNlNmE0NjciIGQ9Ik00MDEuODIgNC44NGwtNTEuODMgMjYuNjhjLTIuNTIgMS40OC0xLjggNS4wOS0xLjggNS4wOWw1NS4xNyAyOC4zbDU1LjA3LTI3Ljg2Yy4wNS0uMTcuMTEtMS4yMS0uMTUtMy4xOWMtLjE0LTEuMDQtMy4yNS0yLjk0LTYuMDMtNC41MWMtMjguNTMtMTYuMTItNDcuMjktMjQuNDItNDcuMjktMjQuNDJjLTEuMi0uNDctMi4yLS42My0zLjE0LS4wOXoiPiYjeGE7JiN4YTs8L3BhdGg+JiN4YTsmI3hhOzxwYXRoIGZpbGw9IiNkNjhiNTIiIGQ9Ik0zNDkuMDIgOTYuMTZjMy4wNCAyLjAxIDguNTkgNC42NSAxNC4yIDcuNjljMTMuMDQgNy4wNiAyOS41MiAxNS42NCAzNy43MiAxOS4wMWMyLjQ1IDEuMDEgMy43NS41MSAzLjc1LjUxcy0xLjE1LTU2LjMtMS4xMS01OS40NWMuMDItMS4zMi0xLjU5LTMuMTItMi43NC0zLjg2Yy0xLjc4LTEuMTQtNS42NC0yLjkyLTUuNjQtMi45MnMtMTMuNTItNi43Mi0yNy4wMi0xMy44Yy02LjQyLTMuMzctMTEuODQtNi44Mi0xNy42Ny05LjY2Yy0xLjA2LS41Mi0yLjMzLjEyLTIuMzIgMS4zMXY1OS44YzAgLjU4LjM1IDEuMDYuODMgMS4zN3oiPiYjeGE7JiN4YTs8L3BhdGg+JiN4YTsmI3hhOzxwYXRoIGZpbGw9IiNhMDY4NDEiIGQ9Ik00NTYuODYgOTYuNTFMNDA1LjEgMTIzLjJjLS44My40My0xLjgyLS4xNy0xLjgyLTEuMTFsLjA5LTU3LjE4YzAtLjU1LS40MS0xLjk4LS41Ni0yLjQ4Yy0uMTQtLjUuMzUtMS41MS44MS0xLjc0bDUxLjc2LTI2LjY2YzEuMzYtLjcgMi45OS4yOSAyLjk5IDEuODJ2NTguMTlhMi44MTUgMi44MTUgMCAwIDEtMS41MSAyLjQ3eiI+JiN4YTsmI3hhOzwvcGF0aD4mI3hhOyYjeGE7PHBhdGggZmlsbD0iIzc4NGQzMCIgZD0iTTQyOS44MyA1Mi4yNmMzLjAxLTEuNTUgMjYuNjUtMTQuMTkgMjYuNjUtMTUuNThjMC0xLjE0LTIyLjc1IDEwLjkxLTIyLjc1IDEwLjkxUzQwNS4zNiA2Mi4xIDQwNC45IDYzLjMzYy0uNDUgMS4yMiAyMi4yNy05LjcgMjQuOTMtMTEuMDd6Ij4mI3hhOyYjeGE7PC9wYXRoPiYjeGE7JiN4YTs8ZyBvcGFjaXR5PSIuNzMiPiYjeGE7JiN4YTs8cGF0aCBmaWxsPSIjNzg0ZDMwIiBkPSJNMzUxLjM3IDkzLjIyYzMuNjkgMS44NiA3LjM1IDMuNzggMTEuOTEgNi4xMXYtMS43OGMtNC41NC0yLjMyLTguMjEtNC4yMy0xMS45MS02LjExdjEuNzh6Ij4mI3hhOyYjeGE7PC9wYXRoPiYjeGE7JiN4YTs8cGF0aCBmaWxsPSIjNzg0ZDMwIiBkPSJNMzU5LjEzIDk0LjAyYzEuMDQuNTMgMS41Ni44IDIuNTQgMS4zYy4wMS0zLjEuMDEtNC42NS4wMi03Ljc1Yy0uOTgtLjUtMS40OS0uNzYtMi41Mi0xLjI5Yy0uMDEgMy4xLS4wMiA0LjY1LS4wNCA3Ljc0eiI+JiN4YTsmI3hhOzwvcGF0aD4mI3hhOyYjeGE7PHBhdGggZmlsbD0iIzc4NGQzMCIgZD0iTTM1Mi42OCA5MC43MWMuODYuNDQgMS4zNC42OSAyLjMyIDEuMTlsLjA1LTcuNzJjLS45OS0uNTEtMS40Ny0uNzUtMi4zNS0xLjIxYzAgMy4wOS0uMDEgNC42NC0uMDIgNy43NHoiPiYjeGE7JiN4YTs8L3BhdGg+JiN4YTsmI3hhOzxwYXRoIGZpbGw9IiM3ODRkMzAiIGQ9Ik0zNTcuNTEgODYuMzZjMi4zNyAxLjIxIDMuNjQgMS44NiA1LjcyIDIuOTJjLTEuMDQtMS44OS0xLjYxLTIuODUtMi43NS00Ljc5Yy0xLjE3Ljc2LTEuNzggMS4xMy0yLjk3IDEuODd6Ij4mI3hhOyYjeGE7PC9wYXRoPiYjeGE7JiN4YTs8cGF0aCBmaWxsPSIjNzg0ZDMwIiBkPSJNMzUxLjM3IDgzLjJjMS43Ny45MiAyLjk2IDEuNTMgNS4zIDIuNzNjLTEuMTYtMS45NS0xLjc0LTIuOTItMi44MS00LjgzYy0xLjA5Ljc5LTEuNjEgMS4yLTIuNDkgMi4xeiI+JiN4YTsmI3hhOzwvcGF0aD4mI3hhOyYjeGE7PC9nPiYjeGE7JiN4YTs8ZyBvcGFjaXR5PSIuNzMiPiYjeGE7JiN4YTs8cGF0aCBmaWxsPSIjNzg0ZDMwIiBkPSJNMzcwLjM2IDEwMS43N2MuODMuNDMgMS4yNi42NiAyLjA5IDEuMDljLS4wNi0zLjY4LS4wOS01LjUyLS4xNi05LjJjLS44LS40Mi0xLjItLjYzLTItMS4wNGMuMDQgMy42Ni4wNSA1LjQ5LjA3IDkuMTV6Ij4mI3hhOyYjeGE7PC9wYXRoPiYjeGE7JiN4YTs8cGF0aCBmaWxsPSIjNzg0ZDMwIiBkPSJNMzY3LjMyIDEwMS4xMmMzLjA0IDEuNiA1LjQgMi44IDguMzIgNC4zNmMtLjAyLTEuMDUtLjgzLTIuMzItMS45My0yLjkxYy0xLjcyLS45MS0yLjctMS40MS00LjQ0LTIuMzJjLTEuMTMtLjU3LTEuOTUtLjE2LTEuOTUuODd6Ij4mI3hhOyYjeGE7PC9wYXRoPiYjeGE7JiN4YTs8cGF0aCBmaWxsPSIjNzg0ZDMwIiBkPSJNMzczLjExIDkwLjczbDEuMjggMi43MWMtLjQuODUtLjYxIDEuMjgtMS4wMyAyLjEyYy4zNi0uMDMuNTQtLjA0LjktLjA3Yy40OC0uNjQuNzItLjk2IDEuMTgtMS42Yy0uNDItLjk5LS42NC0xLjQ5LTEuMDgtMi40OGMxLjIyLjY3IDEuODIgMS4wMSAyLjkzIDEuNjZjMCAzLjU4LTIuMzQgNS4xNi01Ljg2IDMuMzJjLTMuNTItMS44My01Ljg1LTUuOTItNS44NS05LjUxYzIuNjIgMS4zMSA0LjM4IDIuMTcgNy41MyAzLjg1eiI+JiN4YTsmI3hhOzwvcGF0aD4mI3hhOyYjeGE7PC9nPiYjeGE7JiN4YTs8cGF0aCBmaWxsPSIjZmNlOGIyIiBkPSJNNDM4LjY5IDQyLjMzYy0uNS0uMzctNTQuMzItMjguNDktNTQuMzItMjguNDlsLTE2LjY4IDguNmw1NS4xMSAyOC4zN2M0Ljc2LTIuNDUgMTIuMzItNi4zNSAxNi4xMi04LjNjLS4wNy0uMDYtLjE0LS4xMi0uMjMtLjE4eiI+JiN4YTsmI3hhOzwvcGF0aD4mI3hhOyYjeGE7PHBhdGggZmlsbD0iI2VjYjM1NCIgZD0iTTQzOC45MiA0Mi41Yy04LjM0IDMuNzctMTYuNSA4LjExLTE2LjUgOC4xMWMuMjEuMDkuNzMuNzQuNzMuNzRjLS4wMyAxLjE2LS4wNSAyLjMxLS4wOCAzLjQ3Yy0uMTQgNS45NS0uMjIgMTEuOTEtLjQyIDE3Ljg2Yy42Ny0uNCAxLjQ4LjQ4IDIuMDkgMGMuOTQtLjc0IDIuOTQtNCAzLjI0LTQuMWMuNC0uMTMuODMtLjAzIDEuMjQtLjA1YzEuOC0uMSA1LjgzLTMuNzcgNi42OS0zLjk0Yy44My0uMTYgMy41Ny4zNyAzLjU3LjM3cy0uMjEtMTguMTUtLjI2LTIxLjJjLS4wMi0uODctLjMtMS4yNi0uMy0xLjI2eiI+JiN4YTsmI3hhOzwvcGF0aD4mI3hhOyYjeGE7PC9nPiYjeGE7JiN4YTs8Zz4mI3hhOyYjeGE7PHBhdGggZmlsbD0iI2U2YTQ3NSIgZD0iTS0yNDAuNjMgNC44NGwtNTEuODMgMjYuNjhjLTIuNTIgMS40OC0xLjggNS4wOS0xLjggNS4wOWw1NS4xNyAyOC4zbDU1LjA3LTI3Ljg2Yy4wNS0uMTcuMTEtMS4yMS0uMTUtMy4xOWMtLjE0LTEuMDQtMy4yNS0yLjk0LTYuMDMtNC41MWMtMjguNTMtMTYuMTItNDcuMjktMjQuNDItNDcuMjktMjQuNDJjLTEuMi0uNDctMi4yLS42My0zLjE0LS4wOXoiPiYjeGE7JiN4YTs8L3BhdGg+JiN4YTsmI3hhOzxwYXRoIGZpbGw9IiNjNzhjNjEiIGQ9Ik0tMjkzLjQzIDk2LjE2YzMuMDQgMi4wMSA4LjU5IDQuNjUgMTQuMiA3LjY5YzEzLjA0IDcuMDYgMjkuNTIgMTUuNjQgMzcuNzIgMTkuMDFjMi40NSAxLjAxIDMuNzUuNTEgMy43NS41MXMtMS4xNS01Ni4zLTEuMTEtNTkuNDVjLjAyLTEuMzItMS41OS0zLjEyLTIuNzQtMy44NmMtMS43OC0xLjE0LTUuNjQtMi45Mi01LjY0LTIuOTJzLTEzLjUyLTYuNzItMjcuMDItMTMuOGMtNi40Mi0zLjM3LTExLjg0LTYuODItMTcuNjctOS42NmMtMS4wNi0uNTItMi4zMy4xMi0yLjMyIDEuMzF2NTkuOGMwIC41OC4zNSAxLjA2LjgzIDEuMzd6Ij4mI3hhOyYjeGE7PC9wYXRoPiYjeGE7JiN4YTs8cGF0aCBmaWxsPSIjYTA2ODQxIiBkPSJNLTE4NS41OSA5Ni41MWwtNTEuNzYgMjYuNjljLS44My40My0xLjgyLS4xNy0xLjgyLTEuMTFsLjA5LTU3LjE4YzAtLjU1LS40MS0xLjk4LS41Ni0yLjQ4Yy0uMTQtLjUuMzUtMS41MS44MS0xLjc0bDUxLjc2LTI2LjY2YzEuMzYtLjcgMi45OS4yOSAyLjk5IDEuODJ2NTguMTlhMi44MTUgMi44MTUgMCAwIDEtMS41MSAyLjQ3eiI+JiN4YTsmI3hhOzwvcGF0aD4mI3hhOyYjeGE7PHBhdGggZmlsbD0iIzc4NGQzMCIgZD0iTS0yMTIuNjIgNTIuMjZjMy4wMS0xLjU1IDI2LjY1LTE0LjE5IDI2LjY1LTE1LjU4YzAtMS4xNC0yMi43NSAxMC45MS0yMi43NSAxMC45MXMtMjguMzcgMTQuNTEtMjguODMgMTUuNzRjLS40NSAxLjIyIDIyLjI2LTkuNyAyNC45My0xMS4wN3oiPiYjeGE7JiN4YTs8L3BhdGg+JiN4YTsmI3hhOzxnIG9wYWNpdHk9Ii43MyI+JiN4YTsmI3hhOzxwYXRoIGZpbGw9IiM3ODRkMzAiIGQ9Ik0tMjkxLjA4IDkzLjIyYzMuNjkgMS44NiA3LjM1IDMuNzggMTEuOTEgNi4xMXYtMS43OGMtNC41NC0yLjMyLTguMjEtNC4yMy0xMS45MS02LjExdjEuNzh6Ij4mI3hhOyYjeGE7PC9wYXRoPiYjeGE7JiN4YTs8cGF0aCBmaWxsPSIjNzg0ZDMwIiBkPSJNLTI4My4zMiA5NC4wMmMxLjA0LjUzIDEuNTYuOCAyLjU0IDEuM2MuMDEtMy4xLjAxLTQuNjUuMDItNy43NWMtLjk4LS41LTEuNDktLjc2LTIuNTItMS4yOWMtLjAxIDMuMS0uMDIgNC42NS0uMDQgNy43NHoiPiYjeGE7JiN4YTs8L3BhdGg+JiN4YTsmI3hhOzxwYXRoIGZpbGw9IiM3ODRkMzAiIGQ9Ik0tMjg5Ljc3IDkwLjcxYy44Ni40NCAxLjM0LjY5IDIuMzIgMS4xOWwuMDUtNy43MmMtLjk5LS41MS0xLjQ3LS43NS0yLjM0LTEuMjFjLS4wMSAzLjA5LS4wMiA0LjY0LS4wMyA3Ljc0eiI+JiN4YTsmI3hhOzwvcGF0aD4mI3hhOyYjeGE7PHBhdGggZmlsbD0iIzc4NGQzMCIgZD0iTS0yODQuOTUgODYuMzZjMi4zNyAxLjIxIDMuNjMgMS44NiA1LjcyIDIuOTJjLTEuMDQtMS44OS0xLjYxLTIuODUtMi43NS00Ljc5Yy0xLjE2Ljc2LTEuNzcgMS4xMy0yLjk3IDEuODd6Ij4mI3hhOyYjeGE7PC9wYXRoPiYjeGE7JiN4YTs8cGF0aCBmaWxsPSIjNzg0ZDMwIiBkPSJNLTI5MS4wOCA4My4yYzEuNzcuOTIgMi45NiAxLjUzIDUuMyAyLjczYy0xLjE2LTEuOTUtMS43NC0yLjkyLTIuODEtNC44M2MtMS4wOS43OS0xLjYxIDEuMi0yLjQ5IDIuMXoiPiYjeGE7JiN4YTs8L3BhdGg+JiN4YTsmI3hhOzwvZz4mI3hhOyYjeGE7PGcgb3BhY2l0eT0iLjczIj4mI3hhOyYjeGE7PHBhdGggZmlsbD0iIzc4NGQzMCIgZD0iTS0yNzIuMDkgMTAxLjc3Yy44My40MyAxLjI2LjY2IDIuMDkgMS4wOWMtLjA2LTMuNjgtLjA5LTUuNTItLjE2LTkuMmMtLjgtLjQyLTEuMi0uNjMtMi0xLjA0Yy4wNCAzLjY2LjA1IDUuNDkuMDcgOS4xNXoiPiYjeGE7JiN4YTs8L3BhdGg+JiN4YTsmI3hhOzxwYXRoIGZpbGw9IiM3ODRkMzAiIGQ9Ik0tMjc1LjEzIDEwMS4xMmMzLjA0IDEuNiA1LjQgMi44IDguMzIgNC4zNmMtLjAyLTEuMDUtLjgzLTIuMzItMS45My0yLjkxYy0xLjcyLS45MS0yLjctMS40MS00LjQ0LTIuMzJjLTEuMTMtLjU3LTEuOTUtLjE2LTEuOTUuODd6Ij4mI3hhOyYjeGE7PC9wYXRoPiYjeGE7JiN4YTs8cGF0aCBmaWxsPSIjNzg0ZDMwIiBkPSJNLTI2OS4zNCA5MC43M2wxLjI4IDIuNzFjLS40Ljg1LS42MSAxLjI4LTEuMDMgMi4xMmMuMzYtLjAzLjU0LS4wNC45LS4wN2MuNDgtLjY0LjcyLS45NiAxLjE4LTEuNmMtLjQyLS45OS0uNjQtMS40OS0xLjA4LTIuNDhjMS4yMi42NyAxLjgyIDEuMDEgMi45MyAxLjY2YzAgMy41OC0yLjM0IDUuMTYtNS44NiAzLjMycy01Ljg1LTUuOTItNS44NS05LjUxYzIuNjIgMS4zMSA0LjM4IDIuMTcgNy41MyAzLjg1eiI+JiN4YTsmI3hhOzwvcGF0aD4mI3hhOyYjeGE7PC9nPiYjeGE7JiN4YTs8cGF0aCBmaWxsPSIjZmNlOGIyIiBkPSJNLTIwMy43NiA0Mi4zM2MtLjUtLjM3LTU0LjMyLTI4LjQ5LTU0LjMyLTI4LjQ5bC0xNi42OCA4LjZsNTUuMTEgMjguMzdjNC43Ni0yLjQ1IDEyLjMyLTYuMzUgMTYuMTItOC4zYy0uMDctLjA2LS4xNC0uMTItLjIzLS4xOHoiPiYjeGE7JiN4YTs8L3BhdGg+JiN4YTsmI3hhOzxwYXRoIGZpbGw9IiNlY2IzNTQiIGQ9Ik0tMjAzLjU0IDQyLjVjLTguMzQgMy43Ny0xNi41IDguMTEtMTYuNSA4LjExYy4yMS4wOS43My43NC43My43NGMtLjAzIDEuMTYtLjA1IDIuMzEtLjA4IDMuNDdjLS4xNCA1Ljk1LS4yMiAxMS45MS0uNDIgMTcuODZjLjY3LS40IDEuNDguNDggMi4wOSAwYy45NC0uNzQgMi45NC00IDMuMjQtNC4xYy40LS4xMy44My0uMDMgMS4yNC0uMDVjMS44LS4xIDUuODMtMy43NyA2LjY5LTMuOTRjLjgzLS4xNiAzLjU3LjM3IDMuNTcuMzdzLS4yMS0xOC4xNS0uMjYtMjEuMmMtLjAxLS44Ny0uMy0xLjI2LS4zLTEuMjZ6Ij4mI3hhOyYjeGE7PC9wYXRoPiYjeGE7JiN4YTs8L2c+JiN4YTsmI3hhOzxwYXRoIGZpbGw9IiNlNmE0NzUiIGQ9Ik05MC4yOS0xNDYuNzlsLTEwLjQ3IDUuNGwtMjEuNDggMTEuMDdjLTMuNzYgMS45NC03LjUzIDMuODctMTEuMjkgNS44MWMtMi41MiAxLjMtNy44OSAyLjkzLTguNzEgNi4wOGMtLjE4LjcxLS4xMSAxLjQ1LS4wMyAyLjE4Yy4zNiAzLjMyLjI3IDYuMjcgMi40MyA4LjljMi4wNCAyLjQ4IDUuNDcgNS44IDkuMDEgNS44YzguMTEgMi42NSAxNS44NSA2LjI4IDIzLjgyIDkuM2M3LjEyIDIuNyAxNi4wOSA2LjkgMjMuMzYgMi44MmMuODgtLjQ5IDEuNi0xLjE2IDIuNDktMS42YzEuMTktLjU5IDIuNDMtMS4wNSAzLjYxLTEuNjhjMy4zNS0xLjc3IDYuMy00LjIgOS40Ny02LjI2YzUuMzQtMy40OCAxMS4yNC01LjkyIDE2Ljk5LTguNjFjMi44OS0xLjM1IDUuNzYtMi43NyA4LjQ5LTQuNDJhNDcuOSA0Ny45IDAgMCAwIDMuOTYtMi42NWMuOTgtLjczIDIuNzEtMS43NCAzLjA1LTMuMDFjLjA1LS4xNy4wNy0uMzQuMDctLjUyYy0uMDEtLjctLjQxLTEuMzQtLjk0LTEuNzljLTEuNzYtMS41LTQuMjYtMi4yOC02LjMzLTMuMTljLTIuNy0xLjE4LTUuMjQtMi44Ny03LjgxLTQuMzJjLTUuNDItMy4wNi0xMC44OC02LjA0LTE2LjM4LTguOTNhNjc1LjQ5IDY3NS40OSAwIDAgMC0xMi4yOC02LjNjLTIuMTEtMS4wNS00LjIyLTIuMDktNi4zNC0zLjEzYy0xLjM2LS42Ni0zLjEzLTEuNzUtNC42OS0uOTV6Ij4mI3hhOyYjeGE7PC9wYXRoPiYjeGE7JiN4YTs8cGF0aCBmaWxsPSIjYTA2ODQxIiBkPSJNMzguNzgtNTcuNzRjLjc3Ljg4IDEuODEgMS41MiAyLjgzIDIuMWM1LjA5IDIuODkgMTAuMzEgNS41MiAxNS41MyA4LjJjMi42MSAxLjM1IDUuMjMgMi42OSA3Ljg0IDQuMDRjMi41NyAxLjMzIDUuMTUgMi42NSA3LjcyIDMuOThsNi45MyAzLjU3YzEuODIuOTQgMy42NCAxLjg4IDUuNDYgMi44MWMxLjEuNTcgMi4yIDEuMTQgMy4zMSAxLjdjMS40MS43MyAyLjM5IDEuNDQgNC4wMi44NWMxLjM2LS40OSAxLjQ0LTIuMTUgMS43NS0zLjQzYy44Ni0zLjUxIDEuMjItNy4xMyAxLjM3LTEwLjc0Yy4yMS00Ljc4LjA1LTkuNTgtLjEtMTQuMzZjLS4xOC01Ljc0LjE4LTExLjQ5LS4wNi0xNy4yNmMtLjA3LTEuNTgtLjExLTMuMTctLjE2LTQuNzRjLS4wNC0xLjM5LS44OS0yLjY2LTEuNy0zLjc0Yy0uOTktMS4zMS0yLjExLTIuNjktMi4xOC00LjMzYy0uMTMtMi42OS0yLjgxLTMuNDctNC44My00LjM2Yy0zLjA1LTEuMzUtNS45OS0zLjAxLTguOTYtNC41M2ExMDc0LjE0NCAxMDc0LjE0NCAwIDAgMS0zMS4zNC0xNi43Yy0xLjI1LS42OS04LjEzLTYuMDEtOC4xNi0yLjA1Yy0uMTYgMTcuODEtLjMzIDM1LjYxLS42MiA1My40MmMtLjAzIDEuNi0uMDMgMy4yOS43NSA0LjY4Yy4xNy4zNS4zNy42My42Ljg5eiI+JiN4YTsmI3hhOzwvcGF0aD4mI3hhOyYjeGE7PHBhdGggZmlsbD0iI2M3OGM2MSIgZD0iTTE0NC4xNS01Ny42M2MtMS4wNSAxLjA1LTIuNTcgMS44LTQuNSAyLjc5Yy00LjEzIDIuMTItOC4yNyA0LjI1LTEyLjQgNi4zN2MtOC40MSA0LjMyLTE2LjgxIDguNjQtMjUuMjIgMTIuOTVjLTEuODMuOTQtOC4xIDUuMDQtMTAuMTYgNC4xNWMtMS41OC0uNjgtLjYyLTguNS0uNjItMTAuMjJ2LTIyLjA5di0xMS40MWMwLTQuMTQuMzktOC41My0uMjctMTIuNjFjLS4yLTEuMjQtLjQyLTIuMzkuMzMtMy40OWMxLjItMS43NCA0LjA5LTIuNjcgNS45My0zLjYyYzIuMjMtMS4xNSA0LjQ2LTIuMyA2LjctMy40NWM1LjY2LTIuOTIgMTEuMzEtNS44MyAxNi45Ny04Ljc1bDEzLjUtNi45NmMyLjQxLTEuMjQgNS4wNy0zLjE4IDcuNjYtMy45NWMyLjMtLjY4IDIuNzQgMS4zNiAyLjg4IDMuMjhjLjQgNS43NS4zMyAxMS41OC40NiAxNy4zNGMuMjYgMTEuNDYuNDIgMjIuOTEuNSAzNC4zN2MuMDIgMi42MS0uNTggNC4xMy0xLjc2IDUuM3oiPiYjeGE7JiN4YTs8L3BhdGg+JiN4YTsmI3hhOzxnPiYjeGE7JiN4YTs8cGF0aCBmaWxsPSIjYTA2ODQxIiBkPSJNMTE3LjIzLTEwMC4xNmMyLjk1LTEuNTIgMjYuMDctMTMuODggMjYuMDgtMTUuMjRjMC0xLjEyLTIyLjI2IDEwLjY3LTIyLjI2IDEwLjY3cy0yNy43NiAxNC4yLTI4LjIgMTUuNGMtLjQ1IDEuMiAyMS43Ny05LjQ4IDI0LjM4LTEwLjgzeiI+JiN4YTsmI3hhOzwvcGF0aD4mI3hhOyYjeGE7PC9nPiYjeGE7JiN4YTs8bGluZWFyR3JhZGllbnQgZ3JhZGllbnRUcmFuc2Zvcm09Im1hdHJpeCgtMSAwIDAgMSAxMjQuODggMCkiIHkyPSItNzkuMDY2IiB4Mj0iMTQuMTA3IiB5MT0iLTEwOC4zNjgiIHgxPSIyOC4yIiBncmFkaWVudFVuaXRzPSJ1c2VyU3BhY2VPblVzZSIgaWQ9Ikljb25pZnlJZDE3ZWNkYjI5MDRkMTc4ZWFiMTQ3MzciPiYjeGE7JiN4YTs8c3RvcCBzdG9wLWNvbG9yPSIjZmNlOGIyIiBvZmZzZXQ9Ii4zMSI+JiN4YTsmI3hhOzwvc3RvcD4mI3hhOyYjeGE7PHN0b3Agc3RvcC1jb2xvcj0iI2ZmY2M4MCIgb2Zmc2V0PSIuMzk5Ij4mI3hhOyYjeGE7PC9zdG9wPiYjeGE7JiN4YTs8L2xpbmVhckdyYWRpZW50PiYjeGE7JiN4YTs8cGF0aCBmaWxsPSJ1cmwoI0ljb25pZnlJZDE3ZWNkYjI5MDRkMTc4ZWFiMTQ3MzcpIiBkPSJNMTEwLjE5LTgwLjE4Yy4yLTUuODIuMjgtMTEuNjUuNDEtMTcuNDdjLjAzLTEuMTMuMDUtMi4yNi4wOC0zLjM5YzAgMC0uMDEtLjM4LS4yMS0uNDdsLTU0LjA0LTI3LjgybDE2LjMyLTguNDFzNTIuNjUgMjcuNTEgNTMuMTQgMjcuODdjLjQ5LjM2LjQ5LjM2LjUxIDEuNDFjLjA0IDIuOTguMDkgNS45Ni4xMyA4Ljk0bC4wOSA2LjE2Yy4wMS44OC40OCAzLjE0LjAzIDMuOTRjLS40NC43OC0yLjY4IDEuMTgtMy40OSAxLjM0Yy0uODQuMTYtMS43My4yMy0yLjQ4LjY2Yy0xLjU0Ljg3LTIuMzEgMy4wOS00LjA3IDMuMmMtLjQxLjAyLS44My0uMDgtMS4yMi4wNWMtLjI5LjEtLjUyLjMxLS43NC41MmMtLjg1LjgxLTEuNjcgMS43My0yLjU5IDIuNDZjLS41OS40NS0xLjIxLjYxLTEuODcgMS4wMXoiPiYjeGE7JiN4YTs8L3BhdGg+JiN4YTsmI3hhOzxwYXRoIGZpbGw9IiNmZmNjODAiIGQ9Ik0xMjcuNzItNDguNjVjMC0yLjY0LS4xOC04LjE1LS4xOC04LjE1cy0yLjA3IDEuNzYtMy4zNyAyLjI1Yy0xLjAyLjM4LTIuMTMuNTgtMy4wMiAxLjIxYy0uOTIuNjYtMS41MiAxLjcxLTIuNDYgMi4zNWMtMi4zMiAxLjU5LTUuNDguOTYtNS40OC45NnY4Ljg2bDE0LjUxLTcuNDh6Ij4mI3hhOyYjeGE7PC9wYXRoPiYjeGE7JiN4YTs8Zz4mI3hhOyYjeGE7PHBhdGggZmlsbD0iIzdkNTEzMyIgZD0iTTQwLjQ3LTYwLjA4YzMuNjEgMS44MiA3LjE5IDMuNyAxMS42NiA1Ljk4di0xLjc0Yy00LjQ0LTIuMjctOC4wMy00LjE0LTExLjY2LTUuOTh2MS43NHoiPiYjeGE7JiN4YTs8L3BhdGg+JiN4YTsmI3hhOzxwYXRoIGZpbGw9IiM3ZDUxMzMiIGQ9Ik00OC4wNy01OS4zYzEuMDEuNTIgMS41Mi43OCAyLjQ5IDEuMjhjLjAxLTMuMDMuMDEtNC41NS4wMi03LjU4Yy0uOTUtLjQ5LTEuNDYtLjc0LTIuNDctMS4yNmMtLjAyIDMuMDItLjAzIDQuNTQtLjA0IDcuNTZ6Ij4mI3hhOyYjeGE7PC9wYXRoPiYjeGE7JiN4YTs8cGF0aCBmaWxsPSIjN2Q1MTMzIiBkPSJNNDEuNzUtNjIuNTRjLjg1LjQzIDEuMzEuNjcgMi4yNyAxLjE2bC4wNS03LjU2Yy0uOTctLjUtMS40My0uNzQtMi4yOS0xLjE4Yy0uMDEgMy4wNC0uMDIgNC41NS0uMDMgNy41OHoiPiYjeGE7JiN4YTs8L3BhdGg+JiN4YTsmI3hhOzxwYXRoIGZpbGw9IiM3ZDUxMzMiIGQ9Ik00Ni40Ny02Ni44YzIuMzEgMS4xOSAzLjU2IDEuODIgNS41OSAyLjg2Yy0xLjAyLTEuODQtMS41Ny0yLjc5LTIuNy00LjY5Yy0xLjEyLjc1LTEuNzIgMS4xMS0yLjg5IDEuODN6Ij4mI3hhOyYjeGE7PC9wYXRoPiYjeGE7JiN4YTs8cGF0aCBmaWxsPSIjN2Q1MTMzIiBkPSJNNDAuNDctNjkuODhjMS43My45IDIuODkgMS40OSA1LjE5IDIuNjdjLTEuMTQtMS45MS0xLjctMi44Ni0yLjc1LTQuNzJjLTEuMDcuNzctMS41NyAxLjE3LTIuNDQgMi4wNXoiPiYjeGE7JiN4YTs8L3BhdGg+JiN4YTsmI3hhOzwvZz4mI3hhOyYjeGE7PGc+JiN4YTsmI3hhOzxwYXRoIGZpbGw9IiM3ZDUxMzMiIGQ9Ik01OS4wMS01Mi4xNWMuODIuNDIgMS4yMy42NCAyLjA1IDEuMDdsLS4xNS05Yy0uNzgtLjQxLTEuMTgtLjYyLTEuOTUtMS4wMmMuMDEgMy41OC4wMiA1LjM3LjA1IDguOTV6Ij4mI3hhOyYjeGE7PC9wYXRoPiYjeGE7JiN4YTs8cGF0aCBmaWxsPSIjN2Q1MTMzIiBkPSJNNTYuMDMtNTIuNzhjMi45NyAxLjU3IDUuMjkgMi43NCA4LjE0IDQuMjdjLS4wMi0xLjAzLS44MS0yLjI3LTEuODktMi44NGMtMS42OC0uODktMi42NC0xLjM4LTQuMzUtMi4yN2MtMS4wOS0uNTgtMS45LS4xNy0xLjkuODR6Ij4mI3hhOyYjeGE7PC9wYXRoPiYjeGE7JiN4YTs8cGF0aCBmaWxsPSIjN2Q1MTMzIiBkPSJNNjEuNjktNjIuOTVjLjUgMS4wNi43NiAxLjU5IDEuMjUgMi42NWMtLjQuODMtLjYgMS4yNS0xLjAxIDIuMDhjLjM2LS4wMy41My0uMDQuODgtLjA3Yy40Ny0uNjMuNy0uOTQgMS4xNS0xLjU3Yy0uNDEtLjk3LS42My0xLjQ1LTEuMDUtMi40M2MxLjIuNjUgMS43OC45OSAyLjg3IDEuNjNjMCAzLjUxLTIuMjkgNS4wNC01LjczIDMuMjVjLTMuNDQtMS43OS01LjcyLTUuOC01LjcyLTkuM2MyLjU2IDEuMjggNC4yOCAyLjExIDcuMzYgMy43NnoiPiYjeGE7JiN4YTs8L3BhdGg+JiN4YTsmI3hhOzwvZz4mI3hhOyYjeGE7PC9zdmc+;" vertex="1" parent="1">
          <mxGeometry x="1300" y="293" width="160" height="160" as="geometry" />
        </mxCell>
        <mxCell id="4XwBpmDzUFXZfetM7Drz-76" value="" style="shape=image;verticalLabelPosition=bottom;labelBackgroundColor=default;verticalAlign=top;aspect=fixed;imageAspect=0;image=data:image/svg+xml,PHN2ZyB4bWxuczp4bGluaz0iaHR0cDovL3d3dy53My5vcmcvMTk5OS94bGluayIgeG1sbnM9Imh0dHA6Ly93d3cudzMub3JnLzIwMDAvc3ZnIiB2aWV3Qm94PSIwIDAgMzIgMzIiIGhlaWdodD0iODAwcHgiIHdpZHRoPSI4MDBweCI+PGRlZnM+PGxpbmVhckdyYWRpZW50IGdyYWRpZW50VW5pdHM9InVzZXJTcGFjZU9uVXNlIiBncmFkaWVudFRyYW5zZm9ybT0idHJhbnNsYXRlKDI1MjQzLjA2MSAzODUxOS4xNykgc2NhbGUoMTg5LjM4IDE4OS44MSkiIHkyPSItMjAyLjg0IiB4Mj0iLTEzMy4xOTgiIHkxPSItMjAyLjkxIiB4MT0iLTEzMy4yNjgiIGlkPSJhIj48c3RvcCBzdG9wLWNvbG9yPSIjMzg3ZWI4IiBvZmZzZXQ9IjAiLz48c3RvcCBzdG9wLWNvbG9yPSIjMzY2OTk0IiBvZmZzZXQ9IjEiLz48L2xpbmVhckdyYWRpZW50PjxsaW5lYXJHcmFkaWVudCBncmFkaWVudFVuaXRzPSJ1c2VyU3BhY2VPblVzZSIgZ3JhZGllbnRUcmFuc2Zvcm09InRyYW5zbGF0ZSgyNTMwOS4wNjEgMzg1ODMuNDIpIHNjYWxlKDE4OS4zOCAxODkuODEpIiB5Mj0iLTIwMy4xMzMiIHgyPSItMTMzLjQ5NSIgeTE9Ii0yMDMuMjAzIiB4MT0iLTEzMy41NzUiIGlkPSJiIj48c3RvcCBzdG9wLWNvbG9yPSIjZmZlMDUyIiBvZmZzZXQ9IjAiLz48c3RvcCBzdG9wLWNvbG9yPSIjZmZjMzMxIiBvZmZzZXQ9IjEiLz48L2xpbmVhckdyYWRpZW50PjwvZGVmcz48dGl0bGU+ZmlsZV90eXBlX3B5dGhvbjwvdGl0bGU+PHBhdGggc3R5bGU9ImZpbGw6dXJsKCNhKSIgZD0iTTE1Ljg4NSwyLjFjLTcuMSwwLTYuNjUxLDMuMDctNi42NTEsMy4wN1Y4LjM2aDYuNzUydjFINi41NDVTMiw4LjgsMiwxNi4wMDVzNC4wMTMsNi45MTIsNC4wMTMsNi45MTJIOC4zM1YxOS41NTZzLS4xMy00LjAxMywzLjktNC4wMTNoNi43NjJzMy43NzIuMDYsMy43NzItMy42NTJWNS44cy41NzItMy43MTItNi44NDItMy43MTJoMFpNMTIuMTUzLDQuMjM3YTEuMjE0LDEuMjE0LDAsMSwxLTEuMTgzLDEuMjQ0di0uMDJhMS4yMTQsMS4yMTQsMCwwLDEsMS4yMTQtMS4yMTRoMFoiLz48cGF0aCBzdHlsZT0iZmlsbDp1cmwoI2IpIiBkPSJNMTYuMDg1LDI5LjkxYzcuMSwwLDYuNjUxLTMuMDgsNi42NTEtMy4wOFYyMy42NUgxNS45ODV2LTFoOS40N1MzMCwyMy4xNTgsMzAsMTUuOTk1cy00LjAxMy02LjkxMi00LjAxMy02LjkxMkgyMy42NFYxMi40cy4xMyw0LjAxMy0zLjksNC4wMTNIMTIuOTc1UzkuMiwxNi4zNTYsOS4yLDIwLjA2OFYyNi4ycy0uNTcyLDMuNzEyLDYuODQyLDMuNzEyaC4wNFptMy43MzItMi4xNDdBMS4yMTQsMS4yMTQsMCwxLDEsMjEsMjYuNTE5di4wM2ExLjIxNCwxLjIxNCwwLDAsMS0xLjIxNCwxLjIxNGguMDNaIi8+PC9zdmc+;" vertex="1" parent="1">
          <mxGeometry x="1420" y="393" width="60" height="60" as="geometry" />
        </mxCell>
        <mxCell id="4XwBpmDzUFXZfetM7Drz-79" value="ITS Requests&amp;nbsp;&lt;div&gt;API&lt;/div&gt;" style="text;html=1;align=center;verticalAlign=middle;resizable=0;points=[];autosize=1;strokeColor=none;fillColor=none;" vertex="1" parent="1">
          <mxGeometry x="1330" y="453" width="100" height="40" as="geometry" />
        </mxCell>
      </root>
    </mxGraphModel>
  </diagram>
</mxfile>
